<svg width="20" height="21" viewBox="0 0 20 21" fill="none" xmlns="http://www.w3.org/2000/svg">
<path fill-rule="evenodd" clip-rule="evenodd" d="M17.6469 10.483V7.17044C18.3303 7.41378 18.8236 8.06129 18.8236 8.82713C18.8236 9.59297 18.3303 10.2396 17.6469 10.483ZM16.4702 15.0497C14.4427 12.5247 11.7602 11.9438 10.5885 11.8105V5.84375C11.7602 5.70875 14.4427 5.12874 16.4702 2.60287V15.0497ZM9.4118 11.768H4.11756C3.14421 11.768 2.35253 10.9763 2.35253 10.003V7.65045C2.35253 6.6771 3.14421 5.88542 4.11756 5.88542H9.4118V11.768ZM20.0003 8.82713C20.0003 7.40628 18.9878 6.21876 17.6469 5.94542V0.591179C17.6469 0.319508 17.4594 0.0811716 17.1944 0.0186708C16.9269 -0.0521636 16.6544 0.0845049 16.5327 0.327842C14.3794 4.63624 10.176 4.7079 9.99848 4.70874H4.11756C2.49587 4.70874 1.17585 6.02792 1.17585 7.65045V8.23879H0.588342C0.263337 8.23879 0 8.50129 0 8.82713C0 9.1513 0.263337 9.41547 0.588342 9.41547H1.17585V10.003C1.17585 11.6255 2.49587 12.9447 4.11756 12.9447H4.7059V19.4156C4.7059 19.7398 4.96924 20.0031 5.29424 20.0031H7.50011C7.68094 20.0031 7.85178 19.919 7.96261 19.7765C8.07428 19.6339 8.11428 19.4489 8.07095 19.2731C7.91511 18.6439 7.66844 16.8122 8.38595 15.8956C8.70096 15.4931 9.18096 15.2972 9.85264 15.2972V14.1205C8.80846 14.1205 8.00261 14.4747 7.45761 15.1731C6.61426 16.2531 6.6726 17.8873 6.79676 18.8273H5.88175V12.9447H10.0001C10.0435 12.9447 14.3677 12.9955 16.5327 17.3256C16.6336 17.5273 16.8402 17.6506 17.0586 17.6506C17.1036 17.6506 17.1486 17.6464 17.1944 17.6339C17.4594 17.5723 17.6469 17.3348 17.6469 17.0622V11.7088C18.9878 11.4355 20.0003 10.248 20.0003 8.82713Z" fill="black"/>
</svg>
