<svg width="20" height="20" viewBox="0 0 20 20" fill="none" xmlns="http://www.w3.org/2000/svg">
<path fill-rule="evenodd" clip-rule="evenodd" d="M17.3776 10.0259L15.8565 8.50473L17.0588 7.30238L18.58 8.82356L17.3776 10.0259ZM12.1094 15.2941H10.5882V13.773L15.0247 9.3365L16.5459 10.8577L12.1094 15.2941ZM19.8282 8.40826C20.0576 8.63767 20.0576 9.00944 19.8282 9.24003L12.7694 16.2988C12.6588 16.4083 12.5094 16.4706 12.3529 16.4706H10C9.67529 16.4706 9.41177 16.2071 9.41177 15.8824V13.5294C9.41177 13.373 9.47412 13.2236 9.58353 13.1141L16.6424 6.05532C16.8729 5.82473 17.2447 5.82473 17.4753 6.05532L19.8282 8.40826ZM0 -9.15527e-05H15.2941V5.88226H14.1176V1.17638H1.17647V18.8234H14.1176V16.4705H15.2941V19.9999H0V-9.15527e-05ZM3.52941 8.23532V3.52944H11.7647V8.23532H3.52941ZM4.70588 7.05885V4.70591H10.5882V7.05885H4.70588ZM3.52941 11.7647V10.5883H9.41177V11.7647H3.52941ZM3.52941 14.1177V12.9412H7.05882V14.1177H3.52941Z" fill="#008EE2"/>
</svg>
