<svg width="18" height="20" viewBox="0 0 18 20" fill="none" xmlns="http://www.w3.org/2000/svg">
<path fill-rule="evenodd" clip-rule="evenodd" d="M15.8825 1.17667C16.855 1.17667 17.6475 1.9675 17.6475 2.94083V4.70583V5.88167V20H0V5.88167V4.70583V2.94083C0 1.9675 0.791667 1.17667 1.765 1.17667H3.52917V0.588333C3.52917 0.2625 3.7925 0 4.1175 0C4.4425 0 4.70583 0.2625 4.70583 0.588333V1.17667H12.9417V0.588333C12.9417 0.2625 13.2042 0 13.5292 0C13.8542 0 14.1175 0.2625 14.1175 0.588333V1.17667H15.8825ZM1.17667 4.70583H16.4708V2.94083C16.4708 2.61667 16.2067 2.3525 15.8825 2.3525H14.1175V2.94083C14.1175 3.26583 13.8542 3.52917 13.5292 3.52917C13.2042 3.52917 12.9417 3.26583 12.9417 2.94083V2.3525H4.70583V2.94083C4.70583 3.26583 4.4425 3.52917 4.1175 3.52917C3.7925 3.52917 3.52917 3.26583 3.52917 2.94083V2.3525H1.765C1.44 2.3525 1.17667 2.61667 1.17667 2.94083V4.70583ZM1.17667 18.8225H16.4708V5.88167H1.17667V18.8225ZM8.81825 14.7563C9.57908 14.7563 10.1508 14.2996 10.1508 13.6054V13.5837C10.1508 12.8346 9.45742 12.4121 8.37908 12.4121H7.75075L7.53158 11.5771L9.61075 9.39542H6.27658V8.23542H11.3716V9.23292L9.22658 11.4029C10.3933 11.5446 11.4932 12.1304 11.4932 13.5296V13.5513C11.4932 14.9513 10.4041 15.9596 8.79658 15.9596C7.45325 15.9596 6.49575 15.4062 5.84658 14.6254L6.79325 13.7579C7.34408 14.3971 7.95992 14.7563 8.81825 14.7563Z" fill="black"/>
</svg>
