<svg width="20" height="17" viewBox="0 0 20 17" fill="none" xmlns="http://www.w3.org/2000/svg">
    <path d="M20 4.35294V14.4706C20 15.5752 19.1046 16.4706 18 16.4706H2C0.89543 16.4706 0 15.5752 0 14.4706V4.35294C0 3.24837 0.89543 2.35294 2 2.35294H4.93057L5.55425 1.10557C5.89304 0.428005 6.58556 0 7.34311 0H12.6569C13.4144 0 14.107 0.428005 14.4457 1.10557L15.0694 2.35294H18C19.1046 2.35294 20 3.24837 20 4.35294ZM14.3423 3.52941L13.4423 1.72926C13.2729 1.39047 12.9266 1.17647 12.5478 1.17647H7.45217C7.0734 1.17647 6.72714 1.39047 6.55774 1.72926L5.65767 3.52941H2.17647C1.62419 3.52941 1.17647 3.97713 1.17647 4.52941V14.2941C1.17647 14.8464 1.62419 15.2941 2.17647 15.2941H17.8235C18.3758 15.2941 18.8235 14.8464 18.8235 14.2941V4.52941C18.8235 3.97713 18.3758 3.52941 17.8235 3.52941H14.3423ZM10 13.5294C7.40101 13.5294 5.29412 11.4225 5.29412 8.82353C5.29412 6.22454 7.40101 4.11765 10 4.11765C12.599 4.11765 14.7059 6.22454 14.7059 8.82353C14.7059 11.4225 12.599 13.5294 10 13.5294ZM10 12.3529C11.9492 12.3529 13.5294 10.7728 13.5294 8.82353C13.5294 6.87429 11.9492 5.29412 10 5.29412C8.05076 5.29412 6.47059 6.87429 6.47059 8.82353C6.47059 10.7728 8.05076 12.3529 10 12.3529ZM2.94118 6.47059C2.29143 6.47059 1.76471 5.94386 1.76471 5.29412C1.76471 4.64437 2.29143 4.11765 2.94118 4.11765C3.59092 4.11765 4.11765 4.64437 4.11765 5.29412C4.11765 5.94386 3.59092 6.47059 2.94118 6.47059Z" fill="#2D3B45"/>
</svg>
