<svg width="164" height="148" viewBox="0 0 164 148" fill="none" xmlns="http://www.w3.org/2000/svg">
<g clip-path="url(#clip0_4675_17352)">
<path fill-rule="evenodd" clip-rule="evenodd" d="M73.0872 1.25764C75.9164 0.438836 78.9069 0 82 0C85.0931 0 88.0836 0.438836 90.9128 1.25764C90.3011 5.63284 86.5438 9 82 9C77.4562 9 73.6989 5.63284 73.0872 1.25764ZM112.742 23.0872C113.561 25.9164 114 28.9069 114 32C114 35.0931 113.561 38.0836 112.742 40.9128C108.367 40.3011 105 36.5438 105 32C105 27.4562 108.367 23.6989 112.742 23.0872ZM110.039 47.4344C107.115 52.7335 102.734 57.1153 97.4344 60.0385C94.7748 56.5123 95.0511 51.4758 98.2635 48.2635C101.476 45.0511 106.512 44.7748 110.039 47.4344ZM90.9128 62.7424C88.0836 63.5612 85.0931 64 82 64C78.9069 64 75.9164 63.5612 73.0872 62.7424C73.6989 58.3672 77.4562 55 82 55C86.5438 55 90.3011 58.3672 90.9128 62.7424ZM66.5656 60.0385C61.2665 57.1153 56.8847 52.7335 53.9615 47.4344C57.4877 44.7748 62.5242 45.0511 65.7365 48.2635C68.9489 51.4758 69.2252 56.5123 66.5656 60.0385ZM51.2576 40.9128C50.4388 38.0836 50 35.0931 50 32C50 28.9069 50.4388 25.9164 51.2576 23.0872C55.6328 23.6989 59 27.4562 59 32C59 36.5438 55.6328 40.3011 51.2576 40.9128ZM53.9615 16.5656C56.8847 11.2665 61.2665 6.88469 66.5656 3.96146C69.2252 7.48768 68.9489 12.5242 65.7365 15.7365C62.5242 18.9489 57.4877 19.2252 53.9615 16.5656ZM82 18C80.3431 18 79 16.6569 79 15C79 13.3431 80.3431 12 82 12C83.6569 12 85 13.3431 85 15C85 16.6569 83.6569 18 82 18ZM96 32C96 30.3431 97.3431 29 99 29C100.657 29 102 30.3431 102 32C102 33.6569 100.657 35 99 35C97.3431 35 96 33.6569 96 32ZM91.8995 41.8995C93.0711 40.7279 94.9706 40.7279 96.1421 41.8995C97.3137 43.0711 97.3137 44.9706 96.1421 46.1421C94.9706 47.3137 93.0711 47.3137 91.8995 46.1421C90.7279 44.9706 90.7279 43.0711 91.8995 41.8995ZM82 46C83.6569 46 85 47.3431 85 49C85 50.6569 83.6569 52 82 52C80.3431 52 79 50.6569 79 49C79 47.3431 80.3431 46 82 46ZM72.1005 41.8995C73.2721 43.0711 73.2721 44.9706 72.1005 46.1421C70.9289 47.3137 69.0294 47.3137 67.8579 46.1421C66.6863 44.9706 66.6863 43.0711 67.8579 41.8995C69.0294 40.7279 70.9289 40.7279 72.1005 41.8995ZM68 32C68 33.6569 66.6569 35 65 35C63.3431 35 62 33.6569 62 32C62 30.3431 63.3431 29 65 29C66.6569 29 68 30.3431 68 32ZM72.1005 22.1005C70.9289 23.2721 69.0294 23.2721 67.8579 22.1005C66.6863 20.9289 66.6863 19.0294 67.8579 17.8579C69.0294 16.6863 70.9289 16.6863 72.1005 17.8579C73.2721 19.0294 73.2721 20.9289 72.1005 22.1005Z" fill="#6B80EA"/>
<path fill-rule="evenodd" clip-rule="evenodd" d="M100.475 25.6C107.143 25.6 112.549 20.194 112.549 13.5254C112.549 6.8567 107.143 1.45068 100.475 1.45068C93.8059 1.45068 88.3999 6.8567 88.3999 13.5254C88.3999 20.194 93.8059 25.6 100.475 25.6ZM97.9454 13.5064C97.9454 14.9244 99.0993 16.0783 100.517 16.0783C101.935 16.0783 103.089 14.9244 103.089 13.5064C103.089 12.0885 101.935 10.9346 100.517 10.9346C99.0993 10.9346 97.9454 12.0885 97.9454 13.5064ZM100.517 8.3627C103.731 8.3627 106.67 10.2607 108.188 13.3153L108.283 13.5064L108.188 13.6976C106.67 16.7521 103.731 18.6502 100.517 18.6502C97.3033 18.6502 94.3645 16.7521 92.8462 13.6976L92.7519 13.5064L92.8462 13.3153C94.3645 10.2607 97.3033 8.3627 100.517 8.3627Z" fill="#6B80EA"/>
<path d="M20 119C20 125.003 15.9217 128 9.98369 128H9.85318C3.91517 128 0 125.847 0 119.713V96.2871C0 90.4796 3.91517 88 9.85318 88H9.98369C15.9217 88 20 90.6925 20 96.5V101H14V97C14 94.2594 12.0065 93.677 9.98369 93.677C7.96085 93.677 6 94.2594 6 97V119C6 121.741 7.96085 122.258 9.98369 122.258C12.0065 122.258 14 121.741 14 119V114H20V119Z" fill="white"/>
<path d="M43 118H35L34 127H27.5L34.9045 88H43L50.5 127H44L43 118ZM42 113L39 96L36.1415 113.002L42 113Z" fill="white"/>
<path d="M129 118H121L120 127H113.5L120.904 88H129L136.5 127H130L129 118ZM128 113L125 96L122.142 113.002L128 113Z" fill="white"/>
<path d="M59 127V88H65.349L74 112V88H80V127H73.5L65 102V127H59Z" fill="white"/>
<path d="M102 127H96L88 88H95L99 117L103 88H109L102 127Z" fill="white"/>
<path d="M157 97C157 94.5123 155.588 93.5646 153.689 93.5646C151.791 93.5646 150 94.0777 150 96.5V99.5C150 101.529 151.07 102.468 152.903 103.581L157.486 106.134C161.218 108.295 164 110.81 164 115V119C164 125.023 159.957 128 154 128C148.043 128 144 126.088 144 120V116H150V119C150 121.422 151.536 122.5 153.5 122.5C155.464 122.5 157.093 121.388 157.093 118.966V115.889C157.093 113.859 156.504 112.877 154.54 111.83L150.023 109.277C146.226 107.116 144 105.059 144 101V96C144 90.1735 148.632 88 154 88C159.368 88 163 90.1735 163 96V100H157V97Z" fill="white"/>
<path d="M59.6198 142.12C59.6198 142.616 59.5278 143.034 59.3438 143.374C59.1598 143.714 58.9118 143.988 58.5998 144.196C58.2878 144.404 57.9278 144.556 57.5198 144.652C57.1118 144.748 56.6878 144.796 56.2478 144.796H55.2278V148H53.1758V139.504H56.2958C56.7598 139.504 57.1938 139.55 57.5978 139.642C58.0018 139.734 58.3538 139.882 58.6538 140.086C58.9538 140.29 59.1898 140.558 59.3618 140.89C59.5338 141.222 59.6198 141.632 59.6198 142.12ZM57.5678 142.132C57.5678 141.932 57.5278 141.768 57.4478 141.64C57.3678 141.512 57.2598 141.412 57.1238 141.34C56.9878 141.268 56.8338 141.22 56.6618 141.196C56.4898 141.172 56.3118 141.16 56.1278 141.16H55.2278V143.164H56.0918C56.2838 143.164 56.4678 143.148 56.6438 143.116C56.8198 143.084 56.9778 143.028 57.1178 142.948C57.2578 142.868 57.3678 142.762 57.4478 142.63C57.5278 142.498 57.5678 142.332 57.5678 142.132ZM67.8958 148L67.2358 146.332H63.9478L63.3238 148H61.0918L64.6558 139.504H66.6478L70.1758 148H67.8958ZM65.6158 141.772L64.5358 144.688H66.6718L65.6158 141.772ZM77.4318 148L75.5958 144.628H74.8998V148H72.8838V139.504H76.1238C76.5318 139.504 76.9298 139.546 77.3178 139.63C77.7058 139.714 78.0538 139.856 78.3618 140.056C78.6698 140.256 78.9158 140.52 79.0998 140.848C79.2838 141.176 79.3758 141.584 79.3758 142.072C79.3758 142.648 79.2198 143.132 78.9078 143.524C78.5958 143.916 78.1638 144.196 77.6118 144.364L79.8318 148H77.4318ZM77.3478 142.108C77.3478 141.908 77.3058 141.746 77.2218 141.622C77.1378 141.498 77.0298 141.402 76.8978 141.334C76.7658 141.266 76.6178 141.22 76.4538 141.196C76.2898 141.172 76.1318 141.16 75.9798 141.16H74.8878V143.14H75.8598C76.0278 143.14 76.1998 143.126 76.3758 143.098C76.5518 143.07 76.7118 143.02 76.8558 142.948C76.9998 142.876 77.1178 142.772 77.2098 142.636C77.3018 142.5 77.3478 142.324 77.3478 142.108ZM82.8398 148V139.504H88.5518V141.244H84.8198V142.84H88.3478V144.484H84.8198V146.248H88.7678V148H82.8398ZM97.5238 148L94.1038 142.444H94.0678L94.1158 148H92.1238V139.504H94.4638L97.8718 145.048H97.9078L97.8598 139.504H99.8518V148H97.5238ZM107.24 141.256V148H105.188V141.256H102.788V139.504H109.64V141.256H107.24Z" fill="white"/>
</g>
<defs>
<clipPath id="clip0_4675_17352">
<rect width="164" height="148" fill="white"/>
</clipPath>
</defs>
</svg>
