<svg width="376" height="376" viewBox="0 0 376 376" fill="none" xmlns="http://www.w3.org/2000/svg">
<path fill-rule="evenodd" clip-rule="evenodd" d="M135.776 7.86901C152.354 3.07131 169.877 0.5 188 0.5C206.123 0.5 223.646 3.07131 240.224 7.86901C236.639 33.5049 214.624 53.2344 188 53.2344C161.376 53.2344 139.361 33.5049 135.776 7.86901ZM368.131 135.776C372.929 152.354 375.5 169.877 375.5 188C375.5 206.123 372.929 223.646 368.131 240.224C342.495 236.639 322.766 214.624 322.766 188C322.766 161.376 342.495 139.361 368.131 135.776ZM352.288 278.436C335.16 309.485 309.485 335.16 278.436 352.288C262.852 331.627 264.471 302.116 283.294 283.294C302.116 264.471 331.627 262.852 352.288 278.436ZM240.224 368.131C223.646 372.929 206.123 375.5 188 375.5C169.877 375.5 152.354 372.929 135.776 368.131C139.361 342.495 161.376 322.766 188 322.766C214.624 322.766 236.639 342.495 240.224 368.131ZM97.5642 352.288C66.5146 335.16 40.84 309.485 23.7117 278.436C44.3731 262.852 73.884 264.471 92.7063 283.294C111.529 302.116 113.148 331.627 97.5642 352.288ZM7.86901 240.224C3.07131 223.646 0.5 206.123 0.5 188C0.5 169.877 3.07131 152.354 7.86901 135.776C33.5049 139.361 53.2344 161.376 53.2344 188C53.2344 214.624 33.5049 236.639 7.86901 240.224ZM23.7117 97.5642C40.84 66.5146 66.5146 40.84 97.5642 23.7117C113.148 44.3731 111.529 73.884 92.7063 92.7063C73.884 111.529 44.3731 113.148 23.7117 97.5642ZM188 105.969C178.292 105.969 170.422 98.0988 170.422 88.3906C170.422 78.6825 178.292 70.8125 188 70.8125C197.708 70.8125 205.578 78.6825 205.578 88.3906C205.578 98.0988 197.708 105.969 188 105.969ZM270.031 188C270.031 178.292 277.901 170.422 287.609 170.422C297.318 170.422 305.188 178.292 305.188 188C305.188 197.708 297.318 205.578 287.609 205.578C277.901 205.578 270.031 197.708 270.031 188ZM246.005 246.005C252.87 239.14 263.999 239.14 270.864 246.005C277.729 252.87 277.729 263.999 270.864 270.864C263.999 277.729 252.87 277.729 246.005 270.864C239.14 263.999 239.14 252.87 246.005 246.005ZM188 270.031C197.708 270.031 205.578 277.901 205.578 287.609C205.578 297.318 197.708 305.188 188 305.188C178.292 305.188 170.422 297.318 170.422 287.609C170.422 277.901 178.292 270.031 188 270.031ZM129.995 246.005C136.86 252.87 136.86 263.999 129.995 270.864C123.13 277.729 112.001 277.729 105.136 270.864C98.2712 263.999 98.2712 252.87 105.136 246.005C112.001 239.14 123.13 239.14 129.995 246.005ZM105.969 188C105.969 197.708 98.0988 205.578 88.3906 205.578C78.6825 205.578 70.8125 197.708 70.8125 188C70.8125 178.292 78.6825 170.422 88.3906 170.422C98.0988 170.422 105.969 178.292 105.969 188ZM129.995 129.995C123.13 136.86 112.001 136.86 105.136 129.995C98.2712 123.13 98.2712 112.001 105.136 105.136C112.001 98.2712 123.13 98.2712 129.995 105.136C136.86 112.001 136.86 123.13 129.995 129.995Z" fill="#9E58BD"/>
<path fill-rule="evenodd" clip-rule="evenodd" d="M296.25 150.5C335.324 150.5 367 118.823 367 79.7495C367 40.6756 335.324 8.99902 296.25 8.99902C257.176 8.99902 225.5 40.6756 225.5 79.7495C225.5 118.823 257.176 150.5 296.25 150.5ZM306.659 85.8951C311.78 86.9683 315.5 91.8228 315.5 97.441V103.904L314.81 104.408C311.1 107.116 303.535 111.5 293.476 111.5C292.942 111.5 292.403 111.487 291.858 111.463C282.994 111.049 276.269 107.399 272.187 104.405L271.5 103.9V97.4376C271.5 91.8194 275.223 86.9649 280.347 85.8917C282.148 85.5183 283.969 85.229 285.797 85.0069C283.278 82.8471 281.654 79.6949 281.654 76.1389V72.7747C281.654 66.2818 286.968 61 293.5 61C300.032 61 305.346 66.2818 305.346 72.7747V76.1389C305.346 79.7016 303.711 82.8606 301.186 85.0238C303.021 85.2424 304.849 85.5183 306.659 85.8951ZM335 47.5H257.5V98.0882H267.118V93.5294H262.059V52.0588H330.441V93.5294H319.5V98.0882H335V47.5Z" fill="#9E58BD"/>
</svg>
