<svg width="64" height="64" viewBox="0 0 64 64" fill="none" xmlns="http://www.w3.org/2000/svg">
<path fill-rule="evenodd" clip-rule="evenodd" d="M32 55C36.5433 55 40.3004 58.3665 40.9127 62.7411C38.0828 63.5613 35.0926 64 32 64C28.9074 64 25.9172 63.5613 23.0884 62.7427C23.6996 58.3665 27.4567 55 32 55ZM15.7365 48.2635C18.9487 51.4756 19.2252 56.5117 16.5661 60.0379C11.2664 57.1152 6.88484 52.7336 3.96169 47.4348C7.48827 44.7748 12.5244 45.0513 15.7365 48.2635ZM60.0379 47.4339L59.9586 47.5784C57.0358 52.8128 52.6856 57.1416 47.4348 60.0383C44.7748 56.5117 45.0513 51.4756 48.2635 48.2635C51.4756 45.0513 56.5117 44.7748 60.0379 47.4339ZM32 46C33.6569 46 35 47.3431 35 49C35 50.6569 33.6569 52 32 52C30.3431 52 29 50.6569 29 49C29 47.3431 30.3431 46 32 46ZM46.1421 41.8995C47.3137 43.0711 47.3137 44.9706 46.1421 46.1421C44.9706 47.3137 43.0711 47.3137 41.8995 46.1421C40.7279 44.9706 40.7279 43.0711 41.8995 41.8995C43.0711 40.7279 44.9706 40.7279 46.1421 41.8995ZM22.1005 41.8995C23.2721 43.0711 23.2721 44.9706 22.1005 46.1421C20.9289 47.3137 19.0294 47.3137 17.8579 46.1421C16.6863 44.9706 16.6863 43.0711 17.8579 41.8995C19.0294 40.7279 20.9289 40.7279 22.1005 41.8995ZM9 32C9 36.5433 5.63346 40.3004 1.25885 40.9127C0.438711 38.0828 0 35.0926 0 32C0 28.9074 0.438711 25.9172 1.25729 23.0884C5.63346 23.6996 9 27.4567 9 32ZM62.7427 23.0884C63.5613 25.9172 64 28.9074 64 32C64 35.0926 63.5613 38.0828 62.7427 40.9116C58.3665 40.3004 55 36.5433 55 32C55 27.4732 58.342 23.727 62.6933 23.0942L62.7427 23.0884ZM49 29C50.6569 29 52 30.3431 52 32C52 33.6569 50.6569 35 49 35C47.3431 35 46 33.6569 46 32C46 30.3431 47.3431 29 49 29ZM15 29C16.6569 29 18 30.3431 18 32C18 33.6569 16.6569 35 15 35C13.3431 35 12 33.6569 12 32C12 30.3431 13.3431 29 15 29ZM46.1421 17.8579C47.3137 19.0294 47.3137 20.9289 46.1421 22.1005C44.9706 23.2721 43.0711 23.2721 41.8995 22.1005C40.7279 20.9289 40.7279 19.0294 41.8995 17.8579C43.0711 16.6863 44.9706 16.6863 46.1421 17.8579ZM22.1005 17.8579C23.2721 19.0294 23.2721 20.9289 22.1005 22.1005C20.9289 23.2721 19.0294 23.2721 17.8579 22.1005C16.6863 20.9289 16.6863 19.0294 17.8579 17.8579C19.0294 16.6863 20.9289 16.6863 22.1005 17.8579ZM47.4348 3.96169C52.7336 6.88484 57.1152 11.2664 60.0383 16.5652C56.5117 19.2252 51.4756 18.9487 48.2635 15.7365C45.0933 12.5664 44.7825 7.6197 47.3311 4.10122L47.4348 3.96169ZM15.7365 15.7365C12.5244 18.9487 7.48827 19.2252 3.96208 16.5661C6.88484 11.2664 11.2664 6.88484 16.5652 3.96169C19.2252 7.48827 18.9487 12.5244 15.7365 15.7365ZM32 12C33.6569 12 35 13.3431 35 15C35 16.6569 33.6569 18 32 18C30.3431 18 29 16.6569 29 15C29 13.3431 30.3431 12 32 12ZM32 0C35.0926 0 38.0828 0.438709 40.9116 1.25729C40.3004 5.63346 36.5433 9 32 9C27.4567 9 23.6996 5.63346 23.0873 1.25885C25.9172 0.438709 28.9074 0 32 0Z" fill="#888888"/>
</svg>
