<svg width="164" height="148" viewBox="0 0 164 148" fill="none" xmlns="http://www.w3.org/2000/svg">
<path fill-rule="evenodd" clip-rule="evenodd" d="M82 55C86.5433 55 90.3004 58.3665 90.9127 62.7411C88.0828 63.5613 85.0926 64 82 64C78.9074 64 75.9172 63.5613 73.0884 62.7427C73.6996 58.3665 77.4567 55 82 55ZM65.7365 48.2635C68.9487 51.4756 69.2252 56.5117 66.5661 60.0379C61.2664 57.1152 56.8848 52.7336 53.9617 47.4348C57.4883 44.7748 62.5244 45.0513 65.7365 48.2635ZM110.038 47.4339L109.959 47.5784C107.036 52.8128 102.686 57.1416 97.4348 60.0383C94.7748 56.5117 95.0513 51.4756 98.2635 48.2635C101.476 45.0513 106.512 44.7748 110.038 47.4339ZM82 46C83.6569 46 85 47.3431 85 49C85 50.6569 83.6569 52 82 52C80.3431 52 79 50.6569 79 49C79 47.3431 80.3431 46 82 46ZM96.1421 41.8995C97.3137 43.0711 97.3137 44.9706 96.1421 46.1421C94.9706 47.3137 93.0711 47.3137 91.8995 46.1421C90.7279 44.9706 90.7279 43.0711 91.8995 41.8995C93.0711 40.7279 94.9706 40.7279 96.1421 41.8995ZM72.1005 41.8995C73.2721 43.0711 73.2721 44.9706 72.1005 46.1421C70.9289 47.3137 69.0294 47.3137 67.8579 46.1421C66.6863 44.9706 66.6863 43.0711 67.8579 41.8995C69.0294 40.7279 70.9289 40.7279 72.1005 41.8995ZM59 32C59 36.5433 55.6335 40.3004 51.2589 40.9127C50.4387 38.0828 50 35.0926 50 32C50 28.9074 50.4387 25.9172 51.2573 23.0884C55.6335 23.6996 59 27.4567 59 32ZM112.743 23.0884C113.561 25.9172 114 28.9074 114 32C114 35.0926 113.561 38.0828 112.743 40.9116C108.367 40.3004 105 36.5433 105 32C105 27.4732 108.342 23.727 112.693 23.0942L112.743 23.0884ZM99 29C100.657 29 102 30.3431 102 32C102 33.6569 100.657 35 99 35C97.3431 35 96 33.6569 96 32C96 30.3431 97.3431 29 99 29ZM65 29C66.6569 29 68 30.3431 68 32C68 33.6569 66.6569 35 65 35C63.3431 35 62 33.6569 62 32C62 30.3431 63.3431 29 65 29ZM96.1421 17.8579C97.3137 19.0294 97.3137 20.9289 96.1421 22.1005C94.9706 23.2721 93.0711 23.2721 91.8995 22.1005C90.7279 20.9289 90.7279 19.0294 91.8995 17.8579C93.0711 16.6863 94.9706 16.6863 96.1421 17.8579ZM72.1005 17.8579C73.2721 19.0294 73.2721 20.9289 72.1005 22.1005C70.9289 23.2721 69.0294 23.2721 67.8579 22.1005C66.6863 20.9289 66.6863 19.0294 67.8579 17.8579C69.0294 16.6863 70.9289 16.6863 72.1005 17.8579ZM97.4348 3.96169C102.734 6.88484 107.115 11.2664 110.038 16.5652C106.512 19.2252 101.476 18.9487 98.2635 15.7365C95.0933 12.5664 94.7825 7.6197 97.3311 4.10122L97.4348 3.96169ZM65.7365 15.7365C62.5244 18.9487 57.4883 19.2252 53.9621 16.5661C56.8848 11.2664 61.2664 6.88484 66.5652 3.96169C69.2252 7.48827 68.9487 12.5244 65.7365 15.7365ZM82 12C83.6569 12 85 13.3431 85 15C85 16.6569 83.6569 18 82 18C80.3431 18 79 16.6569 79 15C79 13.3431 80.3431 12 82 12ZM82 0C85.0926 0 88.0828 0.438709 90.9116 1.25729C90.3004 5.63346 86.5433 9 82 9C77.4567 9 73.6996 5.63346 73.0873 1.25885C75.9172 0.438709 78.9074 0 82 0Z" fill="#008EE2"/>
<path d="M20 119C20 125.003 15.9217 128 9.98369 128H9.85318C3.91517 128 0 125.847 0 119.713V96.2871C0 90.4796 3.91517 88 9.85318 88H9.98369C15.9217 88 20 90.6925 20 96.5V101H14V97C14 94.2594 12.0065 93.677 9.98369 93.677C7.96085 93.677 6 94.2594 6 97V119C6 121.741 7.96085 122.258 9.98369 122.258C12.0065 122.258 14 121.741 14 119V114H20V119Z" fill="#C7CDD1"/>
<path d="M43 118H35L34 127H27.5L34.9045 88H43L50.5 127H44L43 118ZM42 113L39 96L36.1415 113.002L42 113Z" fill="#C7CDD1"/>
<path d="M129 118H121L120 127H113.5L120.904 88H129L136.5 127H130L129 118ZM128 113L125 96L122.142 113.002L128 113Z" fill="#C7CDD1"/>
<path d="M59 127V88H65.349L74 112V88H80V127H73.5L65 102V127H59Z" fill="#C7CDD1"/>
<path d="M102 127H96L88 88H95L99 117L103 88H109L102 127Z" fill="#C7CDD1"/>
<path d="M157 97C157 94.5123 155.588 93.5646 153.689 93.5646C151.791 93.5646 150 94.0777 150 96.5V99.5C150 101.529 151.07 102.468 152.903 103.581L157.486 106.134C161.218 108.295 164 110.81 164 115V119C164 125.023 159.957 128 154 128C148.043 128 144 126.088 144 120V116H150V119C150 121.422 151.536 122.5 153.5 122.5C155.464 122.5 157.093 121.388 157.093 118.966V115.889C157.093 113.859 156.504 112.877 154.54 111.83L150.023 109.277C146.226 107.116 144 105.059 144 101V96C144 90.1735 148.632 88 154 88C159.368 88 163 90.1735 163 96V100H157V97Z" fill="#C7CDD1"/>
<path d="M59.62 142.12C59.62 142.616 59.528 143.034 59.344 143.374C59.16 143.714 58.912 143.988 58.6 144.196C58.288 144.404 57.928 144.556 57.52 144.652C57.112 144.748 56.688 144.796 56.248 144.796H55.228V148H53.176V139.504H56.296C56.76 139.504 57.194 139.55 57.598 139.642C58.002 139.734 58.354 139.882 58.654 140.086C58.954 140.29 59.19 140.558 59.362 140.89C59.534 141.222 59.62 141.632 59.62 142.12ZM57.568 142.132C57.568 141.932 57.528 141.768 57.448 141.64C57.368 141.512 57.26 141.412 57.124 141.34C56.988 141.268 56.834 141.22 56.662 141.196C56.49 141.172 56.312 141.16 56.128 141.16H55.228V143.164H56.092C56.284 143.164 56.468 143.148 56.644 143.116C56.82 143.084 56.978 143.028 57.118 142.948C57.258 142.868 57.368 142.762 57.448 142.63C57.528 142.498 57.568 142.332 57.568 142.132ZM67.896 148L67.236 146.332H63.948L63.324 148H61.092L64.656 139.504H66.648L70.176 148H67.896ZM65.616 141.772L64.536 144.688H66.672L65.616 141.772ZM77.432 148L75.596 144.628H74.9V148H72.884V139.504H76.124C76.532 139.504 76.93 139.546 77.318 139.63C77.706 139.714 78.054 139.856 78.362 140.056C78.67 140.256 78.916 140.52 79.1 140.848C79.284 141.176 79.376 141.584 79.376 142.072C79.376 142.648 79.22 143.132 78.908 143.524C78.596 143.916 78.164 144.196 77.612 144.364L79.832 148H77.432ZM77.348 142.108C77.348 141.908 77.306 141.746 77.222 141.622C77.138 141.498 77.03 141.402 76.898 141.334C76.766 141.266 76.618 141.22 76.454 141.196C76.29 141.172 76.132 141.16 75.98 141.16H74.888V143.14H75.86C76.028 143.14 76.2 143.126 76.376 143.098C76.552 143.07 76.712 143.02 76.856 142.948C77 142.876 77.118 142.772 77.21 142.636C77.302 142.5 77.348 142.324 77.348 142.108ZM82.84 148V139.504H88.552V141.244H84.82V142.84H88.348V144.484H84.82V146.248H88.768V148H82.84ZM97.524 148L94.104 142.444H94.068L94.116 148H92.124V139.504H94.464L97.872 145.048H97.908L97.86 139.504H99.852V148H97.524ZM107.24 141.256V148H105.188V141.256H102.788V139.504H109.64V141.256H107.24Z" fill="#008EE2"/>
</svg>
