<svg width="164" height="40" viewBox="0 0 164 40" fill="none" xmlns="http://www.w3.org/2000/svg">
<path d="M20 31C20 37.0033 15.9217 40 9.98369 40H9.85318C3.91517 40 0 37.8467 0 31.7129V8.28711C0 2.47961 3.91517 0 9.85318 0H9.98369C15.9217 0 20 2.6925 20 8.5V13H14V9C14 6.25938 12.0065 5.677 9.98369 5.677C7.96085 5.677 6 6.25938 6 9V31C6 33.7406 7.96085 34.2577 9.98369 34.2577C12.0065 34.2577 14 33.7406 14 31V26H20V31Z" fill="#C7CDD1"/>
<path d="M43 30H35L34 39H27.5L34.9045 0H43L50.5 39H44L43 30ZM42 25L39 8L36.1415 25.0017L42 25Z" fill="#C7CDD1"/>
<path d="M129 30H121L120 39H113.5L120.904 0H129L136.5 39H130L129 30ZM128 25L125 8L122.142 25.0017L128 25Z" fill="#C7CDD1"/>
<path d="M59 39V0H65.349L74 24V0H80V39H73.5L65 14V39H59Z" fill="#C7CDD1"/>
<path d="M102 39H96L88 0H95L99 29L103 0H109L102 39Z" fill="#C7CDD1"/>
<path d="M157 9C157 6.51227 155.588 5.56465 153.689 5.56465C151.791 5.56465 150 6.07774 150 8.5V11.5C150 13.5295 151.07 14.4681 152.903 15.581L157.486 18.1342C161.218 20.2946 164 22.8101 164 27V31C164 37.0229 159.957 40 154 40C148.043 40 144 38.0884 144 32V28H150V31C150 33.4223 151.536 34.5 153.5 34.5C155.464 34.5 157.093 33.3879 157.093 30.9656V27.8887C157.093 25.8592 156.504 24.8772 154.54 23.8298L150.023 21.2766C146.226 19.1162 144 17.0589 144 13V8C144 2.17349 148.632 0 154 0C159.368 0 163 2.17349 163 8V12H157V9Z" fill="#C7CDD1"/>
</svg>
