<svg fill="none" height="24" viewBox="0 0 24 24" width="24" xmlns="http://www.w3.org/2000/svg">
    <path clip-rule="evenodd" d="M3.66669 6.11113H14.778C15.0846 6.11113 15.3335 6.36113 15.3335 6.66669V8.33338H3.11113V6.66669C3.11113 6.36113 3.36002 6.11113 3.66669 6.11113ZM15.3335 17.778V15.5557H16.4446V17.778C16.4446 18.6969 15.6969 19.4446 14.778 19.4446H3.66669C2.74779 19.4446 2 18.6969 2 17.778V6.66669C2 5.74779 2.74779 5 3.66669 5H14.778C15.6969 5 16.4446 5.74779 16.4446 6.66669V11.1112H15.3335V9.44451H3.11113V17.778C3.11113 18.0835 3.36002 18.3335 3.66669 18.3335H14.778C15.0846 18.3335 15.3335 18.0835 15.3335 17.778ZM21.8375 12.9407C22.0542 13.1573 22.0542 13.5096 21.8375 13.7262L18.5041 17.0596L17.7186 16.274L20.103 13.8896H11.444V12.7784H20.103L17.7186 10.3929L18.5041 9.60729L21.8375 12.9407Z"
        fill="#8B969E"
        fill-rule="evenodd" />
</svg>
