<svg width="20" height="18" viewBox="0 0 20 18" fill="none" xmlns="http://www.w3.org/2000/svg">
<path fill-rule="evenodd" clip-rule="evenodd" d="M19.8775 8.92288L20 9.16907L19.8786 9.41525C17.9223 13.3498 14.138 15.7939 10.0003 15.7939C8.84007 15.7939 7.7063 15.6007 6.62663 15.221L6.99314 14.1799C7.95359 14.5178 8.96592 14.69 10.0003 14.69C13.6302 14.69 16.963 12.5814 18.7625 9.17127C18.0361 7.79795 17.0491 6.60457 15.8988 5.70815L16.5777 4.83713C17.9246 5.8881 19.0672 7.30117 19.8775 8.92288ZM4.10231 12.6314C2.95088 11.735 1.96394 10.5405 1.23644 9.16829C3.03699 5.75706 6.37095 3.6496 9.99967 3.6496C11.0352 3.6496 12.0464 3.82182 13.0256 4.16625C13.3127 4.25678 13.6019 4.37159 13.89 4.49965L11.9139 6.47573C11.3708 6.09045 10.7139 5.85752 9.99967 5.85752C8.17372 5.85752 6.68779 7.34345 6.68779 9.1694C6.68779 9.88366 6.92072 10.5405 7.30601 11.0837L5.09036 13.2982C4.77021 13.105 4.44233 12.8886 4.10231 12.6314ZM12.2076 9.1694C12.2076 10.3871 11.2173 11.3773 9.99967 11.3773C9.59231 11.3773 9.21365 11.2592 8.88577 11.0649L11.8952 8.0544C12.0895 8.38338 12.2076 8.76093 12.2076 9.1694ZM7.79175 9.1694C7.79175 7.95283 8.782 6.96148 9.99967 6.96148C10.4081 6.96148 10.7857 7.08071 11.1147 7.2739L8.10417 10.2844C7.91098 9.95542 7.79175 9.57786 7.79175 9.1694ZM9.99967 12.4813C11.8267 12.4813 13.3115 10.9965 13.3115 9.1694C13.3115 8.45624 13.0786 7.79828 12.6944 7.25623L18.6702 1.2805L17.8897 0.5L14.7136 3.67609C14.2654 3.45309 13.8139 3.25659 13.3734 3.11859C12.2948 2.73883 11.1599 2.54564 9.99967 2.54564C5.86203 2.54564 2.07655 4.98981 0.12254 8.92432L0 9.1705L0.12254 9.41668C0.932846 11.0384 2.07544 12.4515 3.43 13.5069C3.72586 13.731 4.00958 13.9253 4.28668 14.103L1.33027 17.0594L2.11077 17.8399L8.08651 11.8642C8.62855 12.2483 9.28541 12.4813 9.99967 12.4813Z" fill="#8B969E"/>
</svg>
