<svg width="24" height="25" viewBox="0 0 24 25" fill="none" xmlns="http://www.w3.org/2000/svg">
<path fill-rule="evenodd" clip-rule="evenodd" d="M19.4706 18.3702C18.0824 19.3596 15.4188 20.8255 11.8235 20.8255C10.2306 20.8255 7.15294 20.502 4.17647 18.3702V16.7549C4.17647 15.7996 4.79882 14.9667 5.72588 14.6831C7.74235 14.0643 9.82824 13.7749 11.9282 13.7678C13.96 13.7772 15.9788 14.0855 17.9271 14.6843C18.8506 14.9678 19.4706 15.7996 19.4706 16.7549V18.3702ZM11.7412 3.17842H11.9059C13.8259 3.17842 15.4612 4.53136 15.8506 6.3796C15.5176 6.57254 15.1729 6.70784 14.5765 6.70784C13.8094 6.70784 13.4612 6.48784 13.0188 6.21019C12.5153 5.89254 11.9459 5.53136 10.8471 5.53136C9.74 5.53136 9.16706 5.89372 8.66118 6.21254C8.36588 6.39842 8.11176 6.55842 7.74588 6.64431C8.02471 4.68784 9.71059 3.17842 11.7412 3.17842ZM18.2718 13.5596C17.1647 13.2196 16.0341 12.9761 14.8918 12.8137C16.2341 11.8702 17.1176 10.3161 17.1176 8.55489H15.9412C15.9412 10.7808 14.1306 12.5902 11.9059 12.5902H11.7412C9.51647 12.5902 7.70588 10.7808 7.70588 8.55489V7.84666C8.43647 7.74548 8.88471 7.46313 9.28941 7.20666C9.73176 6.92784 10.0812 6.70784 10.8471 6.70784C11.6047 6.70784 11.9518 6.92666 12.3906 7.20431C12.8965 7.52313 13.4694 7.88431 14.5765 7.88431C15.6835 7.88431 16.2588 7.5196 16.8094 7.17019L17.1212 6.97254L17.0788 6.60431C16.7694 3.98078 14.5447 2.00195 11.9059 2.00195H11.7412C8.86706 2.00195 6.52941 4.34078 6.52941 7.29607V8.55489C6.52941 10.3196 7.41529 11.8749 8.76 12.8184C7.61882 12.9772 6.48824 13.2184 5.38 13.5584C3.95647 13.9949 3 15.2808 3 16.7549V18.9631L3.23529 19.1396C6.55647 21.6302 10.0412 22.002 11.8235 22.002C15.9741 22.002 18.9859 20.2078 20.4118 19.1396L20.6471 18.9631V16.7549C20.6471 15.2796 19.6918 13.9961 18.2718 13.5596Z" fill="#394B58"/>
</svg>
