<svg width="24" height="25" viewBox="0 0 24 25" fill="none" xmlns="http://www.w3.org/2000/svg">
<path fill-rule="evenodd" clip-rule="evenodd" d="M12 20.8255C7.13412 20.8255 3.17647 16.8678 3.17647 12.002C3.17647 7.13607 7.13412 3.17842 12 3.17842C16.8659 3.17842 20.8235 7.13607 20.8235 12.002C20.8235 16.8678 16.8659 20.8255 12 20.8255ZM12 2.00195C6.48588 2.00195 2 6.48784 2 12.002C2 17.5161 6.48588 22.002 12 22.002C17.5141 22.002 22 17.5161 22 12.002C22 6.48784 17.5141 2.00195 12 2.00195ZM12.9306 5.65148C14.1271 5.96089 15.1 6.93384 15.4094 8.13031C15.6529 9.07266 15.5212 10.0397 15.04 10.8538C14.5659 11.6562 13.7776 12.2491 12.8776 12.4797C12.7341 12.5162 12.5882 12.6338 12.5882 12.8115V13.7668H11.4118V12.8115C11.4118 12.1232 11.8941 11.5185 12.5859 11.3397C13.1859 11.1868 13.7106 10.7915 14.0271 10.2562C14.3482 9.71148 14.4353 9.06089 14.2706 8.42442C14.0659 7.63619 13.4247 6.99501 12.6365 6.79031C11.8976 6.60089 11.1412 6.74913 10.56 7.19972C9.98 7.64913 9.64706 8.32795 9.64706 9.06089H8.47059C8.47059 7.96089 8.96941 6.94325 9.84 6.26913C10.7118 5.59501 11.8365 5.36913 12.9306 5.65148ZM12.0006 16.1196C12.0006 16.1196 12.0006 16.1196 12.0006 16.1184L12.5888 16.1196H12.0006ZM12.0006 14.9431C11.3512 14.9431 10.8241 15.4714 10.8241 16.1196C10.8241 16.7678 11.3512 17.2961 12.0006 17.2961C12.6488 17.2961 13.1771 16.7678 13.1771 16.1196C13.1771 15.4714 12.6488 14.9431 12.0006 14.9431Z" fill="#394B58"/>
</svg>
