<!--
  - Copyright (C) 2023 - present Instructure, Inc.
  -
  -     Licensed under the Apache License, Version 2.0 (the "License");
  -     you may not use this file except in compliance with the License.
  -     You may obtain a copy of the License at
  -
  -     http://www.apache.org/licenses/LICENSE-2.0
  -
  -     Unless required by applicable law or agreed to in writing, software
  -     distributed under the License is distributed on an "AS IS" BASIS,
  -     WITHOUT WARRANTIES OR CONDITIONS OF ANY KIND, either express or implied.
  -     See the License for the specific language governing permissions and
  -     limitations under the License.
  -
  -->

<svg width="124" height="18" viewBox="0 0 124 18" fill="none" xmlns="http://www.w3.org/2000/svg">
<path d="M23.45 15.2516V2.19531H25.6221V15.2516H23.45Z" fill="#2A7BA0"/>
<path d="M29.4292 15.2516V2.19531H31.6014L34.3341 10.2767V2.19531H36.3194V15.2516H34.264L31.4145 6.74983V15.2516H29.4292Z" fill="#2A7BA0"/>
<path d="M55.4251 4.08809H53.2529V15.2525H51.0808V4.08809H48.8853V2.17285H55.4251V4.08809Z" fill="#2A7BA0"/>
<path d="M63.3197 15.2516L61.6614 10.0431H60.587V15.2516H58.4148V2.19531H61.8015C63.7868 2.19531 65.0948 2.98942 65.0948 4.95138V7.28704C65.0948 8.5483 64.5809 9.31907 63.67 9.71613L65.5385 15.2516H63.3197ZM60.587 8.17458H61.7314C62.4321 8.17458 62.9226 7.91767 62.9226 6.9834V5.27837C62.9226 4.3441 62.4321 4.0872 61.7314 4.0872H60.587V8.17458Z" fill="#2A7BA0"/>
<path d="M75.1848 12.6366C75.1848 14.6453 73.9235 15.3927 71.9382 15.3927H71.8681C69.8828 15.3927 68.6216 14.6686 68.6216 12.6366V2.17285H70.7937V12.2862C70.7937 13.2205 71.2142 13.4774 71.9149 13.4774C72.6156 13.4774 73.036 13.2205 73.036 12.2862V2.17285H75.2081V12.6366H75.1848Z" fill="#2A7BA0"/>
<path d="M85.415 12.6361C85.415 14.6448 84.107 15.3922 82.1217 15.3922H82.075C80.0897 15.3922 78.7817 14.6681 78.7817 12.6361V4.78829C78.7817 2.8497 80.0897 2.03223 82.075 2.03223H82.1217C84.107 2.03223 85.415 2.8497 85.415 4.78829V6.30646H83.2428V5.13864C83.2428 4.22773 82.7991 3.94747 82.0984 3.94747C81.3977 3.94747 80.9539 4.22773 80.9539 5.13864V12.3091C80.9539 13.22 81.3977 13.5003 82.0984 13.5003C82.7991 13.5003 83.2428 13.22 83.2428 12.3091V10.8143H85.415V12.6361Z" fill="#2A7BA0"/>
<path d="M94.7109 4.08809H92.5154V15.2525H90.3432V4.08809H88.1477V2.17285H94.6875V4.08809H94.7109Z" fill="#2A7BA0"/>
<path d="M104.217 12.6366C104.217 14.6453 102.956 15.3927 100.97 15.3927H100.9C98.9151 15.3927 97.6538 14.6686 97.6538 12.6366V2.17285H99.826V12.2862C99.826 13.2205 100.246 13.4774 100.947 13.4774C101.648 13.4774 102.068 13.2205 102.068 12.2862V2.17285H104.24V12.6366H104.217Z" fill="#2A7BA0"/>
<path d="M112.836 15.2516L111.177 10.0431H110.103V15.2516H107.931V2.19531H111.317C113.303 2.19531 114.611 2.98942 114.611 4.95138V7.28704C114.611 8.5483 114.097 9.31907 113.186 9.71613L115.054 15.2516H112.836ZM110.079 8.17458H111.224C111.925 8.17458 112.415 7.91767 112.415 6.9834V5.27837C112.415 4.3441 111.925 4.0872 111.224 4.0872H110.079V8.17458Z" fill="#2A7BA0"/>
<path d="M44.1205 5.97949V5.02186C44.1205 4.20438 43.6534 3.90075 43.0228 3.90075C42.3921 3.90075 41.925 4.20438 41.925 5.02186V5.90942C41.925 6.58676 42.1586 6.89039 42.7658 7.24074L44.3074 8.10492C45.5686 8.80562 46.316 9.38954 46.316 10.7909V12.6828C46.316 14.6915 45.0548 15.4155 43.0928 15.4155H43.0461C41.0608 15.4155 39.8229 14.7148 39.8229 12.6828V11.2814H41.9484V12.3792C41.9484 13.1733 42.4155 13.547 43.0695 13.547C43.7235 13.547 44.1906 13.1967 44.1906 12.3792V11.3515C44.1906 10.6742 43.9804 10.3471 43.3264 9.9968L41.8082 9.13262C40.547 8.40857 39.7996 7.80129 39.7996 6.4466V4.71825C39.7996 2.77964 41.2243 2.03223 42.9994 2.03223H43.0461C44.8446 2.03223 46.246 2.77964 46.246 4.71825V5.97949H44.1205Z" fill="#2A7BA0"/>
<path d="M123.369 7.66164V9.57688H120.38V13.3373H124V15.2292H118.208V2.17285H123.93V4.08809H120.38V7.66164H123.369Z" fill="#2A7BA0"/>
<path d="M15.6022 13.1733L7.80109 17.5643L0 13.1733L7.80109 8.78223L15.6022 13.1733Z" fill="#2A7BA0"/>
<path d="M3.90055 6.58634L7.80109 4.39083L3.90055 2.19531L0 4.39083L3.90055 6.58634Z" fill="#FBCC15"/>
<path d="M7.80106 4.39104L11.7016 2.19552L7.80106 0L3.90051 2.19552L7.80106 4.39104Z" fill="#F78F21"/>
<path d="M11.7016 6.58634L15.6021 4.39083L11.7016 2.19531L7.80103 4.39083L11.7016 6.58634Z" fill="#E9262A"/>
</svg>
