<svg width="24" height="25" viewBox="0 0 24 25" fill="none" xmlns="http://www.w3.org/2000/svg">
<path fill-rule="evenodd" clip-rule="evenodd" d="M15.0558 18.337C15.3931 18.337 15.6669 18.0682 15.6669 17.7397V15.649H16.8891V17.7397C16.8891 18.7276 16.0665 19.5316 15.0558 19.5316H2.83336C1.82257 19.5316 1 18.7276 1 17.7397V5.79383C1 4.80591 1.82257 4.00195 2.83336 4.00195H15.0558C16.0665 4.00195 16.8891 4.80591 16.8891 5.79383V7.88431H15.6669V5.79607C15.6669 5.51993 15.443 5.29607 15.1669 5.29607H2.72224C2.4461 5.29607 2.22224 5.51993 2.22224 5.79607V17.7397C2.22224 18.0682 2.49602 18.337 2.83336 18.337H15.0558ZM18.4706 8.53136L19.3118 7.69016L23 11.7667L19.3118 15.8432L18.4706 15.002L20.8388 12.4137H11.3529V11.1196H20.8388L18.4706 8.53136Z" fill="#394B58"/>
</svg>
