<svg width="24" height="24" viewBox="0 0 24 24" fill="none" xmlns="http://www.w3.org/2000/svg">
<path fill-rule="evenodd" clip-rule="evenodd" d="M19.9067 11.0734C21.1583 11.4584 22 12.5917 22 13.8917V15.8217L21.7642 15.9984C20.9967 16.5742 19.4267 17.5701 17.2942 18.0959V19.3509L17.0583 19.5276C15.8275 20.4509 13.2275 21.9976 9.64667 21.9976C8.10917 21.9976 5.10167 21.6767 2.235 19.5276L2 19.3509V17.4159C2 16.1142 2.84417 14.9801 4.10083 14.5951C5.0525 14.3042 6.0275 14.0959 7.01167 13.9592C6.11333 13.2026 5.52917 12.0851 5.52917 10.8217V9.64506C5.52917 7.37423 7.37667 5.52673 9.64667 5.52673C9.8675 5.52673 10.0792 5.5584 10.29 5.59173C10.5292 3.98006 11.5492 2.6984 12.9783 2.2234C14.5067 1.7159 16.1492 2.0909 17.2633 3.20506C18.0417 3.98423 18.47 5.01673 18.47 6.11506V7.13923C18.47 8.4434 17.895 9.6384 16.99 10.4284C17.9842 10.5684 18.955 10.7801 19.9067 11.0734ZM20.8233 15.2276V13.8917C20.8233 13.1109 20.3158 12.4301 19.5608 12.1967C17.895 11.6842 16.1725 11.4192 14.4433 11.4101C14.17 11.4101 13.9308 11.4142 13.7042 11.4226C13.5533 12.4359 13.0358 13.3226 12.2858 13.9551C13.27 14.0942 14.2442 14.3051 15.1983 14.5976C16.275 14.9276 17.0442 15.8109 17.2408 16.8784C18.8542 16.4417 20.105 15.7317 20.8233 15.2276ZM16.1175 18.7567V17.4159C16.1175 16.6342 15.61 15.9534 14.8533 15.7217C13.1925 15.2109 11.4708 14.9484 9.735 14.9384H9.65167C7.88417 14.9384 6.13333 15.2026 4.44583 15.7201C3.68667 15.9534 3.17583 16.6342 3.17583 17.4159V18.7576C5.69833 20.5484 8.2975 20.8217 9.64667 20.8217C12.6733 20.8217 14.9258 19.5992 16.1175 18.7567ZM6.70583 10.8217C6.70583 12.4434 8.025 13.7626 9.64667 13.7626C11.2683 13.7626 12.5883 12.4434 12.5883 10.8217V9.64506C12.5883 8.02256 11.2683 6.7034 9.64667 6.7034C8.025 6.7034 6.70583 8.02256 6.70583 9.64506V10.8217ZM13.3492 3.3409C12.2875 3.69256 11.5333 4.74506 11.4317 5.9509C12.8067 6.61923 13.7642 8.01673 13.7642 9.64506V10.1384C14.1833 10.2301 14.6317 10.2534 15.0867 10.1467C16.365 9.84506 17.2942 8.57923 17.2942 7.13923V6.11506C17.2942 5.33173 16.9875 4.5934 16.4308 4.03673C15.6233 3.23006 14.4708 2.96756 13.3492 3.3409Z" fill="#394B58"/>
</svg>
