<svg width="24" height="24" viewBox="0 0 24 24" fill="none" xmlns="http://www.w3.org/2000/svg">
<path fill-rule="evenodd" clip-rule="evenodd" d="M19.5592 12.001C19.5592 12.436 19.5183 12.8826 19.4375 13.3285L21.6267 15.2243L19.5492 18.7751L16.7867 17.8535C16.0842 18.4401 15.3025 18.8876 14.455 19.1918L13.885 22.001H9.7425L9.1725 19.191C8.33167 18.8868 7.53583 18.4301 6.84 17.8518L4.07917 18.7735L2 15.2243L4.18917 13.3268C4.11 12.881 4.06917 12.4368 4.06917 12.001C4.06917 11.5651 4.11 11.121 4.18917 10.6751L2 8.77764L4.07917 5.22848L6.84 6.14848C7.54333 5.56181 8.32583 5.11431 9.1725 4.81014L9.7425 2.00098H13.885L14.455 4.81098C15.3042 5.11514 16.0858 5.56431 16.7875 6.14931L19.5492 5.22848L21.6267 8.77764L19.4383 10.6751C19.5183 11.121 19.5592 11.5651 19.5592 12.001ZM20.1183 15.4726L18.1417 13.761L18.2192 13.4176C18.3275 12.9393 18.3825 12.4635 18.3825 12.001C18.3825 11.5376 18.3275 11.0626 18.2192 10.586L18.1417 10.2426L20.1183 8.52931L19.0158 6.64598L16.5142 7.48098L16.2592 7.24931C15.5317 6.58764 14.6958 6.10848 13.7733 5.82348L13.4383 5.72098L12.9233 3.17764H10.7042L10.1892 5.72014L9.855 5.82264C8.93417 6.10598 8.0975 6.58514 7.3675 7.24848L7.11333 7.47848L4.6125 6.64598L3.51 8.52931L5.48583 10.2426L5.40833 10.586C5.3 11.0626 5.245 11.5376 5.245 12.001C5.245 12.4643 5.3 12.9393 5.40833 13.416L5.48583 13.7593L3.51 15.4726L4.6125 17.356L7.11333 16.521L7.36833 16.7526C8.08583 17.4051 8.945 17.8985 9.855 18.1785L10.1892 18.281L10.7042 20.8243H12.9233L13.4383 18.2818L13.7733 18.1793C14.6933 17.896 15.53 17.4168 16.26 16.7535L16.5142 16.5218L19.0158 17.3576L20.1183 15.4726ZM11.8139 7.88289C14.0848 7.88289 15.9314 9.73039 15.9314 12.0012C15.9314 14.2712 14.0848 16.1187 11.8139 16.1187C9.54392 16.1187 7.69642 14.2712 7.69642 12.0012C7.69642 9.73039 9.54392 7.88289 11.8139 7.88289ZM11.8139 14.9421C13.4356 14.9421 14.7556 13.6229 14.7556 12.0012C14.7556 10.3787 13.4356 9.05956 11.8139 9.05956C10.1923 9.05956 8.87308 10.3787 8.87308 12.0012C8.87308 13.6229 10.1923 14.9421 11.8139 14.9421Z" fill="#394B58"/>
</svg>
