<?xml version="1.0" encoding="UTF-8"?>
<svg width="84px" height="103px" viewBox="0 0 84 103" version="1.1" xmlns="http://www.w3.org/2000/svg" xmlns:xlink="http://www.w3.org/1999/xlink">
    <!-- Generator: Sketch 48.2 (47327) - http://www.bohemiancoding.com/sketch -->
    <title>white-panda</title>
    <desc>Created with Sketch.</desc>
    <defs></defs>
    <g id="Act-As-User-Masquerade" stroke="none" stroke-width="1" fill="none" fill-rule="evenodd" transform="translate(-138.000000, -112.000000)">
        <g id="white-panda" transform="translate(138.000000, 112.000000)">
            <path d="M82.7667333,101.663133 C82.2707333,79.6004667 64.2434,61.8651333 42.0614,61.8651333 C19.8800667,61.8651333 1.8534,79.6004667 1.3574,101.663133 L82.7667333,101.663133 Z" id="Fill-1" fill="#FFFFFF"></path>
            <path d="M66.0382,101.663133 C65.5488667,88.8404667 55.0042,78.5938 42.0615333,78.5938 C29.1188667,78.5938 18.5748667,88.8404667 18.0848667,101.663133 L66.0382,101.663133 Z" id="Fill-41" fill="#3F5463"></path>
            <path d="M83.4332316,101.64815 L83.4485561,102.3298 L0.675577272,102.3298 L0.690901741,101.64815 C1.19591513,79.1845567 19.556316,61.1984667 42.0614,61.1984667 C64.5671707,61.1984667 82.9282187,79.1845782 83.4332316,101.64815 Z M42.0614,62.5318 C20.5096944,62.5318 2.88529362,79.5757678 2.04492685,100.996467 L82.0792063,100.996467 C81.2388265,79.5757981 63.6137947,62.5318 42.0614,62.5318 Z" id="Stroke-3" fill="#32434F" fill-rule="nonzero"></path>
            <path d="M82.7901333,14.7282667 C82.7901333,22.4942667 76.4948,28.7902667 68.7281333,28.7902667 C60.9621333,28.7902667 54.6661333,22.4942667 54.6661333,14.7282667 C54.6661333,6.96293333 60.9621333,0.666933333 68.7281333,0.666933333 C76.4948,0.666933333 82.7901333,6.96293333 82.7901333,14.7282667" id="Fill-5" fill="#3F5463"></path>
            <path d="M83.4568,14.7282667 C83.4568,22.8626819 76.8627645,29.4569333 68.7281333,29.4569333 C60.5939435,29.4569333 53.9994667,22.8624565 53.9994667,14.7282667 C53.9994667,6.59463552 60.5940515,0.000266666667 68.7281333,0.000266666667 C76.8626565,0.000266666667 83.4568,6.59441017 83.4568,14.7282667 Z M82.1234667,14.7282667 C82.1234667,7.33078983 76.1262768,1.3336 68.7281333,1.3336 C61.3304214,1.3336 55.3328,7.33102497 55.3328,14.7282667 C55.3328,22.1260768 61.3303232,28.1236 68.7281333,28.1236 C76.126375,28.1236 82.1234667,22.126312 82.1234667,14.7282667 Z" id="Stroke-7" fill="#32434F" fill-rule="nonzero"></path>
            <path d="M76.7283333,14.7282667 C76.7283333,19.1469333 73.147,22.7282667 68.7283333,22.7282667 C64.3103333,22.7282667 60.7283333,19.1469333 60.7283333,14.7282667 C60.7283333,10.3102667 64.3103333,6.72826667 68.7283333,6.72826667 C73.147,6.72826667 76.7283333,10.3102667 76.7283333,14.7282667" id="Fill-9" fill="#32434F"></path>
            <path d="M29.4568,14.7282667 C29.4568,22.4942667 23.1614667,28.7902667 15.3948,28.7902667 C7.6288,28.7902667 1.3328,22.4942667 1.3328,14.7282667 C1.3328,6.96293333 7.6288,0.666933333 15.3948,0.666933333 C23.1614667,0.666933333 29.4568,6.96293333 29.4568,14.7282667" id="Fill-11" fill="#3F5463"></path>
            <path d="M30.1234667,14.7282667 C30.1234667,22.8626819 23.5294311,29.4569333 15.3948,29.4569333 C7.26061017,29.4569333 0.666133333,22.8624565 0.666133333,14.7282667 C0.666133333,6.59463552 7.26071815,0.000266666667 15.3948,0.000266666667 C23.5293232,0.000266666667 30.1234667,6.59441017 30.1234667,14.7282667 Z M28.7901333,14.7282667 C28.7901333,7.33078983 22.7929435,1.3336 15.3948,1.3336 C7.99708804,1.3336 1.99946667,7.33102497 1.99946667,14.7282667 C1.99946667,22.1260768 7.99698983,28.1236 15.3948,28.1236 C22.7930417,28.1236 28.7901333,22.126312 28.7901333,14.7282667 Z" id="Stroke-13" fill="#32434F" fill-rule="nonzero"></path>
            <path d="M23.395,14.7282667 C23.395,19.1469333 19.8136667,22.7282667 15.395,22.7282667 C10.977,22.7282667 7.395,19.1469333 7.395,14.7282667 C7.395,10.3102667 10.977,6.72826667 15.395,6.72826667 C19.8136667,6.72826667 23.395,10.3102667 23.395,14.7282667" id="Fill-15" fill="#32434F"></path>
            <path d="M77.6898667,43.113 C77.6898667,62.7903333 61.7385333,78.741 42.0618667,78.741 C22.3845333,78.741 6.4332,62.7903333 6.4332,43.113 C6.4332,23.4356667 22.3845333,7.485 42.0618667,7.485 C61.7385333,7.485 77.6898667,23.4356667 77.6898667,43.113" id="Fill-17" fill="#FFFFFF"></path>
            <path d="M78.3565333,43.113 C78.3565333,63.1582948 62.1069515,79.4076667 42.0618667,79.4076667 C22.0162202,79.4076667 5.76653333,63.1583999 5.76653333,43.113 C5.76653333,23.0676001 22.0162202,6.81833333 42.0618667,6.81833333 C62.1069515,6.81833333 78.3565333,23.0677052 78.3565333,43.113 Z M77.0232,43.113 C77.0232,23.8040887 61.3705757,8.15166667 42.0618667,8.15166667 C22.7525921,8.15166667 7.09986667,23.8039875 7.09986667,43.113 C7.09986667,62.4220125 22.7525921,78.0743333 42.0618667,78.0743333 C61.3705757,78.0743333 77.0232,62.4219113 77.0232,43.113 Z" id="Stroke-19" fill="#32434F" fill-rule="nonzero"></path>
            <path d="M38.9223333,43.1358 L35.237,47.7978 C33.163,50.4218 35.0316667,54.2811333 38.3763333,54.2811333 L45.747,54.2811333 C49.0916667,54.2811333 50.961,50.4218 48.8863333,47.7978 L45.201,43.1358 C43.599,41.1084667 40.5243333,41.1084667 38.9223333,43.1358" id="Fill-21" fill="#000000"></path>
            <path d="M38.5700667,51.4645333 L45.5534,51.4645333 C46.4738746,51.4645333 47.2200667,50.7183412 47.2200667,49.7978667 C47.2200667,48.8773921 46.4738746,48.1312 45.5534,48.1312 L38.5700667,48.1312 C37.6495921,48.1312 36.9034,48.8773921 36.9034,49.7978667 C36.9034,50.7183412 37.6495921,51.4645333 38.5700667,51.4645333 Z" id="Stroke-23" fill="#86939D" fill-rule="nonzero"></path>
            <path d="M51.727,42.9502667 C46.7516667,34.7429333 48.6823333,27.8542667 54.2376667,25.8542667 C59.7936667,23.8542667 66.7516667,25.8249333 69.6403333,32.0622667 C72.5296667,38.2989333 71.4183333,46.0762667 67.4183333,48.7429333 C63.4183333,51.4096 56.2583333,51.1576 51.727,42.9502667" id="Fill-25" fill="#3F5463"></path>
            <path d="M57.5147333,41.1605333 C54.4207333,41.1605333 51.9040667,38.6438667 51.9040667,35.5498667 C51.9040667,32.4558667 54.4207333,29.9392 57.5147333,29.9392 C60.6094,29.9392 63.1260667,32.4558667 63.1260667,35.5498667 C63.1260667,38.6438667 60.6094,41.1605333 57.5147333,41.1605333" id="Fill-27" fill="#000000"></path>
            <path d="M57.5147333,29.6058667 C60.7927333,29.6058667 63.4594,32.2725333 63.4594,35.5498667 C63.4594,38.8278667 60.7927333,41.4938667 57.5147333,41.4938667 C54.2374,41.4938667 51.5707333,38.8278667 51.5707333,35.5498667 C51.5707333,32.2725333 54.2374,29.6058667 57.5147333,29.6058667 Z M57.5147333,30.2725333 C54.6007333,30.2725333 52.2374,32.6352 52.2374,35.5498667 C52.2374,38.4645333 54.6007333,40.8272 57.5147333,40.8272 C60.4294,40.8272 62.7927333,38.4645333 62.7927333,35.5498667 C62.7927333,32.6352 60.4294,30.2725333 57.5147333,30.2725333 Z" id="Fill-29" fill="#FFFFFF"></path>
            <path d="M60.4450667,33.8057333 C60.4450667,34.7690667 59.6637333,35.5497333 58.7010667,35.5497333 C57.7370667,35.5497333 56.9570667,34.7690667 56.9570667,33.8057333 C56.9570667,32.8430667 57.7370667,32.0624 58.7010667,32.0624 C59.6637333,32.0624 60.4450667,32.8430667 60.4450667,33.8057333" id="Fill-31" fill="#999999"></path>
            <path d="M32.3962667,42.9502667 C37.3716,34.7429333 35.4409333,27.8542667 29.8856,25.8542667 C24.3302667,23.8542667 17.3716,25.8249333 14.4829333,32.0622667 C11.5942667,38.2989333 12.7049333,46.0762667 16.7049333,48.7429333 C20.7049333,51.4096 27.8649333,51.1576 32.3962667,42.9502667" id="Fill-33" fill="#3F5463"></path>
            <path d="M26.6085333,41.1605333 C23.5145333,41.1605333 20.9978667,38.6438667 20.9978667,35.5498667 C20.9978667,32.4558667 23.5145333,29.9392 26.6085333,29.9392 C29.7025333,29.9392 32.2192,32.4558667 32.2192,35.5498667 C32.2192,38.6438667 29.7025333,41.1605333 26.6085333,41.1605333" id="Fill-35" fill="#000000"></path>
            <path d="M26.6085333,29.6058667 C29.8858667,29.6058667 32.5525333,32.2725333 32.5525333,35.5498667 C32.5525333,38.8278667 29.8858667,41.4938667 26.6085333,41.4938667 C23.3312,41.4938667 20.6645333,38.8278667 20.6645333,35.5498667 C20.6645333,32.2725333 23.3312,29.6058667 26.6085333,29.6058667 Z M26.6085333,30.2725333 C23.6938667,30.2725333 21.3312,32.6352 21.3312,35.5498667 C21.3312,38.4645333 23.6938667,40.8272 26.6085333,40.8272 C29.5232,40.8272 31.8858667,38.4645333 31.8858667,35.5498667 C31.8858667,32.6352 29.5232,30.2725333 26.6085333,30.2725333 Z" id="Fill-37" fill="#FFFFFF"></path>
            <path d="M26.3454667,33.8057333 C26.3454667,34.7690667 27.1261333,35.5497333 28.0894667,35.5497333 C29.0528,35.5497333 29.8328,34.7690667 29.8328,33.8057333 C29.8328,32.8430667 29.0528,32.0624 28.0894667,32.0624 C27.1261333,32.0624 26.3454667,32.8430667 26.3454667,33.8057333" id="Fill-39" fill="#999999"></path>
        </g>
    </g>
</svg>