<?xml version="1.0" encoding="UTF-8"?>
<svg width="73px" height="103px" viewBox="0 0 73 103" version="1.1" xmlns="http://www.w3.org/2000/svg" xmlns:xlink="http://www.w3.org/1999/xlink">
    <!-- Generator: Sketch 48.2 (47327) - http://www.bohemiancoding.com/sketch -->
    <title>red-panda</title>
    <desc>Created with Sketch.</desc>
    <defs></defs>
    <g id="Act-As-User-Masquerade" stroke="none" stroke-width="1" fill="none" fill-rule="evenodd">
        <g id="red-panda">
            <path d="M37.0551747,102.291766 C32.9656528,102.319367 29.6280644,99.0262075 29.6004643,94.9366856 L29.1898292,34.007185 C29.1622292,29.9176631 32.4553882,26.5800747 36.5449101,26.5531478 C40.634432,26.5255478 43.9713472,29.8187068 43.9989473,33.9075555 L44.4102556,94.8370561 C44.4378556,98.926578 41.1446966,102.264166 37.0551747,102.291766" id="Fill-1" fill="#FAA441"></path>
            <path d="M31.8707172,99.2406327 C32.6047189,100.10538 33.553049,100.781997 34.6329314,101.18881 C34.9671707,97.6442845 35.0131307,93.7586393 34.7985798,89.585924 C34.4504526,82.8153337 33.4391194,75.568369 31.9708155,68.2368596 C31.3543577,65.1587734 30.6959727,62.2620604 30.0356503,59.622311 L30.1645612,78.7499416 C32.6811074,88.7577404 33.2461184,93.7671601 31.8707172,99.2406327 Z M31.347291,98.5358804 C32.399254,93.9197878 32.0196627,89.4732188 30.1842475,81.6709638 L30.2736213,94.9321425 C30.2825882,96.2607731 30.6758602,97.4969301 31.347291,98.5358804 Z M39.2780091,27.7822683 C38.4425111,27.4186626 37.5191947,27.2197601 36.5493424,27.2263056 C35.5923129,27.232607 34.6832534,27.4383543 33.8613158,27.8038673 C34.2609291,33.3136255 34.8332926,37.3335037 37.8856395,57.5160524 C38.1552506,59.2987592 38.3839568,60.8221765 38.6001902,62.2786656 C41.4456122,81.4446529 42.6023291,92.8337344 41.9246169,99.4823994 C43.0592544,98.2682838 43.7491982,96.63441 43.7370986,94.8416003 L43.6113519,76.2140062 C40.6095102,65.4851896 39.2970695,46.9623765 39.2780091,27.7822683 Z M39.9516853,28.1217418 C39.9831754,45.6287535 41.0997965,62.5665623 43.5923554,73.3999509 L43.3257903,33.9120994 C43.3090585,31.4333544 41.954594,29.2764649 39.9516853,28.1217418 Z M33.2107626,28.1367743 C31.1947633,29.3110982 29.8461112,31.5022551 29.8629863,34.0026483 L29.8960977,38.9156795 C34.8137282,65.8383798 38.0286268,89.3047593 37.4303074,101.605516 C38.8369016,101.517771 40.1252871,100.998648 41.165791,100.179569 C42.0138554,93.7491582 40.8837479,82.2440915 37.9343161,62.3775227 C37.7181826,60.9217063 37.4895631,59.3988661 37.2200362,57.6167162 C34.215697,37.751601 33.6116174,33.5302756 33.2107626,28.1367743 Z M35.2891768,101.398082 C35.7600479,101.521887 36.2509609,101.595924 36.7559063,101.614263 C37.3314362,89.9815298 34.4430094,68.1363198 29.9225965,42.8475328 L30.0170845,56.8675388 C30.1932746,57.5214203 30.3850008,58.2549961 30.5888747,59.0618785 C31.2850641,61.8172243 31.9811766,64.8605762 32.6308806,68.1046664 C34.105158,75.4660023 35.1208607,82.744278 35.4708641,89.5513567 C35.68994,93.8120791 35.639357,97.7792436 35.2891768,101.398082 Z M37.0597178,102.964923 C32.5984738,102.995032 28.9574169,99.4025772 28.9273073,94.9412224 L28.5166722,34.0117281 C28.4865625,29.5503529 32.0791736,25.9093649 36.540367,25.8799908 C41.0013878,25.8498835 44.6419928,29.4421137 44.6721043,33.9030113 L45.0834126,94.832513 C45.1135214,99.293757 41.5210663,102.934814 37.0597178,102.964923 Z" id="Combined-Shape" fill="#8D642C" fill-rule="nonzero"></path>
            <path d="M72.8581815,42.5076686 L72.6232444,7.70869828 C72.5889126,2.57239342 66.8178062,-0.429281994 62.5923035,2.49161274 L36.7317154,20.3683771 L72.8581815,42.5076686 Z" id="Fill-15" fill="#FFFFFF"></path>
            <path d="M73.5395184,43.7147351 L35.4987736,20.402321 L62.2095218,1.93786272 C66.8798057,-1.2904887 73.2584551,2.02709379 73.2964014,7.70415362 L73.5395184,43.7147351 Z M71.9500871,7.71319776 C71.9193696,3.11761221 66.7557403,0.43197068 62.9750931,3.0453574 L37.9646572,20.3344332 L72.1768447,41.3006021 L71.9500871,7.71319776 Z" id="Stroke-17" fill="#822B00" fill-rule="nonzero"></path>
            <path d="M0.90763825,42.9921507 L0.67337428,8.19385358 C0.639042491,3.05687554 6.36841217,-0.0215415145 10.6329589,2.8414604 L36.73185,20.3688483 L0.90763825,42.9921507 Z" id="Fill-19" fill="#FFFFFF"></path>
            <path d="M0.000216985166,8.19835247 C-0.0377270579,2.52088202 6.2945712,-0.881919983 11.0082649,2.28261663 L37.9651222,20.3861939 L0.242637661,44.2082721 L0.000216985166,8.19835247 Z M35.4985779,20.3515027 L10.25774,3.4003627 C6.44193232,0.838621563 1.31581462,3.59325548 1.34653135,8.18932185 L1.57263884,41.7760293 L35.4985779,20.3515027 Z" id="Stroke-21" fill="#822B00" fill-rule="nonzero"></path>
            <path d="M3.09815006,13.3123746 L3.28327245,40.7926154 C3.29579486,42.6514873 4.81285967,44.1482492 6.67173154,44.1357268 C8.53060342,44.1232044 10.0273654,42.6061396 10.014843,40.7472677 L9.8297206,13.267027 C9.81719819,11.4081551 8.30013338,9.9113931 6.4412615,9.92391551 C4.58238963,9.93643792 3.08562765,11.4535027 3.09815006,13.3123746 Z" id="Stroke-23" fill="#B1703F" fill-rule="nonzero"></path>
            <path d="M63.3142226,12.9067888 L63.499345,40.3863564 C63.5118677,42.2452283 65.0289328,43.74199 66.8878046,43.7294673 C68.7466765,43.7169446 70.2434382,42.1998795 70.2309155,40.3410077 L70.0457931,12.8614401 C70.0332704,11.0025682 68.5162054,9.50580647 66.6573335,9.51832919 C64.7984616,9.5308519 63.3016999,11.047917 63.3142226,12.9067888 Z" id="Stroke-25" fill="#B1703F" fill-rule="nonzero"></path>
            <path d="M70.471853,55.6325095 C72.0356323,51.5584706 72.8892148,47.134382 72.8582489,42.5076686 C72.7242876,22.6389873 56.5089125,6.64104697 36.6402313,6.77500826 C16.7722232,6.90896955 0.774282812,23.1236714 0.907570933,42.9923527 C0.937863687,47.4474071 1.78202179,51.7052221 3.28858146,55.6325095 L70.471853,55.6325095 Z" id="Fill-27" fill="#B1703F"></path>
            <path d="M66.3013484,55.6325095 C67.3326484,50.1124964 64.9691404,44.0303844 59.1374485,41.0839091 C49.404723,36.1670584 39.5642899,31.5726573 36.8076492,31.5915061 C34.0510085,31.6096818 24.2731805,36.3360247 14.6077722,41.3834708 C8.95447099,44.3360046 6.64279722,50.2323211 7.56302379,55.6325095 L66.3013484,55.6325095 Z" id="Fill-29" fill="#FFFFFF"></path>
            <path d="M33.7787103,52.5131635 L30.0257746,47.8305768 C27.9133598,45.1951072 29.7746813,41.2853223 33.1513137,41.2624344 L40.593907,41.2126197 C43.9712126,41.1897318 45.8836951,45.0739362 43.8076317,47.7370059 L40.1186473,52.4707537 C38.5144777,54.5279683 35.4104801,54.5488367 33.7787103,52.5131635" id="Fill-31" fill="#000000"></path>
            <path d="M33.7235264,47.1652434 L40.1011611,47.1228336 C41.0305975,47.116653 41.7790443,46.3581856 41.7728638,45.4287491 C41.7666833,44.4993126 41.0082158,43.7508658 40.0787793,43.7570463 L33.7011447,43.7994562 C32.7717082,43.8056367 32.0232614,44.5641042 32.0294419,45.4935407 C32.0356225,46.4229772 32.7940899,47.171424 33.7235264,47.1652434 Z" id="Stroke-33" fill="#86939D" fill-rule="nonzero"></path>
            <path d="M46.5093882,40.0355491 C45.420849,38.669459 44.7654107,36.9419863 44.752631,35.0599592 C44.7230114,30.5988462 48.315059,26.9576571 52.776172,26.9273643 C56.7492956,26.9009887 60.0711917,29.7464197 60.7725636,33.5200283 C62.0422069,37.7984407 63.3351481,46.6709882 61.1671304,55.6325095 L52.8588375,55.6325095 C52.2643745,50.5044969 49.266091,45.80178 46.5093882,40.0355491 Z" id="Combined-Shape" fill="#822B00"></path>
            <path d="M52.8306989,40.6708506 C49.7273745,40.6708506 47.186149,38.1464544 47.1652806,35.0438031 C47.1444123,31.9196103 49.6688085,29.3608823 52.7923281,29.340014 C55.9340234,29.340014 58.4752489,31.8644102 58.4961172,34.9677346 C58.5169856,38.0912542 55.9925894,40.6499822 52.8690698,40.6708506 L52.8306989,40.6708506 Z" id="Fill-39" fill="#000000"></path>
            <path d="M52.8313048,29.0034278 C56.1184053,29.0034278 58.8104214,31.6779415 58.8326361,34.9650419 C58.8434069,36.5678652 58.2294737,38.0798103 57.1039296,39.2215106 C55.9777123,40.3625377 54.4738453,40.996666 52.8716951,41.0074368 L52.8299584,41.0074368 C49.542858,41.0074368 46.8508418,38.3329231 46.8286271,35.0464958 C46.8178564,33.4429993 47.4317895,31.9317274 48.5580069,30.7900272 C49.6842242,29.6490001 51.187418,29.0148717 52.7902413,29.0034278 L52.8313048,29.0034278 Z M52.8313048,29.6766001 L52.7949535,29.6766001 C49.8518441,29.6961221 47.4822775,32.0986742 47.5017995,35.0417836 C47.5213215,37.9721027 49.9036783,40.3342644 52.8299584,40.3342644 L52.8669829,40.3342644 C55.8100923,40.3147424 58.1789858,37.9121904 58.1594638,34.9697541 C58.1399418,32.0387618 55.7582581,29.6766001 52.8313048,29.6766001 Z" id="Fill-41" fill="#FFFFFF"></path>
            <path d="M49.2274767,26.5395498 C49.2395938,28.2675831 47.8474735,29.6778792 46.1194401,29.6899963 C44.3907336,29.700767 42.9811107,28.309993 42.9689936,26.5812864 C42.9575497,24.8532531 44.3489969,23.4429571 46.0770302,23.4315131 C47.8057368,23.419396 49.2153596,24.8115164 49.2274767,26.5395498" id="Fill-43" fill="#FFFFFF"></path>
            <path d="M12.8703583,33.8462057 C13.5197157,30.0618729 16.8038347,27.1700313 20.7774639,27.1430488 C25.2392501,27.1134292 28.879766,30.7054767 28.9100588,35.1665897 C28.9228396,37.0490525 28.2907012,38.7853241 27.2205219,40.1659478 C24.5786845,45.8874748 21.6867597,50.5784542 21.1034813,55.6325095 L12.6915199,55.6325095 C10.5141335,46.8136499 11.6734913,38.0901945 12.8703583,33.8462057 Z" id="Combined-Shape" fill="#822B00"></path>
            <path d="M20.8319909,40.886535 C17.7286664,40.886535 15.1874409,38.3621388 15.1665725,35.2594875 C15.1457042,32.1352947 17.6701004,29.5765667 20.79362,29.5556984 C23.9353153,29.5556984 26.4765408,32.0800946 26.4974092,35.183419 C26.5182775,38.3069386 23.9938813,40.8656667 20.8703617,40.886535 L20.8319909,40.886535 Z" id="Fill-49" fill="#000000"></path>
            <path d="M20.832664,29.2190449 C24.1197645,29.2190449 26.8124538,31.8935586 26.8339953,35.180659 C26.8454393,36.7834823 26.2308329,38.2954274 25.1046156,39.4371277 C23.9790715,40.5781548 22.4752045,41.2122831 20.8723812,41.2230538 L20.8313177,41.2230538 C17.5442172,41.2230538 14.8522011,38.5485402 14.8299864,35.2621129 C14.8192156,33.6586164 15.4331488,32.1473445 16.5593661,31.0056443 C17.6849102,29.8646172 19.1887772,29.2304888 20.7916005,29.2190449 L20.832664,29.2190449 Z M20.832664,29.8922172 L20.7956396,29.8922172 C17.8532033,29.9117392 15.4836367,32.3142913 15.5031587,35.2574007 C15.5226807,38.1877198 17.9050376,40.5498815 20.8313177,40.5498815 L20.8683422,40.5498815 C23.8114516,40.5303595 26.180345,38.1278075 26.160823,35.1853712 C26.141301,32.2550521 23.7589441,29.8922172 20.832664,29.8922172 Z" id="Fill-51" fill="#FFFFFF"></path>
            <path d="M24.3207738,26.7071697 C24.3328909,28.435203 25.7425137,29.8273234 27.4712203,29.8152063 C29.1992536,29.8037624 30.5907008,28.3934664 30.5792569,26.665433 C30.5671398,24.9367264 29.1575169,23.5452792 27.4288104,23.5567232 C25.700777,23.5688403 24.3086567,24.9791363 24.3207738,26.7071697" id="Fill-53" fill="#FFFFFF"></path>
            <path d="M56.341158,33.2206505 C56.3478897,34.1933845 55.5643171,34.9870547 54.5915831,34.9937864 C53.6188491,35.0005181 52.8251789,34.2169455 52.8191204,33.2442115 C52.8123886,32.2721507 53.5952881,31.4784805 54.5680221,31.4717488 C55.5407561,31.4656902 56.3344263,32.2485896 56.341158,33.2206505" id="Fill-55" fill="#999999"></path>
            <path d="M24.0295594,33.438893 C24.0362911,34.4109538 23.2527186,35.204624 22.2799845,35.2113557 C21.3079237,35.2180874 20.5135804,34.4345148 20.5075218,33.462454 C20.5007901,32.48972 21.2836895,31.6960498 22.2564235,31.6893181 C23.2291575,31.6832595 24.0228277,32.4661589 24.0295594,33.438893" id="Fill-57" fill="#999999"></path>
            <path d="M71.1003185,55.8737397 L70.9345218,56.3056818 L2.82581462,56.3056818 L2.66006824,55.8736155 C1.09335133,51.7895108 0.26467816,47.4477546 0.234413752,42.9968685 C0.098632223,22.7565058 16.395835,6.23831975 36.6356926,6.10185123 C56.876193,5.96538301 73.3949383,22.262719 73.5314061,42.5031633 C73.5622949,47.1183454 72.7294149,51.6295334 71.1003185,55.8737397 Z M72.1850918,42.5122073 C72.0536375,23.0153479 56.1417243,7.3167103 36.6447701,7.44816529 C17.1484486,7.57962046 1.44993449,23.4909999 1.5807277,42.9877755 C1.60882028,47.1192571 2.35071064,51.1518566 3.75457467,54.9593372 L70.0059787,54.9593372 C71.4680673,50.9973095 72.2138023,46.8019295 72.1850918,42.5122073 Z" id="Stroke-59" fill="#822B00" fill-rule="nonzero"></path>
        </g>
    </g>
</svg>
