<svg width="172" height="165" viewBox="0 0 172 165" fill="none" xmlns="http://www.w3.org/2000/svg">
<path d="M123.449 40.7247C124.708 40.2023 126.057 39.4522 127.407 38.3722C132.6 34.2183 131.561 27.2953 131.215 25.5645C130.869 23.8337 128.792 15.526 122.215 19.3337C117.967 21.7928 113.578 25.982 111 28.6428C115.885 31.8967 120.116 36.0332 123.449 40.7247Z" fill="#2D3B45"/>
<g filter="url(#filter0_i)">
<path d="M123.449 40.7247C124.708 40.2023 126.057 39.4522 127.407 38.3722C132.6 34.2183 131.561 27.2953 131.215 25.5645C130.869 23.8337 128.792 15.526 122.215 19.3337C117.967 21.7928 113.578 25.982 111 28.6428C115.885 31.8967 120.116 36.0332 123.449 40.7247Z" fill="#2D3B45"/>
</g>
<path d="M123.449 40.7247C124.708 40.2023 126.057 39.4522 127.407 38.3722C132.6 34.2183 131.561 27.2953 131.215 25.5645C130.869 23.8337 128.792 15.526 122.215 19.3337C117.967 21.7928 113.578 25.982 111 28.6428C115.885 31.8967 120.116 36.0332 123.449 40.7247Z" stroke="#152633" stroke-width="2"/>
<path d="M49.0868 40.7247C47.8282 40.2023 46.4792 39.4522 45.1289 38.3722C39.9366 34.2183 40.975 27.2953 41.3212 25.5645C41.6673 23.8337 43.7443 15.526 50.3212 19.3337C54.5688 21.7928 58.9581 25.982 61.5362 28.6428C56.6513 31.8967 52.4203 36.0332 49.0868 40.7247Z" fill="#2D3B45"/>
<g filter="url(#filter1_i)">
<path d="M49.0868 40.7247C47.8282 40.2023 46.4792 39.4522 45.1289 38.3722C39.9366 34.2183 40.975 27.2953 41.3212 25.5645C41.6673 23.8337 43.7443 15.526 50.3212 19.3337C54.5688 21.7928 58.9581 25.982 61.5362 28.6428C56.6513 31.8967 52.4203 36.0332 49.0868 40.7247Z" fill="#2D3B45"/>
</g>
<path d="M49.0868 40.7247C47.8282 40.2023 46.4792 39.4522 45.1289 38.3722C39.9366 34.2183 40.975 27.2953 41.3212 25.5645C41.6673 23.8337 43.7443 15.526 50.3212 19.3337C54.5688 21.7928 58.9581 25.982 61.5362 28.6428C56.6513 31.8967 52.4203 36.0332 49.0868 40.7247Z" stroke="#152633" stroke-width="2"/>
<path fill-rule="evenodd" clip-rule="evenodd" d="M101.492 106.105C106.492 102.772 114.825 101.272 126.492 101.605L119.492 90.1053C109.158 91.0668 100.992 94.2142 94.9915 99.5476C85.9915 107.548 93.9915 111.105 101.492 106.105Z" fill="#2D3B45" stroke="#152633" stroke-width="2"/>
<path fill-rule="evenodd" clip-rule="evenodd" d="M100.992 95.6053C106.325 89.9386 113.492 87.4386 122.492 88.1053C135.992 89.1053 135.992 107.605 123.992 108.105C111.992 108.605 114.492 100.939 114.492 97.6053" fill="#2D3B45"/>
<path d="M100.992 95.6053C106.325 89.9386 113.492 87.4386 122.492 88.1053C135.992 89.1053 135.992 107.605 123.992 108.105C111.992 108.605 114.492 100.939 114.492 97.6053" stroke="#152633" stroke-width="2"/>
<path fill-rule="evenodd" clip-rule="evenodd" d="M70.5085 106.105C65.5085 102.772 57.1751 101.272 45.5085 101.605L52.5085 90.1053C62.8418 91.0668 71.0085 94.2142 77.0085 99.5476C86.0085 107.548 78.0085 111.105 70.5085 106.105Z" fill="#2D3B45" stroke="#152633" stroke-width="2"/>
<path fill-rule="evenodd" clip-rule="evenodd" d="M71.0084 95.6053C65.6751 89.9386 58.5084 87.4386 49.5084 88.1053C36.0084 89.1053 36.0084 107.605 48.0084 108.105C60.0084 108.605 57.5084 100.939 57.5084 97.6053" fill="#2D3B45"/>
<path d="M71.0084 95.6053C65.6751 89.9386 58.5084 87.4386 49.5084 88.1053C36.0084 89.1053 36.0084 107.605 48.0084 108.105C60.0084 108.605 57.5084 100.939 57.5084 97.6053" stroke="#152633" stroke-width="2"/>
<path d="M86 149.5C113.614 149.5 136 144.911 136 139.25C136 133.589 113.614 129 86 129C58.3858 129 36 133.589 36 139.25C36 144.911 58.3858 149.5 86 149.5Z" fill="black" fill-opacity="0.05"/>
<path d="M111.52 110C112.869 119.43 105.56 128.421 91.5 130.13L91.7967 131.463C92.8351 137.001 94.912 139.078 98.3736 140.116C105.989 142.886 122.604 141.847 120.874 135.27C119.027 125.809 115.91 117.385 111.52 110Z" fill="#2D3B45"/>
<g filter="url(#filter2_i)">
<path d="M111.52 110C112.869 119.43 105.56 128.421 91.5 130.13L91.7967 131.463C92.8351 137.001 94.912 139.078 98.3736 140.116C105.989 142.886 122.604 141.847 120.874 135.27C119.027 125.809 115.91 117.385 111.52 110Z" fill="#2D3B45"/>
</g>
<path d="M111.52 110C112.869 119.43 105.56 128.421 91.5 130.13L91.7967 131.463C92.8351 137.001 94.912 139.078 98.3736 140.116C105.989 142.886 122.604 141.847 120.874 135.27C119.027 125.809 115.91 117.385 111.52 110Z" stroke="#152633" stroke-width="2"/>
<path fill-rule="evenodd" clip-rule="evenodd" d="M120.874 135.27C118.104 121.078 111.987 112.609 111.64 109.84C112.99 119.269 105.56 128.421 91.5 130.13L91.7967 131.463C92.8351 137.001 94.912 139.078 98.3736 140.116C105.989 142.886 122.604 141.847 120.874 135.27Z" stroke="#152633" stroke-width="2"/>
<path d="M60.5225 110L60.4716 110.001C60.1255 112.77 53.8947 121.078 51.1255 135.27C49.3947 141.847 66.0101 142.885 73.6255 140.116C77.087 139.078 79.164 137.001 80.2024 131.462L80.4845 130.309L80.4991 129.99C67.1746 128.028 59.7302 119.617 60.5225 110Z" fill="#2D3B45"/>
<g filter="url(#filter3_i)">
<path d="M60.5225 110L60.4716 110.001C60.1255 112.77 53.8947 121.078 51.1255 135.27C49.3947 141.847 66.0101 142.885 73.6255 140.116C77.087 139.078 79.164 137.001 80.2024 131.462L80.4845 130.309L80.4991 129.99C67.1746 128.028 59.7302 119.617 60.5225 110Z" fill="#2D3B45"/>
</g>
<path d="M60.5225 110L60.4716 110.001C60.1255 112.77 53.8947 121.078 51.1255 135.27C49.3947 141.847 66.0101 142.885 73.6255 140.116C77.087 139.078 79.164 137.001 80.2024 131.462L80.4845 130.309L80.4991 129.99C67.1746 128.028 59.7302 119.617 60.5225 110Z" stroke="#152633" stroke-width="2"/>
<path fill-rule="evenodd" clip-rule="evenodd" d="M60.5225 110C60.1255 112.77 53.8947 121.078 51.1255 135.27C49.3947 141.847 66.0101 142.885 73.6255 140.116C77.087 139.078 79.164 137.001 80.2024 131.462L80.4845 130.309L80.4991 129.99C67.1746 128.028 59.7302 119.617 60.5225 110Z" stroke="#152633" stroke-width="2"/>
<path d="M105.932 92C99.6098 94.1053 92.3946 95.2497 84.7321 95.2497C77.9021 95.2497 71.5841 94.4438 66.0066 92.864C63.7669 97.8791 61.23 104.305 60.6744 108.75C59.0402 120.187 68.9821 130.211 86.6359 130.211C104.29 130.211 113.512 119.827 111.497 109.096C110.109 101.703 107.87 96.1178 105.932 92Z" fill="white"/>
<g filter="url(#filter4_ii)">
<path d="M105.932 92C99.6098 94.1053 92.3946 95.2497 84.7321 95.2497C77.9021 95.2497 71.5841 94.4438 66.0066 92.864C63.7669 97.8791 61.23 104.305 60.6744 108.75C59.0402 120.187 68.9821 130.211 86.6359 130.211C104.29 130.211 113.512 119.827 111.497 109.096C110.109 101.703 107.87 96.1178 105.932 92Z" fill="white"/>
</g>
<path d="M105.932 92C99.6098 94.1053 92.3946 95.2497 84.7321 95.2497C77.9021 95.2497 71.5841 94.4438 66.0066 92.864C63.7669 97.8791 61.23 104.305 60.6744 108.75C59.0402 120.187 68.9821 130.211 86.6359 130.211C104.29 130.211 113.512 119.827 111.497 109.096C110.109 101.703 107.87 96.1178 105.932 92Z" stroke="#152633" stroke-width="2"/>
<path fill-rule="evenodd" clip-rule="evenodd" d="M105.932 92C99.6098 94.1053 92.3946 95.2497 84.7321 95.2497C77.9021 95.2497 71.5841 94.4438 66.0066 92.864C63.7669 97.8791 61.23 104.305 60.6744 108.75C59.0402 120.187 68.9821 130.211 86.6359 130.211C104.29 130.211 113.512 119.827 111.497 109.096C110.109 101.703 107.87 96.1178 105.932 92Z" stroke="#152633" stroke-width="2"/>
<path d="M42 64.2692C42 84.3462 60.1478 95.0769 85.0962 95.0769C110.045 95.0769 130.269 82.9615 130.269 64.9615C130.269 42.5941 110.045 21 85.0962 21C60.1478 21 42 43.1538 42 64.2692Z" fill="white"/>
<g filter="url(#filter5_i)">
<path d="M42 64.2692C42 84.3462 60.1478 95.0769 85.0962 95.0769C110.045 95.0769 130.269 82.9615 130.269 64.9615C130.269 42.5941 110.045 21 85.0962 21C60.1478 21 42 43.1538 42 64.2692Z" fill="white"/>
</g>
<path d="M42 64.2692C42 84.3462 60.1478 95.0769 85.0962 95.0769C110.045 95.0769 130.269 82.9615 130.269 64.9615C130.269 42.5941 110.045 21 85.0962 21C60.1478 21 42 43.1538 42 64.2692Z" stroke="#152633" stroke-width="2"/>
<path fill-rule="evenodd" clip-rule="evenodd" d="M42 64.3338C42 84.4107 60.2981 95.1414 85.4529 95.1414C110.608 95.1414 131 83.0261 131 65.0261C131 42.6586 110.608 21.0645 85.4529 21.0645C60.2981 21.0645 42 43.2184 42 64.3338Z" stroke="#152633" stroke-width="2"/>
<path fill-rule="evenodd" clip-rule="evenodd" d="M92 76.2885C92 78.1047 89.5377 79.5769 86.5 79.5769C83.4623 79.5769 81 78.1047 81 76.2885C81 74.4722 83.4623 73 86.5 73C89.5377 73 92 74.4722 92 76.2885Z" fill="#152633"/>
<path d="M81 84.5C82.3333 86.1667 84.1667 87 86.5 87C88.8333 87 90.6667 86.1667 92 84.5" stroke="#152633" stroke-width="2" stroke-linecap="round"/>
<path fill-rule="evenodd" clip-rule="evenodd" d="M108.75 35.9106C101.089 35.9106 94 47.9145 94 59.8336C94 70.4782 103.42 80.2952 112.25 80.2952C120.304 80.2952 127 71.1704 127 59.8336C127 54.5942 124.723 48.5117 120.907 43.6088C117.14 38.7684 112.564 35.9106 108.75 35.9106Z" fill="#2D3B45" stroke="#152633" stroke-width="2"/>
<path fill-rule="evenodd" clip-rule="evenodd" d="M60.75 80.2953C69.5797 80.2953 79 70.4783 79 59.8338C79 47.9144 71.9113 35.9107 64.25 35.9107C60.4362 35.9107 55.8594 38.7685 52.0926 43.609C48.2767 48.5117 46 54.5938 46 59.8338C46 71.1705 52.6964 80.2953 60.75 80.2953Z" fill="#2D3B45" stroke="#152633" stroke-width="2"/>
<path fill-rule="evenodd" clip-rule="evenodd" d="M107.133 70.2497C107.133 72.5967 105.76 74.4995 104.067 74.4995C102.373 74.4995 101 72.5967 101 70.2497C101 67.9027 102.373 66 104.067 66C105.76 66 107.133 67.9027 107.133 70.2497Z" fill="white"/>
<path fill-rule="evenodd" clip-rule="evenodd" d="M71.133 70.2497C71.133 72.5967 69.76 74.4995 68.0665 74.4995C66.373 74.4995 65 72.5967 65 70.2497C65 67.9027 66.373 66 68.0665 66C69.76 66 71.133 67.9027 71.133 70.2497Z" fill="white"/>
<path d="M74.2521 92.4693C78.3347 90.8231 82.4174 90 86.5 90C90.5826 90 94.6653 90.8231 98.7479 92.4693C99.5045 92.7744 100 93.5084 100 94.3242V95H73V94.3242C73 93.5084 73.4955 92.7744 74.2521 92.4693Z" fill="#EE5E5E"/>
<g filter="url(#filter6_i)">
<path d="M74.2521 92.4693C78.3347 90.8231 82.4174 90 86.5 90C90.5826 90 94.6653 90.8231 98.7479 92.4693C99.5045 92.7744 100 93.5084 100 94.3242V95H73V94.3242C73 93.5084 73.4955 92.7744 74.2521 92.4693Z" fill="#EE5E5E"/>
</g>
<path d="M74.2521 92.4693C78.3347 90.8231 82.4174 90 86.5 90C90.5826 90 94.6653 90.8231 98.7479 92.4693C99.5045 92.7744 100 93.5084 100 94.3242V95H73V94.3242C73 93.5084 73.4955 92.7744 74.2521 92.4693Z" stroke="#152633" stroke-width="2"/>
<path d="M79 146L86.5 141L94 146L91 164H82L79 146Z" fill="#A0A0A0"/>
<g filter="url(#filter7_i)">
<path d="M79 146L86.5 141L94 146L91 164H82L79 146Z" fill="#A0A0A0"/>
</g>
<path d="M79 146L86.5 141L94 146L91 164H82L79 146Z" stroke="#152633" stroke-width="2"/>
<path d="M86.316 115H86.684C87.278 115 87.6509 115.093 87.9768 115.267C88.3028 115.441 88.5586 115.697 88.7329 116.023C88.9072 116.349 89 116.722 89 117.316V147.684C89 148.278 88.9072 148.651 88.7329 148.977C88.5586 149.303 88.3028 149.559 87.9768 149.733C87.6509 149.907 87.278 150 86.684 150H86.316C85.722 150 85.3491 149.907 85.0232 149.733C84.6972 149.559 84.4414 149.303 84.2671 148.977C84.0928 148.651 84 148.278 84 147.684V117.316C84 116.722 84.0928 116.349 84.2671 116.023C84.4414 115.697 84.6972 115.441 85.0232 115.267C85.3491 115.093 85.722 115 86.316 115Z" fill="#A0A0A0"/>
<g filter="url(#filter8_i)">
<path d="M86.316 115H86.684C87.278 115 87.6509 115.093 87.9768 115.267C88.3028 115.441 88.5586 115.697 88.7329 116.023C88.9072 116.349 89 116.722 89 117.316V147.684C89 148.278 88.9072 148.651 88.7329 148.977C88.5586 149.303 88.3028 149.559 87.9768 149.733C87.6509 149.907 87.278 150 86.684 150H86.316C85.722 150 85.3491 149.907 85.0232 149.733C84.6972 149.559 84.4414 149.303 84.2671 148.977C84.0928 148.651 84 148.278 84 147.684V117.316C84 116.722 84.0928 116.349 84.2671 116.023C84.4414 115.697 84.6972 115.441 85.0232 115.267C85.3491 115.093 85.722 115 86.316 115Z" fill="#A0A0A0"/>
</g>
<path d="M86.316 115H86.684C87.278 115 87.6509 115.093 87.9768 115.267C88.3028 115.441 88.5586 115.697 88.7329 116.023C88.9072 116.349 89 116.722 89 117.316V147.684C89 148.278 88.9072 148.651 88.7329 148.977C88.5586 149.303 88.3028 149.559 87.9768 149.733C87.6509 149.907 87.278 150 86.684 150H86.316C85.722 150 85.3491 149.907 85.0232 149.733C84.6972 149.559 84.4414 149.303 84.2671 148.977C84.0928 148.651 84 148.278 84 147.684V117.316C84 116.722 84.0928 116.349 84.2671 116.023C84.4414 115.697 84.6972 115.441 85.0232 115.267C85.3491 115.093 85.722 115 86.316 115Z" stroke="#152633" stroke-width="2"/>
<path d="M80.5639 108H92.4361C93.3276 108 93.6509 108.093 93.9768 108.267C94.3028 108.441 94.5586 108.697 94.7329 109.023C94.9072 109.349 95 109.672 95 110.564V114.436C95 115.328 94.9072 115.651 94.7329 115.977C94.5586 116.303 94.3028 116.559 93.9768 116.733C93.6509 116.907 93.3276 117 92.4361 117H80.5639C79.6724 117 79.3491 116.907 79.0232 116.733C78.6972 116.559 78.4414 116.303 78.2671 115.977C78.0928 115.651 78 115.328 78 114.436V110.564C78 109.672 78.0928 109.349 78.2671 109.023C78.4414 108.697 78.6972 108.441 79.0232 108.267C79.3491 108.093 79.6724 108 80.5639 108Z" fill="#555555"/>
<g filter="url(#filter9_i)">
<path d="M80.5639 108H92.4361C93.3276 108 93.6509 108.093 93.9768 108.267C94.3028 108.441 94.5586 108.697 94.7329 109.023C94.9072 109.349 95 109.672 95 110.564V114.436C95 115.328 94.9072 115.651 94.7329 115.977C94.5586 116.303 94.3028 116.559 93.9768 116.733C93.6509 116.907 93.3276 117 92.4361 117H80.5639C79.6724 117 79.3491 116.907 79.0232 116.733C78.6972 116.559 78.4414 116.303 78.2671 115.977C78.0928 115.651 78 115.328 78 114.436V110.564C78 109.672 78.0928 109.349 78.2671 109.023C78.4414 108.697 78.6972 108.441 79.0232 108.267C79.3491 108.093 79.6724 108 80.5639 108Z" fill="#555555"/>
</g>
<path d="M80.5639 108H92.4361C93.3276 108 93.6509 108.093 93.9768 108.267C94.3028 108.441 94.5586 108.697 94.7329 109.023C94.9072 109.349 95 109.672 95 110.564V114.436C95 115.328 94.9072 115.651 94.7329 115.977C94.5586 116.303 94.3028 116.559 93.9768 116.733C93.6509 116.907 93.3276 117 92.4361 117H80.5639C79.6724 117 79.3491 116.907 79.0232 116.733C78.6972 116.559 78.4414 116.303 78.2671 115.977C78.0928 115.651 78 115.328 78 114.436V110.564C78 109.672 78.0928 109.349 78.2671 109.023C78.4414 108.697 78.6972 108.441 79.0232 108.267C79.3491 108.093 79.6724 108 80.5639 108Z" stroke="#152633" stroke-width="2"/>
<path d="M57 97H72V101H57C55.8954 101 55 100.105 55 99C55 97.8954 55.8954 97 57 97Z" fill="#555555"/>
<g filter="url(#filter10_i)">
<path d="M57 97H72V101H57C55.8954 101 55 100.105 55 99C55 97.8954 55.8954 97 57 97Z" fill="#555555"/>
</g>
<path d="M57 97H72V101H57C55.8954 101 55 100.105 55 99C55 97.8954 55.8954 97 57 97Z" stroke="#152633" stroke-width="2"/>
<path d="M73 95H100V107.436C100 108.328 99.9072 108.651 99.7329 108.977C99.5586 109.303 99.3028 109.559 98.9768 109.733C98.6509 109.907 98.3276 110 97.4361 110H75.5639C74.6724 110 74.3491 109.907 74.0232 109.733C73.6972 109.559 73.4414 109.303 73.2671 108.977C73.0928 108.651 73 108.328 73 107.436V95Z" fill="#555555"/>
<g filter="url(#filter11_i)">
<path d="M73 95H100V107.436C100 108.328 99.9072 108.651 99.7329 108.977C99.5586 109.303 99.3028 109.559 98.9768 109.733C98.6509 109.907 98.3276 110 97.4361 110H75.5639C74.6724 110 74.3491 109.907 74.0232 109.733C73.6972 109.559 73.4414 109.303 73.2671 108.977C73.0928 108.651 73 108.328 73 107.436V95Z" fill="#555555"/>
</g>
<path d="M73 95H100V107.436C100 108.328 99.9072 108.651 99.7329 108.977C99.5586 109.303 99.3028 109.559 98.9768 109.733C98.6509 109.907 98.3276 110 97.4361 110H75.5639C74.6724 110 74.3491 109.907 74.0232 109.733C73.6972 109.559 73.4414 109.303 73.2671 108.977C73.0928 108.651 73 108.328 73 107.436V95Z" stroke="#152633" stroke-width="2"/>
<path d="M100 97H115C116.105 97 117 97.8954 117 99C117 100.105 116.105 101 115 101H100V97Z" fill="#555555"/>
<g filter="url(#filter12_i)">
<path d="M100 97H115C116.105 97 117 97.8954 117 99C117 100.105 116.105 101 115 101H100V97Z" fill="#555555"/>
</g>
<path d="M100 97H115C116.105 97 117 97.8954 117 99C117 100.105 116.105 101 115 101H100V97Z" stroke="#152633" stroke-width="2"/>
<path d="M80 98H78V107H80V98Z" fill="#152633"/>
<path d="M85 98H83V107H85V98Z" fill="#152633"/>
<path d="M90 98H88V107H90V98Z" fill="#152633"/>
<path d="M95 98H93V107H95V98Z" fill="#152633"/>
<path d="M122.492 88.1053C135.992 89.1053 135.992 107.605 123.992 108.105C111.992 108.605 114.492 100.939 114.492 97.6053" fill="#2D3B45"/>
<g filter="url(#filter13_i)">
<path d="M122.492 88.1053C135.992 89.1053 135.992 107.605 123.992 108.105C111.992 108.605 114.492 100.939 114.492 97.6053" fill="#2D3B45"/>
</g>
<path d="M122.492 88.1053C135.992 89.1053 135.992 107.605 123.992 108.105C111.992 108.605 114.492 100.939 114.492 97.6053" stroke="#152633" stroke-width="2"/>
<path d="M119 88C119.667 88 120.83 88.0351 122.492 88.1053C135.992 89.1053 135.992 107.605 123.992 108.105C111.992 108.605 114.492 100.939 114.492 97.6053C114.83 96.5351 115.333 96 116 96" stroke="#152633" stroke-width="2"/>
<path fill-rule="evenodd" clip-rule="evenodd" d="M49.8578 88C36.3578 89 36.3578 107.5 48.3578 108C60.3578 108.5 57.8578 100.833 57.8578 97.5C57.8578 95.2778 54.0719 96.1111 46.5 100" fill="#2D3B45"/>
<path d="M55.5 88C34 86 36.3578 107.5 48.3578 108C60.3578 108.5 57.8578 100.833 57.8578 97.5C57.5189 96.4298 57.0161 95.8947 56.3494 95.8947" fill="#2D3B45"/>
<g filter="url(#filter14_i)">
<path d="M55.5 88C34 86 36.3578 107.5 48.3578 108C60.3578 108.5 57.8578 100.833 57.8578 97.5C57.5189 96.4298 57.0161 95.8947 56.3494 95.8947" fill="#2D3B45"/>
</g>
<path d="M55.5 88C34 86 36.3578 107.5 48.3578 108C60.3578 108.5 57.8578 100.833 57.8578 97.5C57.5189 96.4298 57.0161 95.8947 56.3494 95.8947" stroke="#152633" stroke-width="2"/>
<path d="M125 33C119.667 13 106.667 3 86 3C65.3333 3 52.3333 13 47 33C47 45.6667 60 52 86 52C112 52 125 45.6667 125 33Z" fill="#FF9D00"/>
<g filter="url(#filter15_i)">
<path d="M125 33C119.667 13 106.667 3 86 3C65.3333 3 52.3333 13 47 33C47 45.6667 60 52 86 52C112 52 125 45.6667 125 33Z" fill="#FF9D00"/>
</g>
<path d="M125 33C119.667 13 106.667 3 86 3C65.3333 3 52.3333 13 47 33C47 45.6667 60 52 86 52C112 52 125 45.6667 125 33Z" stroke="#152633" stroke-width="2"/>
<path d="M78.2067 1H93.7933C95.4502 1 96.7933 2.34315 96.7933 4C96.7933 4.06657 96.7911 4.13313 96.7867 4.19956L95.2416 27.3762C95.156 28.66 94.9991 29.118 94.7271 29.5772C94.455 30.0364 94.0748 30.3921 93.5985 30.633C93.1222 30.8739 92.6548 31 91.3682 31H80.6318C79.3452 31 78.8778 30.8739 78.4015 30.633C77.9252 30.3921 77.545 30.0364 77.2729 29.5772C77.0009 29.118 76.844 28.66 76.7584 27.3762L75.2133 4.19956C75.1031 2.54637 76.3539 1.11686 78.0071 1.00664C78.0735 1.00222 78.1401 1 78.2067 1Z" fill="#FFC100"/>
<g filter="url(#filter16_i)">
<path d="M78.2067 1H93.7933C95.4502 1 96.7933 2.34315 96.7933 4C96.7933 4.06657 96.7911 4.13313 96.7867 4.19956L95.2416 27.3762C95.156 28.66 94.9991 29.118 94.7271 29.5772C94.455 30.0364 94.0748 30.3921 93.5985 30.633C93.1222 30.8739 92.6548 31 91.3682 31H80.6318C79.3452 31 78.8778 30.8739 78.4015 30.633C77.9252 30.3921 77.545 30.0364 77.2729 29.5772C77.0009 29.118 76.844 28.66 76.7584 27.3762L75.2133 4.19956C75.1031 2.54637 76.3539 1.11686 78.0071 1.00664C78.0735 1.00222 78.1401 1 78.2067 1Z" fill="#FFC100"/>
</g>
<path d="M78.2067 1H93.7933C95.4502 1 96.7933 2.34315 96.7933 4C96.7933 4.06657 96.7911 4.13313 96.7867 4.19956L95.2416 27.3762C95.156 28.66 94.9991 29.118 94.7271 29.5772C94.455 30.0364 94.0748 30.3921 93.5985 30.633C93.1222 30.8739 92.6548 31 91.3682 31H80.6318C79.3452 31 78.8778 30.8739 78.4015 30.633C77.9252 30.3921 77.545 30.0364 77.2729 29.5772C77.0009 29.118 76.844 28.66 76.7584 27.3762L75.2133 4.19956C75.1031 2.54637 76.3539 1.11686 78.0071 1.00664C78.0735 1.00222 78.1401 1 78.2067 1Z" stroke="#152633" stroke-width="2"/>
<path d="M125.037 31.3465C128.894 34.1628 131 38.3876 131 44.7238C131 57.2172 113.062 61.7238 86 61.7238C58.938 61.7238 41 57.2172 41 44.7238C41 38.3876 43.1057 34.1628 46.9626 31.3465C47.8858 38.5783 65.0103 40.7238 86 40.7238C106.934 40.7238 124.023 38.5898 125.029 31.405L125.037 31.3465Z" fill="#FFC100"/>
<g filter="url(#filter17_i)">
<path d="M125.037 31.3465C128.894 34.1628 131 38.3876 131 44.7238C131 57.2172 113.062 61.7238 86 61.7238C58.938 61.7238 41 57.2172 41 44.7238C41 38.3876 43.1057 34.1628 46.9626 31.3465C47.8858 38.5783 65.0103 40.7238 86 40.7238C106.934 40.7238 124.023 38.5898 125.029 31.405L125.037 31.3465Z" fill="#FFC100"/>
</g>
<path d="M125.037 31.3465C128.894 34.1628 131 38.3876 131 44.7238C131 57.2172 113.062 61.7238 86 61.7238C58.938 61.7238 41 57.2172 41 44.7238C41 38.3876 43.1057 34.1628 46.9626 31.3465C47.8858 38.5783 65.0103 40.7238 86 40.7238C106.934 40.7238 124.023 38.5898 125.029 31.405L125.037 31.3465Z" stroke="#152633" stroke-width="2"/>
<path d="M4.55556 87C1.88889 90.3333 0.722222 93.3333 1.05556 96C1.55556 100 7.55556 100.5 8.05556 105.5C8.55556 110.5 5 112 5.5 117.5C5.83333 121.167 7.68518 123.833 11.0556 125.5" stroke="#152633" stroke-width="2" stroke-linecap="round"/>
<path d="M166.5 87C169.167 90.3333 170.333 93.3333 170 96C169.5 100 163.5 100.5 163 105.5C162.5 110.5 166.056 112 165.556 117.5C165.222 121.167 163.37 123.833 160 125.5" stroke="#152633" stroke-width="2" stroke-linecap="round"/>
<path d="M16.8287 92C14.7072 94.5974 13.779 96.9351 14.0442 99.013C14.442 102.13 19.2155 102.519 19.6133 106.416C20.0111 110.312 17.1823 111.481 17.5801 115.766C17.8453 118.623 19.3186 120.701 22 122" stroke="#152633" stroke-width="2" stroke-linecap="round"/>
<path d="M156.171 92C158.293 94.5974 159.221 96.9351 158.956 99.013C158.558 102.13 153.785 102.519 153.387 106.416C152.989 110.312 155.818 111.481 155.42 115.766C155.155 118.623 153.681 120.701 151 122" stroke="#152633" stroke-width="2" stroke-linecap="round"/>
<path d="M27.1215 98C25.5304 99.9048 24.8343 101.619 25.0331 103.143C25.3315 105.429 28.9116 105.714 29.2099 108.571C29.5083 111.429 27.3867 112.286 27.6851 115.429C27.884 117.524 28.9889 119.048 31 120" stroke="#152633" stroke-width="2" stroke-linecap="round"/>
<path d="M145.878 98C147.47 99.9048 148.166 101.619 147.967 103.143C147.669 105.429 144.088 105.714 143.79 108.571C143.492 111.429 145.613 112.286 145.315 115.429C145.116 117.524 144.011 119.048 142 120" stroke="#152633" stroke-width="2" stroke-linecap="round"/>
<defs>
<filter id="filter0_i" x="111" y="18.3459" width="20.5362" height="22.3787" filterUnits="userSpaceOnUse" color-interpolation-filters="sRGB">
<feFlood flood-opacity="0" result="BackgroundImageFix"/>
<feBlend mode="normal" in="SourceGraphic" in2="BackgroundImageFix" result="shape"/>
<feColorMatrix in="SourceAlpha" type="matrix" values="0 0 0 0 0 0 0 0 0 0 0 0 0 0 0 0 0 0 127 0" result="hardAlpha"/>
<feOffset dx="-3" dy="-3"/>
<feComposite in2="hardAlpha" operator="arithmetic" k2="-1" k3="1"/>
<feColorMatrix type="matrix" values="0 0 0 0 0 0 0 0 0 0 0 0 0 0 0 0 0 0 0.2 0"/>
<feBlend mode="normal" in2="shape" result="effect1_innerShadow"/>
</filter>
<filter id="filter1_i" x="40" y="15.3459" width="21.5362" height="25.3787" filterUnits="userSpaceOnUse" color-interpolation-filters="sRGB">
<feFlood flood-opacity="0" result="BackgroundImageFix"/>
<feBlend mode="normal" in="SourceGraphic" in2="BackgroundImageFix" result="shape"/>
<feColorMatrix in="SourceAlpha" type="matrix" values="0 0 0 0 0 0 0 0 0 0 0 0 0 0 0 0 0 0 127 0" result="hardAlpha"/>
<feOffset dx="-1" dy="-3"/>
<feGaussianBlur stdDeviation="2"/>
<feComposite in2="hardAlpha" operator="arithmetic" k2="-1" k3="1"/>
<feColorMatrix type="matrix" values="0 0 0 0 0 0 0 0 0 0 0 0 0 0 0 0 0 0 0.15 0"/>
<feBlend mode="normal" in2="shape" result="effect1_innerShadow"/>
</filter>
<filter id="filter2_i" x="91.5" y="110" width="29.4991" height="31.5526" filterUnits="userSpaceOnUse" color-interpolation-filters="sRGB">
<feFlood flood-opacity="0" result="BackgroundImageFix"/>
<feBlend mode="normal" in="SourceGraphic" in2="BackgroundImageFix" result="shape"/>
<feColorMatrix in="SourceAlpha" type="matrix" values="0 0 0 0 0 0 0 0 0 0 0 0 0 0 0 0 0 0 127 0" result="hardAlpha"/>
<feOffset dx="-3" dy="-3"/>
<feComposite in2="hardAlpha" operator="arithmetic" k2="-1" k3="1"/>
<feColorMatrix type="matrix" values="0 0 0 0 0 0 0 0 0 0 0 0 0 0 0 0 0 0 0.2 0"/>
<feBlend mode="normal" in2="shape" result="effect1_innerShadow"/>
</filter>
<filter id="filter3_i" x="51" y="110" width="29.4991" height="31.5522" filterUnits="userSpaceOnUse" color-interpolation-filters="sRGB">
<feFlood flood-opacity="0" result="BackgroundImageFix"/>
<feBlend mode="normal" in="SourceGraphic" in2="BackgroundImageFix" result="shape"/>
<feColorMatrix in="SourceAlpha" type="matrix" values="0 0 0 0 0 0 0 0 0 0 0 0 0 0 0 0 0 0 127 0" result="hardAlpha"/>
<feOffset dx="-3" dy="-3"/>
<feComposite in2="hardAlpha" operator="arithmetic" k2="-1" k3="1"/>
<feColorMatrix type="matrix" values="0 0 0 0 0 0 0 0 0 0 0 0 0 0 0 0 0 0 0.2 0"/>
<feBlend mode="normal" in2="shape" result="effect1_innerShadow"/>
</filter>
<filter id="filter4_ii" x="60.5" y="92" width="51.2704" height="38.2112" filterUnits="userSpaceOnUse" color-interpolation-filters="sRGB">
<feFlood flood-opacity="0" result="BackgroundImageFix"/>
<feBlend mode="normal" in="SourceGraphic" in2="BackgroundImageFix" result="shape"/>
<feColorMatrix in="SourceAlpha" type="matrix" values="0 0 0 0 0 0 0 0 0 0 0 0 0 0 0 0 0 0 127 0" result="hardAlpha"/>
<feOffset dx="-4" dy="-3"/>
<feComposite in2="hardAlpha" operator="arithmetic" k2="-1" k3="1"/>
<feColorMatrix type="matrix" values="0 0 0 0 0 0 0 0 0 0 0 0 0 0 0 0 0 0 0.07 0"/>
<feBlend mode="normal" in2="shape" result="effect1_innerShadow"/>
<feColorMatrix in="SourceAlpha" type="matrix" values="0 0 0 0 0 0 0 0 0 0 0 0 0 0 0 0 0 0 127 0" result="hardAlpha"/>
<feOffset dx="-1" dy="5"/>
<feComposite in2="hardAlpha" operator="arithmetic" k2="-1" k3="1"/>
<feColorMatrix type="matrix" values="0 0 0 0 0 0 0 0 0 0 0 0 0 0 0 0 0 0 0.07 0"/>
<feBlend mode="normal" in2="effect1_innerShadow" result="effect2_innerShadow"/>
</filter>
<filter id="filter5_i" x="42" y="21" width="88.2692" height="74.0769" filterUnits="userSpaceOnUse" color-interpolation-filters="sRGB">
<feFlood flood-opacity="0" result="BackgroundImageFix"/>
<feBlend mode="normal" in="SourceGraphic" in2="BackgroundImageFix" result="shape"/>
<feColorMatrix in="SourceAlpha" type="matrix" values="0 0 0 0 0 0 0 0 0 0 0 0 0 0 0 0 0 0 127 0" result="hardAlpha"/>
<feOffset dx="-3" dy="-2"/>
<feComposite in2="hardAlpha" operator="arithmetic" k2="-1" k3="1"/>
<feColorMatrix type="matrix" values="0 0 0 0 0 0 0 0 0 0 0 0 0 0 0 0 0 0 0.07 0"/>
<feBlend mode="normal" in2="shape" result="effect1_innerShadow"/>
</filter>
<filter id="filter6_i" x="73" y="90" width="27" height="5" filterUnits="userSpaceOnUse" color-interpolation-filters="sRGB">
<feFlood flood-opacity="0" result="BackgroundImageFix"/>
<feBlend mode="normal" in="SourceGraphic" in2="BackgroundImageFix" result="shape"/>
<feColorMatrix in="SourceAlpha" type="matrix" values="0 0 0 0 0 0 0 0 0 0 0 0 0 0 0 0 0 0 127 0" result="hardAlpha"/>
<feOffset dx="-10" dy="-1"/>
<feComposite in2="hardAlpha" operator="arithmetic" k2="-1" k3="1"/>
<feColorMatrix type="matrix" values="0 0 0 0 0 0 0 0 0 0 0 0 0 0 0 0 0 0 0.1 0"/>
<feBlend mode="normal" in2="shape" result="effect1_innerShadow"/>
</filter>
<filter id="filter7_i" x="79" y="141" width="15" height="23" filterUnits="userSpaceOnUse" color-interpolation-filters="sRGB">
<feFlood flood-opacity="0" result="BackgroundImageFix"/>
<feBlend mode="normal" in="SourceGraphic" in2="BackgroundImageFix" result="shape"/>
<feColorMatrix in="SourceAlpha" type="matrix" values="0 0 0 0 0 0 0 0 0 0 0 0 0 0 0 0 0 0 127 0" result="hardAlpha"/>
<feOffset dx="-2" dy="-2"/>
<feComposite in2="hardAlpha" operator="arithmetic" k2="-1" k3="1"/>
<feColorMatrix type="matrix" values="0 0 0 0 0 0 0 0 0 0 0 0 0 0 0 0 0 0 0.2 0"/>
<feBlend mode="normal" in2="shape" result="effect1_innerShadow"/>
</filter>
<filter id="filter8_i" x="84" y="115" width="5" height="35" filterUnits="userSpaceOnUse" color-interpolation-filters="sRGB">
<feFlood flood-opacity="0" result="BackgroundImageFix"/>
<feBlend mode="normal" in="SourceGraphic" in2="BackgroundImageFix" result="shape"/>
<feColorMatrix in="SourceAlpha" type="matrix" values="0 0 0 0 0 0 0 0 0 0 0 0 0 0 0 0 0 0 127 0" result="hardAlpha"/>
<feOffset dx="-2"/>
<feComposite in2="hardAlpha" operator="arithmetic" k2="-1" k3="1"/>
<feColorMatrix type="matrix" values="0 0 0 0 0 0 0 0 0 0 0 0 0 0 0 0 0 0 0.2 0"/>
<feBlend mode="normal" in2="shape" result="effect1_innerShadow"/>
</filter>
<filter id="filter9_i" x="78" y="108" width="17" height="9" filterUnits="userSpaceOnUse" color-interpolation-filters="sRGB">
<feFlood flood-opacity="0" result="BackgroundImageFix"/>
<feBlend mode="normal" in="SourceGraphic" in2="BackgroundImageFix" result="shape"/>
<feColorMatrix in="SourceAlpha" type="matrix" values="0 0 0 0 0 0 0 0 0 0 0 0 0 0 0 0 0 0 127 0" result="hardAlpha"/>
<feOffset dx="-2" dy="-2"/>
<feComposite in2="hardAlpha" operator="arithmetic" k2="-1" k3="1"/>
<feColorMatrix type="matrix" values="0 0 0 0 0 0 0 0 0 0 0 0 0 0 0 0 0 0 0.2 0"/>
<feBlend mode="normal" in2="shape" result="effect1_innerShadow"/>
</filter>
<filter id="filter10_i" x="55" y="97" width="17" height="4" filterUnits="userSpaceOnUse" color-interpolation-filters="sRGB">
<feFlood flood-opacity="0" result="BackgroundImageFix"/>
<feBlend mode="normal" in="SourceGraphic" in2="BackgroundImageFix" result="shape"/>
<feColorMatrix in="SourceAlpha" type="matrix" values="0 0 0 0 0 0 0 0 0 0 0 0 0 0 0 0 0 0 127 0" result="hardAlpha"/>
<feOffset dx="-2" dy="-2"/>
<feComposite in2="hardAlpha" operator="arithmetic" k2="-1" k3="1"/>
<feColorMatrix type="matrix" values="0 0 0 0 0 0 0 0 0 0 0 0 0 0 0 0 0 0 0.2 0"/>
<feBlend mode="normal" in2="shape" result="effect1_innerShadow"/>
</filter>
<filter id="filter11_i" x="73" y="95" width="27" height="15" filterUnits="userSpaceOnUse" color-interpolation-filters="sRGB">
<feFlood flood-opacity="0" result="BackgroundImageFix"/>
<feBlend mode="normal" in="SourceGraphic" in2="BackgroundImageFix" result="shape"/>
<feColorMatrix in="SourceAlpha" type="matrix" values="0 0 0 0 0 0 0 0 0 0 0 0 0 0 0 0 0 0 127 0" result="hardAlpha"/>
<feOffset dx="-2" dy="-2"/>
<feComposite in2="hardAlpha" operator="arithmetic" k2="-1" k3="1"/>
<feColorMatrix type="matrix" values="0 0 0 0 0 0 0 0 0 0 0 0 0 0 0 0 0 0 0.2 0"/>
<feBlend mode="normal" in2="shape" result="effect1_innerShadow"/>
</filter>
<filter id="filter12_i" x="100" y="97" width="17" height="4" filterUnits="userSpaceOnUse" color-interpolation-filters="sRGB">
<feFlood flood-opacity="0" result="BackgroundImageFix"/>
<feBlend mode="normal" in="SourceGraphic" in2="BackgroundImageFix" result="shape"/>
<feColorMatrix in="SourceAlpha" type="matrix" values="0 0 0 0 0 0 0 0 0 0 0 0 0 0 0 0 0 0 127 0" result="hardAlpha"/>
<feOffset dx="-2" dy="-2"/>
<feComposite in2="hardAlpha" operator="arithmetic" k2="-1" k3="1"/>
<feColorMatrix type="matrix" values="0 0 0 0 0 0 0 0 0 0 0 0 0 0 0 0 0 0 0.2 0"/>
<feBlend mode="normal" in2="shape" result="effect1_innerShadow"/>
</filter>
<filter id="filter13_i" x="114.275" y="88.1053" width="18.537" height="20.0233" filterUnits="userSpaceOnUse" color-interpolation-filters="sRGB">
<feFlood flood-opacity="0" result="BackgroundImageFix"/>
<feBlend mode="normal" in="SourceGraphic" in2="BackgroundImageFix" result="shape"/>
<feColorMatrix in="SourceAlpha" type="matrix" values="0 0 0 0 0 0 0 0 0 0 0 0 0 0 0 0 0 0 127 0" result="hardAlpha"/>
<feOffset dx="-3" dy="-3"/>
<feComposite in2="hardAlpha" operator="arithmetic" k2="-1" k3="1"/>
<feColorMatrix type="matrix" values="0 0 0 0 0 0 0 0 0 0 0 0 0 0 0 0 0 0 0.2 0"/>
<feBlend mode="normal" in2="shape" result="effect1_innerShadow"/>
</filter>
<filter id="filter14_i" x="39.3017" y="87.8687" width="18.7724" height="20.1546" filterUnits="userSpaceOnUse" color-interpolation-filters="sRGB">
<feFlood flood-opacity="0" result="BackgroundImageFix"/>
<feBlend mode="normal" in="SourceGraphic" in2="BackgroundImageFix" result="shape"/>
<feColorMatrix in="SourceAlpha" type="matrix" values="0 0 0 0 0 0 0 0 0 0 0 0 0 0 0 0 0 0 127 0" result="hardAlpha"/>
<feOffset dy="-3"/>
<feComposite in2="hardAlpha" operator="arithmetic" k2="-1" k3="1"/>
<feColorMatrix type="matrix" values="0 0 0 0 0 0 0 0 0 0 0 0 0 0 0 0 0 0 0.2 0"/>
<feBlend mode="normal" in2="shape" result="effect1_innerShadow"/>
</filter>
<filter id="filter15_i" x="47" y="3" width="78" height="49" filterUnits="userSpaceOnUse" color-interpolation-filters="sRGB">
<feFlood flood-opacity="0" result="BackgroundImageFix"/>
<feBlend mode="normal" in="SourceGraphic" in2="BackgroundImageFix" result="shape"/>
<feColorMatrix in="SourceAlpha" type="matrix" values="0 0 0 0 0 0 0 0 0 0 0 0 0 0 0 0 0 0 127 0" result="hardAlpha"/>
<feOffset dx="-4"/>
<feComposite in2="hardAlpha" operator="arithmetic" k2="-1" k3="1"/>
<feColorMatrix type="matrix" values="0 0 0 0 0 0 0 0 0 0 0 0 0 0 0 0 0 0 0.06 0"/>
<feBlend mode="normal" in2="shape" result="effect1_innerShadow"/>
</filter>
<filter id="filter16_i" x="75.2065" y="1" width="21.5868" height="30" filterUnits="userSpaceOnUse" color-interpolation-filters="sRGB">
<feFlood flood-opacity="0" result="BackgroundImageFix"/>
<feBlend mode="normal" in="SourceGraphic" in2="BackgroundImageFix" result="shape"/>
<feColorMatrix in="SourceAlpha" type="matrix" values="0 0 0 0 0 0 0 0 0 0 0 0 0 0 0 0 0 0 127 0" result="hardAlpha"/>
<feOffset dx="-3" dy="-3"/>
<feComposite in2="hardAlpha" operator="arithmetic" k2="-1" k3="1"/>
<feColorMatrix type="matrix" values="0 0 0 0 0 0 0 0 0 0 0 0 0 0 0 0 0 0 0.06 0"/>
<feBlend mode="normal" in2="shape" result="effect1_innerShadow"/>
</filter>
<filter id="filter17_i" x="41" y="31.3465" width="90" height="30.3773" filterUnits="userSpaceOnUse" color-interpolation-filters="sRGB">
<feFlood flood-opacity="0" result="BackgroundImageFix"/>
<feBlend mode="normal" in="SourceGraphic" in2="BackgroundImageFix" result="shape"/>
<feColorMatrix in="SourceAlpha" type="matrix" values="0 0 0 0 0 0 0 0 0 0 0 0 0 0 0 0 0 0 127 0" result="hardAlpha"/>
<feOffset dx="-4"/>
<feComposite in2="hardAlpha" operator="arithmetic" k2="-1" k3="1"/>
<feColorMatrix type="matrix" values="0 0 0 0 0 0 0 0 0 0 0 0 0 0 0 0 0 0 0.06 0"/>
<feBlend mode="normal" in2="shape" result="effect1_innerShadow"/>
</filter>
</defs>
</svg>
