<svg width="179" height="244" viewBox="0 0 179 244" fill="none" xmlns="http://www.w3.org/2000/svg">
<path fill-rule="evenodd" clip-rule="evenodd" d="M66 1H156C165.941 1 174 9.05887 174 19V181C174 190.941 165.941 199 156 199H66C56.0589 199 48 190.941 48 181V19C48 9.05887 56.0589 1 66 1Z" fill="#2D3B45" stroke="#152633" stroke-width="2"/>
<path fill-rule="evenodd" clip-rule="evenodd" d="M155.796 7C162.536 7 168 12.4397 168 19.15V181.35C168 188.06 162.536 193.5 155.796 193.5H66.2035C59.4637 193.5 54 188.06 54 181.35V19.15C54 12.4397 59.4637 7 66.2035 7C93.8122 7 120.134 7 155.796 7Z" fill="white" stroke="#152633" stroke-width="2"/>
<path fill-rule="evenodd" clip-rule="evenodd" d="M65.1278 27H156.872C158.655 27 159.302 27.1856 159.954 27.5343C160.606 27.8829 161.117 28.3945 161.466 29.0463C161.814 29.6982 162 30.3447 162 32.1278V53.8722C162 55.6553 161.814 56.3018 161.466 56.9537C161.117 57.6055 160.606 58.1171 159.954 58.4657C159.302 58.8144 158.655 59 156.872 59H65.1278C63.3447 59 62.6982 58.8144 62.0463 58.4657C61.3945 58.1171 60.8829 57.6055 60.5343 56.9537C60.1857 56.3018 60 55.6553 60 53.8722V32.1278C60 30.3447 60.1857 29.6982 60.5343 29.0463C60.8829 28.3945 61.3945 27.8829 62.0463 27.5343C62.6982 27.1856 63.3447 27 65.1278 27Z" fill="#F2F2F2"/>
<path d="M76 53C81.5228 53 86 48.5228 86 43C86 37.4772 81.5228 33 76 33C70.4772 33 66 37.4772 66 43C66 48.5228 70.4772 53 76 53Z" fill="#C7CDD1"/>
<path fill-rule="evenodd" clip-rule="evenodd" d="M91.2819 34H122.718C123.164 34 123.325 34.0464 123.488 34.1336C123.651 34.2207 123.779 34.3486 123.866 34.5116C123.954 34.6745 124 34.8362 124 35.2819V40.7181C124 41.1638 123.954 41.3255 123.866 41.4884C123.779 41.6514 123.651 41.7793 123.488 41.8664C123.325 41.9536 123.164 42 122.718 42H91.2819C90.8362 42 90.6745 41.9536 90.5116 41.8664C90.3486 41.7793 90.2207 41.6514 90.1336 41.4884C90.0464 41.3255 90 41.1638 90 40.7181V35.2819C90 34.8362 90.0464 34.6745 90.1336 34.5116C90.2207 34.3486 90.3486 34.2207 90.5116 34.1336C90.6745 34.0464 90.8362 34 91.2819 34Z" fill="#C7CDD1"/>
<path fill-rule="evenodd" clip-rule="evenodd" d="M91.2819 44H148.718C149.164 44 149.325 44.0464 149.488 44.1336C149.651 44.2207 149.779 44.3486 149.866 44.5116C149.954 44.6745 150 44.8362 150 45.2819V50.7181C150 51.1638 149.954 51.3255 149.866 51.4884C149.779 51.6514 149.651 51.7793 149.488 51.8664C149.325 51.9536 149.164 52 148.718 52H91.2819C90.8362 52 90.6745 51.9536 90.5116 51.8664C90.3486 51.7793 90.2207 51.6514 90.1336 51.4884C90.0464 51.3255 90 51.1638 90 50.7181V45.2819C90 44.8362 90.0464 44.6745 90.1336 44.5116C90.2207 44.3486 90.3486 44.2207 90.5116 44.1336C90.6745 44.0464 90.8362 44 91.2819 44Z" fill="#C7CDD1"/>
<path opacity="0.03" fill-rule="evenodd" clip-rule="evenodd" d="M55 67H140.872C142.655 67 143.302 67.1856 143.954 67.5343C144.606 67.8829 145.117 68.3945 145.466 69.0463C145.814 69.6982 146 70.3447 146 72.1278V93.8722C146 95.6553 145.814 96.3018 145.466 96.9537C145.117 97.6055 144.606 98.1171 143.954 98.4657C143.302 98.8144 142.655 99 140.872 99H55V67Z" fill="black"/>
<path fill-rule="evenodd" clip-rule="evenodd" d="M45.1278 63H136.872C138.655 63 139.302 63.1856 139.954 63.5343C140.606 63.8829 141.117 64.3945 141.466 65.0463C141.814 65.6982 142 66.3447 142 68.1278V89.8722C142 91.6553 141.814 92.3018 141.466 92.9537C141.117 93.6055 140.606 94.1171 139.954 94.4657C139.302 94.8144 138.655 95 136.872 95H45.1278C43.3447 95 42.6982 94.8144 42.0463 94.4657C41.3945 94.1171 40.8829 93.6055 40.5343 92.9537C40.1857 92.3018 40 91.6553 40 89.8722V68.1278C40 66.3447 40.1857 65.6982 40.5343 65.0463C40.8829 64.3945 41.3945 63.8829 42.0463 63.5343C42.6982 63.1856 43.3447 63 45.1278 63Z" fill="#FEE28B"/>
<path d="M56 89C61.5228 89 66 84.5228 66 79C66 73.4772 61.5228 69 56 69C50.4772 69 46 73.4772 46 79C46 84.5228 50.4772 89 56 89Z" fill="#FFC100"/>
<path fill-rule="evenodd" clip-rule="evenodd" d="M71.2819 70H102.718C103.164 70 103.325 70.0464 103.488 70.1336C103.651 70.2207 103.779 70.3486 103.866 70.5116C103.954 70.6745 104 70.8362 104 71.2819V76.7181C104 77.1638 103.954 77.3255 103.866 77.4884C103.779 77.6514 103.651 77.7793 103.488 77.8664C103.325 77.9536 103.164 78 102.718 78H71.2819C70.8362 78 70.6745 77.9536 70.5116 77.8664C70.3486 77.7793 70.2207 77.6514 70.1336 77.4884C70.0464 77.3255 70 77.1638 70 76.7181V71.2819C70 70.8362 70.0464 70.6745 70.1336 70.5116C70.2207 70.3486 70.3486 70.2207 70.5116 70.1336C70.6745 70.0464 70.8362 70 71.2819 70Z" fill="#FFC100"/>
<path fill-rule="evenodd" clip-rule="evenodd" d="M71.2819 80H128.718C129.164 80 129.325 80.0464 129.488 80.1336C129.651 80.2207 129.779 80.3486 129.866 80.5116C129.954 80.6745 130 80.8362 130 81.2819V86.7181C130 87.1638 129.954 87.3255 129.866 87.4884C129.779 87.6514 129.651 87.7793 129.488 87.8664C129.325 87.9536 129.164 88 128.718 88H71.2819C70.8362 88 70.6745 87.9536 70.5116 87.8664C70.3486 87.7793 70.2207 87.6514 70.1336 87.4884C70.0464 87.3255 70 87.1638 70 86.7181V81.2819C70 80.8362 70.0464 80.6745 70.1336 80.5116C70.2207 80.3486 70.3486 80.2207 70.5116 80.1336C70.6745 80.0464 70.8362 80 71.2819 80Z" fill="#FFC100"/>
<path fill-rule="evenodd" clip-rule="evenodd" d="M65.1278 103H156.872C158.655 103 159.302 103.186 159.954 103.534C160.606 103.883 161.117 104.394 161.466 105.046C161.814 105.698 162 106.345 162 108.128V129.872C162 131.655 161.814 132.302 161.466 132.954C161.117 133.606 160.606 134.117 159.954 134.466C159.302 134.814 158.655 135 156.872 135H65.1278C63.3447 135 62.6982 134.814 62.0463 134.466C61.3945 134.117 60.8829 133.606 60.5343 132.954C60.1857 132.302 60 131.655 60 129.872V108.128C60 106.345 60.1857 105.698 60.5343 105.046C60.8829 104.394 61.3945 103.883 62.0463 103.534C62.6982 103.186 63.3447 103 65.1278 103Z" fill="#F2F2F2"/>
<path d="M76 129C81.5228 129 86 124.523 86 119C86 113.477 81.5228 109 76 109C70.4772 109 66 113.477 66 119C66 124.523 70.4772 129 76 129Z" fill="#C7CDD1"/>
<path fill-rule="evenodd" clip-rule="evenodd" d="M91.2819 110H122.718C123.164 110 123.325 110.046 123.488 110.134C123.651 110.221 123.779 110.349 123.866 110.512C123.954 110.675 124 110.836 124 111.282V116.718C124 117.164 123.954 117.325 123.866 117.488C123.779 117.651 123.651 117.779 123.488 117.866C123.325 117.954 123.164 118 122.718 118H91.2819C90.8362 118 90.6745 117.954 90.5116 117.866C90.3486 117.779 90.2207 117.651 90.1336 117.488C90.0464 117.325 90 117.164 90 116.718V111.282C90 110.836 90.0464 110.675 90.1336 110.512C90.2207 110.349 90.3486 110.221 90.5116 110.134C90.6745 110.046 90.8362 110 91.2819 110Z" fill="#C7CDD1"/>
<path fill-rule="evenodd" clip-rule="evenodd" d="M91.2819 120H148.718C149.164 120 149.325 120.046 149.488 120.134C149.651 120.221 149.779 120.349 149.866 120.512C149.954 120.675 150 120.836 150 121.282V126.718C150 127.164 149.954 127.325 149.866 127.488C149.779 127.651 149.651 127.779 149.488 127.866C149.325 127.954 149.164 128 148.718 128H91.2819C90.8362 128 90.6745 127.954 90.5116 127.866C90.3486 127.779 90.2207 127.651 90.1336 127.488C90.0464 127.325 90 127.164 90 126.718V121.282C90 120.836 90.0464 120.675 90.1336 120.512C90.2207 120.349 90.3486 120.221 90.5116 120.134C90.6745 120.046 90.8362 120 91.2819 120Z" fill="#C7CDD1"/>
<path fill-rule="evenodd" clip-rule="evenodd" d="M65.1278 141H156.872C158.655 141 159.302 141.186 159.954 141.534C160.606 141.883 161.117 142.394 161.466 143.046C161.814 143.698 162 144.345 162 146.128V167.872C162 169.655 161.814 170.302 161.466 170.954C161.117 171.606 160.606 172.117 159.954 172.466C159.302 172.814 158.655 173 156.872 173H65.1278C63.3447 173 62.6982 172.814 62.0463 172.466C61.3945 172.117 60.8829 171.606 60.5343 170.954C60.1857 170.302 60 169.655 60 167.872V146.128C60 144.345 60.1857 143.698 60.5343 143.046C60.8829 142.394 61.3945 141.883 62.0463 141.534C62.6982 141.186 63.3447 141 65.1278 141Z" fill="#F2F2F2"/>
<path d="M76 167C81.5228 167 86 162.523 86 157C86 151.477 81.5228 147 76 147C70.4772 147 66 151.477 66 157C66 162.523 70.4772 167 76 167Z" fill="#C7CDD1"/>
<path fill-rule="evenodd" clip-rule="evenodd" d="M91.2819 148H122.718C123.164 148 123.325 148.046 123.488 148.134C123.651 148.221 123.779 148.349 123.866 148.512C123.954 148.675 124 148.836 124 149.282V154.718C124 155.164 123.954 155.325 123.866 155.488C123.779 155.651 123.651 155.779 123.488 155.866C123.325 155.954 123.164 156 122.718 156H91.2819C90.8362 156 90.6745 155.954 90.5116 155.866C90.3486 155.779 90.2207 155.651 90.1336 155.488C90.0464 155.325 90 155.164 90 154.718V149.282C90 148.836 90.0464 148.675 90.1336 148.512C90.2207 148.349 90.3486 148.221 90.5116 148.134C90.6745 148.046 90.8362 148 91.2819 148Z" fill="#C7CDD1"/>
<path fill-rule="evenodd" clip-rule="evenodd" d="M91.2819 158H148.718C149.164 158 149.325 158.046 149.488 158.134C149.651 158.221 149.779 158.349 149.866 158.512C149.954 158.675 150 158.836 150 159.282V164.718C150 165.164 149.954 165.325 149.866 165.488C149.779 165.651 149.651 165.779 149.488 165.866C149.325 165.954 149.164 166 148.718 166H91.2819C90.8362 166 90.6745 165.954 90.5116 165.866C90.3486 165.779 90.2207 165.651 90.1336 165.488C90.0464 165.325 90 165.164 90 164.718V159.282C90 158.836 90.0464 158.675 90.1336 158.512C90.2207 158.349 90.3486 158.221 90.5116 158.134C90.6745 158.046 90.8362 158 91.2819 158Z" fill="#C7CDD1"/>
<path d="M112 226.5C149.003 226.5 179 224.149 179 221.25C179 218.351 149.003 216 112 216C74.9969 216 45 218.351 45 221.25C45 224.149 74.9969 226.5 112 226.5Z" fill="black" fill-opacity="0.05"/>
<path d="M52 243.5C80.7188 243.5 104 238.911 104 233.25C104 227.589 80.7188 223 52 223C23.2812 223 0 227.589 0 233.25C0 238.911 23.2812 243.5 52 243.5Z" fill="black" fill-opacity="0.05"/>
<path fill-rule="evenodd" clip-rule="evenodd" d="M74.802 189.23L75.8747 188.912C90.9271 184.373 99.7961 178.925 100.322 172.945C100.901 166.383 92.3268 156.47 83.5143 165.53C76.8687 172.362 73.3047 182.923 71.9529 187.705C72.9225 188.197 73.874 188.705 74.802 189.23Z" fill="#2D3B45" stroke="#152633" stroke-width="2"/>
<path fill-rule="evenodd" clip-rule="evenodd" d="M30.962 181.323C31.6722 186.242 32.7116 197.339 29.4194 206.283C25.0539 218.144 13.1893 212.576 11.0485 206.346C9.05111 200.535 15.2647 191.679 27.7387 181.088C28.8001 181.191 29.8759 181.268 30.962 181.323Z" fill="#2D3B45" stroke="#152633" stroke-width="2"/>
<path fill-rule="evenodd" clip-rule="evenodd" d="M72.2588 182.588C65.4971 184.84 57.7803 186.064 49.5851 186.064C42.2804 186.064 35.5232 185.202 29.5578 183.512C27.1625 188.876 24.4492 195.749 23.855 200.502C22.1072 212.735 32.7402 223.456 51.6213 223.456C70.5025 223.456 80.3662 212.349 78.2111 200.873C76.7258 192.966 74.3316 186.992 72.2588 182.588Z" fill="white" stroke="#152633" stroke-width="2"/>
<path fill-rule="evenodd" clip-rule="evenodd" d="M47.2103 207.767C47.5116 206.954 48.2937 206.375 49.2111 206.375C50.1285 206.375 50.9107 206.954 51.212 207.767C52.0295 207.498 52.9638 207.742 53.5376 208.451C54.1185 209.168 54.1576 210.148 53.707 210.895C54.4339 211.371 54.8242 212.265 54.6174 213.161C54.4115 214.053 53.6739 214.684 52.8166 214.797C52.8973 215.656 52.4485 216.514 51.6273 216.914C50.7993 217.318 49.838 217.137 49.2111 216.533C48.5843 217.137 47.6229 217.318 46.795 216.914C45.9738 216.514 45.525 215.656 45.6057 214.797C44.7484 214.684 44.0108 214.053 43.8048 213.161C43.598 212.265 43.9884 211.371 44.7152 210.895C44.2646 210.148 44.3038 209.168 44.8847 208.451C45.4585 207.742 46.3927 207.498 47.2103 207.767Z" fill="#2D3B45" stroke="#152633" stroke-width="2"/>
<path fill-rule="evenodd" clip-rule="evenodd" d="M88.2391 228.867C85.2774 213.688 78.7343 204.63 78.3641 201.668C79.8072 211.753 71.8614 221.541 56.8235 223.369L57.1408 224.794C58.2515 230.718 60.4728 232.939 64.175 234.05C72.3198 237.011 90.0902 235.901 88.2391 228.867Z" fill="#2D3B45" stroke="#152633" stroke-width="2"/>
<path fill-rule="evenodd" clip-rule="evenodd" d="M23.6925 201.84C23.2679 204.802 16.604 213.687 13.6422 228.866C11.7911 235.9 29.5616 237.011 37.7064 234.049C41.4086 232.939 43.6299 230.717 44.7405 224.794L45.0423 223.56L45.0578 223.22C30.807 221.121 22.8451 212.125 23.6925 201.84Z" fill="#2D3B45" stroke="#152633" stroke-width="2"/>
<path fill-rule="evenodd" clip-rule="evenodd" d="M12.4694 146.929C11.1578 146.871 9.68927 146.637 8.11082 146.104C2.04106 144.054 1.75112 138.769 1.49418 137.088C1.23724 135.407 1.20213 126.332 8.4114 127.612C13.0674 128.439 16.5484 130.329 19.7594 131.889C16.409 136.444 13.9415 141.584 12.4694 146.929Z" fill="#2D3B45" stroke="#152633" stroke-width="2"/>
<path fill-rule="evenodd" clip-rule="evenodd" d="M9.7887 155.223C9.7887 175.246 26.9992 185.948 50.6591 185.948C74.3189 185.948 93.4991 173.865 93.4991 155.913C93.4991 133.605 74.3189 112.069 50.6591 112.069C26.9992 112.069 9.7887 134.164 9.7887 155.223Z" fill="white" stroke="#152633" stroke-width="2"/>
<path fill-rule="evenodd" clip-rule="evenodd" d="M82.2565 148.363C83.8301 147.71 85.5158 146.772 87.2036 145.422C93.6935 140.23 92.3955 131.577 91.9628 129.414C91.5302 127.251 88.9342 116.867 80.7137 121.626C75.4045 124.7 72.3454 128.46 69.123 131.786C74.4706 136.332 80.7137 144.086 82.2565 148.363Z" fill="#2D3B45" stroke="#152633" stroke-width="2"/>
</svg>
