<svg width="159" height="162" viewBox="0 0 159 162" fill="none" xmlns="http://www.w3.org/2000/svg">
<path d="M79 161.5C115.451 161.5 145 157.359 145 152.25C145 147.141 115.451 143 79 143C42.5492 143 13 147.141 13 152.25C13 157.359 42.5492 161.5 79 161.5Z" fill="black" fill-opacity="0.05"/>
<path d="M23.1386 134.861C-7.71285 104.01 -7.71285 53.99 23.1386 23.1386C53.99 -7.71285 104.01 -7.71285 134.861 23.1386C165.713 53.99 165.713 104.01 134.861 134.861C104.01 165.713 53.99 165.713 23.1386 134.861ZM37.2807 120.719C60.3216 143.76 97.6784 143.76 120.719 120.719C143.76 97.6784 143.76 60.3216 120.719 37.2807C97.6784 14.2398 60.3216 14.2398 37.2807 37.2807C14.2398 60.3216 14.2398 97.6784 37.2807 120.719Z" fill="#EF3E60"/>
<path d="M137.273 34.6041L147.155 51.9921L23.3606 122.349L13.4783 104.961L137.273 34.6041Z" fill="#EF3E60"/>
<path fill-rule="evenodd" clip-rule="evenodd" d="M60.307 107.081C55.6813 106.775 45.3539 105.571 37.8306 100.832C27.8539 94.5483 35.2364 84.802 41.3366 84.0569C47.0262 83.3613 53.9021 90.7489 61.1467 104.185C60.8474 105.134 60.5683 106.101 60.307 107.081Z" fill="#2D3B45" stroke="#152633" stroke-width="2"/>
<path fill-rule="evenodd" clip-rule="evenodd" d="M98.3323 94.5384C99.3078 94.26 100.27 93.9641 101.213 93.6483C114.774 100.657 122.28 107.403 121.684 113.104C121.045 119.216 111.429 126.768 104.972 116.902C100.103 109.463 98.7189 99.158 98.3323 94.5384Z" fill="#2D3B45" stroke="#152633" stroke-width="2"/>
<path fill-rule="evenodd" clip-rule="evenodd" d="M98.9319 94C92.6098 96.1053 85.3946 97.2497 77.7321 97.2497C70.9021 97.2497 64.5841 96.4438 59.0066 94.864C56.7669 99.8791 54.23 106.305 53.6744 110.75C52.0402 122.187 61.9821 132.211 79.6359 132.211C97.2898 132.211 106.512 121.827 104.497 111.096C103.109 103.703 100.87 98.1178 98.9319 94Z" fill="white"/>
<path fill-rule="evenodd" clip-rule="evenodd" d="M98.9319 94C92.6098 96.1053 85.3946 97.2497 77.7321 97.2497C70.9021 97.2497 64.5841 96.4438 59.0066 94.864C56.7669 99.8791 54.23 106.305 53.6744 110.75C52.0402 122.187 61.9821 132.211 79.6359 132.211C97.2898 132.211 106.512 121.827 104.497 111.096C103.109 103.703 100.87 98.1178 98.9319 94Z" stroke="#152633" stroke-width="2"/>
<path fill-rule="evenodd" clip-rule="evenodd" d="M113.874 137.27C111.104 123.078 104.987 114.609 104.64 111.84C105.99 121.269 98.5604 130.421 84.5 132.13L84.7967 133.463C85.8351 139.001 87.912 141.078 91.3736 142.116C98.989 144.886 115.604 143.847 113.874 137.27Z" fill="#2D3B45" stroke="#152633" stroke-width="2"/>
<path fill-rule="evenodd" clip-rule="evenodd" d="M53.5225 112C53.1255 114.77 46.8947 123.078 44.1255 137.27C42.3947 143.847 59.0101 144.885 66.6255 142.116C70.087 141.078 72.164 139.001 73.2024 133.462L73.4845 132.309L73.4991 131.99C60.1746 130.028 52.7302 121.617 53.5225 112Z" fill="#2D3B45" stroke="#152633" stroke-width="2"/>
<path fill-rule="evenodd" clip-rule="evenodd" d="M79.0962 97.0769C104.045 97.0769 124.269 84.9615 124.269 66.9615C124.269 44.5941 104.045 23 79.0962 23C54.1478 23 36 45.1538 36 66.2692C36 86.3462 54.1478 97.0769 79.0962 97.0769Z" fill="white"/>
<path fill-rule="evenodd" clip-rule="evenodd" d="M35.5225 66.3338C35.5225 86.4107 53.6703 97.1414 78.6186 97.1414C103.567 97.1414 123.792 85.0261 123.792 67.0261C123.792 44.6586 103.567 23.0645 78.6186 23.0645C53.6703 23.0645 35.5225 45.2184 35.5225 66.3338Z" stroke="#152633" stroke-width="2"/>
<path fill-rule="evenodd" clip-rule="evenodd" d="M86 78C86 79.6569 83.09 81 79.5 81C75.91 81 73 79.6569 73 78C73 76.3431 75.91 75 79.5 75C83.09 75 86 76.3431 86 78Z" fill="#152633"/>
<path fill-rule="evenodd" clip-rule="evenodd" d="M83 91C83 88.7909 81.433 87 79.5 87C77.567 87 76 88.7909 76 91H83Z" fill="#152633" stroke="#152633"/>
<path fill-rule="evenodd" clip-rule="evenodd" d="M54.5769 82.3846C63.3008 82.3846 72.6154 72.57 72.6154 61.9231C72.6154 56.2432 71.0922 50.6338 68.5574 47.097C65.8799 43.3612 62.4391 42.2937 58.4657 44.3849C57.4951 44.8958 56.4984 45.3965 55.2152 46.0237C55.0381 46.1103 52.7334 47.2295 52.0782 47.5528C43.1884 51.9386 40 55.1954 40 61.9231C40 73.2612 46.6219 82.3846 54.5769 82.3846Z" fill="#2D3B45" stroke="#152633" stroke-width="2"/>
<path fill-rule="evenodd" clip-rule="evenodd" d="M104.038 82.3846C111.994 82.3846 118.615 73.2612 118.615 61.9231C118.615 55.1954 115.427 51.9386 106.537 47.5528C105.882 47.2295 103.577 46.1103 103.4 46.0237C102.117 45.3965 101.12 44.8958 100.15 44.3849C96.1762 42.2937 92.7355 43.3612 90.058 47.097C87.5232 50.6338 86 56.2432 86 61.9231C86 72.57 95.3146 82.3846 104.038 82.3846Z" fill="#2D3B45" stroke="#152633" stroke-width="2"/>
<path fill-rule="evenodd" clip-rule="evenodd" d="M115.68 42.7247C116.939 42.2023 118.288 41.4522 119.638 40.3722C124.83 36.2183 123.792 29.2953 123.446 27.5645C123.099 25.8337 121.023 17.526 114.446 21.3337C110.198 23.7928 105.809 27.982 103.231 30.6428C108.116 33.8967 112.347 38.0332 115.68 42.7247Z" fill="#2D3B45" stroke="#152633" stroke-width="2"/>
<path fill-rule="evenodd" clip-rule="evenodd" d="M42.4327 42.7247C41.1741 42.2023 39.8251 41.4522 38.4748 40.3722C33.2825 36.2183 34.3209 29.2953 34.6671 27.5645C35.0132 25.8337 37.0902 17.526 43.6671 21.3337C47.9147 23.7928 52.304 27.982 54.8821 30.6428C49.9972 33.8967 45.7662 38.0332 42.4327 42.7247Z" fill="#2D3B45" stroke="#152633" stroke-width="2"/>
<path fill-rule="evenodd" clip-rule="evenodd" d="M98.133 65.7497C98.133 68.3728 96.76 70.4995 95.0665 70.4995C93.373 70.4995 92 68.3728 92 65.7497C92 63.1266 93.373 61 95.0665 61C96.76 61 98.133 63.1266 98.133 65.7497Z" fill="white"/>
<path fill-rule="evenodd" clip-rule="evenodd" d="M66.133 65.7497C66.133 68.3728 64.76 70.4995 63.0665 70.4995C61.373 70.4995 60 68.3728 60 65.7497C60 63.1266 61.373 61 63.0665 61C64.76 61 66.133 63.1266 66.133 65.7497Z" fill="white"/>
<path d="M14.7743 33.0199L31.0327 44.6675C14.3476 67.9576 16.845 100.198 37.3328 120.685C60.3737 143.726 97.7305 143.726 120.771 120.685C141.69 99.7665 143.812 66.6628 126.09 43.3376L142.015 31.2383C165.767 62.5004 162.927 106.814 134.914 134.828C104.062 165.679 54.0421 165.679 23.1907 134.828C-4.24535 107.392 -7.5884 64.2351 14.7743 33.0199Z" fill="#EF3E60"/>
<path d="M58.8356 95.2483C57.6076 98.0194 56.3084 101.184 55.3069 104.193L23.3606 122.349L13.4783 104.961L45.2192 86.9218C48.7076 89.9496 53.0751 92.3178 58.1278 94.0028L58.8356 95.2483Z" fill="#EF3E60"/>
<path d="M59.0066 94.864C57.5142 98.2058 55.8898 102.174 54.8076 105.765" stroke="#152633" stroke-width="2"/>
<path fill-rule="evenodd" clip-rule="evenodd" d="M34 94.5C35 97.5 39.5 100.5 44 98C47 96.3333 49.1666 94 50.5 91L42.5 85.5L38.5 88.5C34.8333 90.5 33.3333 92.5 34 94.5Z" fill="#2D3B45"/>
<path d="M33 92.5C32 97.5 39.5 101 44.5 98.5C47.8333 96.8333 50 94.1667 51 90.5" stroke="#152633" stroke-width="2"/>
<path d="M37.5 77C38.8333 80 40.7641 82.8799 43.2924 85.6398C47.5615 89.8894 53.4133 92.994 60.4009 94.899" stroke="#152633" stroke-width="2"/>
</svg>
