<svg width="201" height="210" viewBox="0 0 201 210" fill="none" xmlns="http://www.w3.org/2000/svg">
<path d="M151 210C178.614 210 201 204.627 201 198C201 191.373 178.614 186 151 186C123.386 186 101 191.373 101 198C101 204.627 123.386 210 151 210Z" fill="black" fill-opacity="0.05"/>
<path fill-rule="evenodd" clip-rule="evenodd" d="M22.3 183.7L29.5 187.9V110.65H22.3V183.7Z" fill="#456FB7" stroke="#152633" stroke-width="2"/>
<path fill-rule="evenodd" clip-rule="evenodd" d="M27.1001 188.5L34.3001 175.9V111.25H27.1001V188.5Z" fill="#61BAF0" stroke="#152633" stroke-width="2" stroke-linejoin="round"/>
<path fill-rule="evenodd" clip-rule="evenodd" d="M61 113.125H1V93.4375C1 87.1206 6.12063 82 12.4375 82H49.5625C55.8794 82 61 87.1206 61 93.4375V113.125Z" fill="#DCE5EB"/>
<path fill-rule="evenodd" clip-rule="evenodd" d="M61 113.125H1V93.4375C1 87.1206 6.12063 82 12.4375 82H49.5625C55.8794 82 61 87.1206 61 93.4375V113.125Z" stroke="#152633" stroke-width="2" stroke-linejoin="round"/>
<path fill-rule="evenodd" clip-rule="evenodd" d="M49.5625 82C50.6009 82 51.6069 82.1384 52.5632 82.3976C47.7006 83.7157 44.125 88.159 44.125 93.4375V112.141L38.125 113.125V93.4375C38.125 87.1206 43.2456 82 49.5625 82Z" fill="#456FB7"/>
<path fill-rule="evenodd" clip-rule="evenodd" d="M61 93.4375V109.375L44.125 112.14V93.4375C44.125 88.159 47.7006 83.7157 52.5618 82.3976C57.4244 83.7157 61 88.159 61 93.4375Z" fill="#61BAF0"/>
<path fill-rule="evenodd" clip-rule="evenodd" d="M61 109.375L38.125 113.125V93.4375C38.125 87.1206 43.2456 82 49.5625 82C55.8794 82 61 87.1206 61 93.4375V109.375Z" stroke="#152633" stroke-width="2" stroke-linejoin="round"/>
<path fill-rule="evenodd" clip-rule="evenodd" d="M61 109.375L38.125 113.125V128.463C38.125 136.246 45.73 141.757 53.1258 139.332C57.8234 137.791 61 133.407 61 128.463V109.375Z" fill="#DCE5EB"/>
<path fill-rule="evenodd" clip-rule="evenodd" d="M61 109.375L38.125 113.125V128.463C38.125 136.246 45.73 141.757 53.1258 139.332C57.8234 137.791 61 133.407 61 128.463V109.375Z" stroke="#152633" stroke-width="2" stroke-linejoin="round"/>
<path fill-rule="evenodd" clip-rule="evenodd" d="M29.95 95.35V90.55H10.45V103.75H17.7999V95.35H29.95Z" fill="#EF3E60" stroke="#152633" stroke-width="2" stroke-linejoin="round"/>
<path fill-rule="evenodd" clip-rule="evenodd" d="M27.1001 188.194C27.7929 176.07 40.263 164.293 45.4589 163.6C36.4527 171.913 32.4114 181.15 33.3351 191.311C37.03 184.383 41.5331 180.689 46.8444 180.227C39.6857 185.076 36.1063 190.734 36.1063 197.2" fill="url(#paint0_linear)"/>
<path fill-rule="evenodd" clip-rule="evenodd" d="M28 192.1C25 171.7 15.4 166.3 16.6 160.3C15.8 163.7 16.2 167.5 17.8 171.7C20.2 178 21.05 184.6 21.05 188.8" fill="url(#paint1_linear)"/>
<path d="M17.5806 160.496C17.5434 160.682 17.5188 160.869 17.5064 161.056C17.4186 162.384 17.9093 163.8 19.1855 166.112C19.5726 166.813 21.2296 169.665 21.205 169.622C22.131 171.236 22.8685 172.603 23.5856 174.07C24.9564 176.876 26.1103 179.795 27.0439 182.962C28.2883 178.821 30.6686 174.691 33.8279 170.964C37.7187 166.373 42.3433 163.007 45.3266 162.609C46.2947 162.48 46.8547 163.672 46.1371 164.335C38.3574 171.516 34.3996 179.345 34.2132 187.869C37.7208 182.56 41.9042 179.653 46.7578 179.231C47.7849 179.141 48.2588 180.476 47.4052 181.055C40.5014 185.731 37.1062 191.098 37.1062 197.2H35.1062C35.1062 191.875 37.3935 187.086 41.9144 182.854C39.064 184.54 36.4991 187.504 34.2175 191.782C33.75 192.658 32.4291 192.391 32.3392 191.402C31.5447 182.663 34.3083 174.586 40.5881 167.209C38.8727 168.528 37.0406 170.267 35.3536 172.257C31.3571 176.972 28.6985 182.339 28.168 187.394C28.4829 188.854 28.7565 190.371 28.9894 191.955L27.0107 192.245C26.8018 190.825 26.5595 189.461 26.2839 188.146L26.1017 188.137C26.1134 187.931 26.1284 187.725 26.1467 187.519C25.1218 182.852 23.6663 178.792 21.7886 174.948C21.0935 173.525 20.3759 172.196 19.4701 170.617C19.5024 170.673 18.0853 168.235 17.5503 167.286C17.8052 168.587 18.1996 169.94 18.7345 171.344C20.912 177.06 22.05 183.638 22.05 188.8H20.05C20.05 183.875 18.9536 177.537 16.8656 172.056C15.1985 167.68 14.7775 163.68 15.6266 160.071C15.9269 158.795 17.8377 159.211 17.5806 160.496Z" fill="#367648"/>
<path fill-rule="evenodd" clip-rule="evenodd" d="M198.167 11.4602C197.665 8.9526 194.656 -3.08622 185.125 2.43151C179.974 5.41378 174.686 10.148 170.906 13.8741C178.699 18.0239 184.313 24.7661 188.045 32.9188C189.536 32.2045 191.091 31.2653 192.649 30.0193C200.173 24.0003 198.668 13.9682 198.167 11.4602Z" fill="#2D3B45" stroke="#152633" stroke-width="2" stroke-linecap="round"/>
<path fill-rule="evenodd" clip-rule="evenodd" d="M130.811 96.0772C125.677 94.9769 121.265 93.2257 117.621 90.8445C119.31 95.6423 122.632 100.233 127.75 103.163C128.566 100.73 129.648 98.3463 130.811 96.0772Z" fill="#2D3B45" stroke="#152633" stroke-width="2"/>
<path fill-rule="evenodd" clip-rule="evenodd" d="M175.789 140.709C177.084 144.434 179.218 149.59 185.244 152.198C190.874 154.635 202.397 145.765 192.354 130.42C180.374 112.117 174.376 135.257 175.789 140.709Z" fill="#394B58"/>
<path fill-rule="evenodd" clip-rule="evenodd" d="M175.789 140.709C177.084 144.434 179.218 149.59 185.244 152.198C190.874 154.635 202.397 145.765 192.354 130.42C180.374 112.117 174.376 135.257 175.789 140.709Z" fill="#2D3B45" stroke="#152633" stroke-width="2"/>
<path fill-rule="evenodd" clip-rule="evenodd" d="M143.194 144.93C145.726 147.884 155.852 149.571 157.962 140.711C160.072 131.85 147.835 134.381 147.835 134.381L143.194 144.93Z" fill="#2D3B45" stroke="#152633" stroke-width="2"/>
<path fill-rule="evenodd" clip-rule="evenodd" d="M101 60.1199C101 84.5924 118.058 97.6726 148.468 97.6726C178.879 97.6726 193.937 83.9047 193.937 61.9638C193.937 34.6992 181.942 9.37726 151.532 9.37726C121.121 9.37726 101 34.3815 101 60.1199Z" fill="white" stroke="#152633" stroke-width="2"/>
<path fill-rule="evenodd" clip-rule="evenodd" d="M132.646 71.7233C132.646 73.9372 130.228 76.5756 125.684 76.5756C121.139 76.5756 117.878 73.5153 117.878 71.3013C117.878 69.0874 121.139 67.7148 125.684 67.7148C130.228 67.7148 132.646 69.5094 132.646 71.7233Z" fill="#152633"/>
<path fill-rule="evenodd" clip-rule="evenodd" d="M136.021 50.173C136.021 64.3481 148.341 75.7635 158.541 75.7635C168.7 75.7635 177.188 64.2816 176.965 50.173C176.556 24.1698 159.321 19.6295 154.446 19.6295C144.07 19.6295 136.021 36.4301 136.021 50.173Z" fill="#2D3B45" stroke="#152633" stroke-width="2"/>
<path fill-rule="evenodd" clip-rule="evenodd" d="M102.222 70.6955C103.765 71.3803 105.357 71.7343 106.675 71.7343C106.741 71.7343 106.807 71.7335 106.873 71.7314C110.181 71.6428 114.07 69.4365 117.543 64.2061C120.877 59.1854 122.773 53.2187 123.361 48.3145C124.629 37.7571 124.306 26.7883 119.782 21.9706C119.49 21.6601 119.176 21.3888 118.851 21.139C107.724 31.3609 101 45.9318 101 60.12C101 63.9221 101.412 67.4495 102.222 70.6955Z" fill="#2D3B45" stroke="#152633" stroke-width="2"/>
<path d="M151.732 56.407C152.261 52.6469 150.888 49.3457 148.666 49.0335C146.444 48.7212 144.215 51.5162 143.686 55.2762" stroke="#152633" stroke-width="2" stroke-linecap="round"/>
<path d="M114.962 56.7771C115.443 53.3589 114.447 50.3932 112.738 50.153C111.029 49.9128 109.254 52.4891 108.773 55.9073" stroke="#152633" stroke-width="2" stroke-linecap="round"/>
<path fill-rule="evenodd" clip-rule="evenodd" d="M111.087 27.6848C111.447 27.9725 111.806 28.2325 112.164 28.4776C116.043 23.3865 120.819 18.9012 126.314 15.389C123.619 12.7814 120.045 9.65567 116.555 7.63499C109.629 3.62529 107.442 12.3742 107.077 14.197C106.713 16.0198 105.619 23.3105 111.087 27.6848Z" fill="#2D3B45" stroke="#152633" stroke-width="2" stroke-linecap="round"/>
<path fill-rule="evenodd" clip-rule="evenodd" d="M180.747 89.6558C176.435 91.038 168.607 95.4359 163.865 96.2296C151.947 98.2254 140.905 98.152 131.45 95.9996C124.04 110.443 118.363 132.651 151.026 139.337C165.979 142.398 183.072 136.903 187.498 127.63C191.089 120.869 188.681 107.061 180.747 89.6558Z" fill="white"/>
<path fill-rule="evenodd" clip-rule="evenodd" d="M147.984 139.11C148.76 139.898 150.715 139.801 151.317 140.482C141.297 145.515 138.431 151.957 126.859 146.171C118.579 142.03 120.123 129.525 126.234 120.678C128.288 127.636 134.495 134.144 147.984 139.11Z" fill="#2D3B45" stroke="#152633" stroke-width="2"/>
<path fill-rule="evenodd" clip-rule="evenodd" d="M137.824 97.11C137.822 97.1018 137.82 97.0932 137.818 97.0851C136.694 96.9496 135.595 96.791 134.519 96.61C135.602 96.803 136.705 96.969 137.824 97.11Z" fill="#2D3B45"/>
<path fill-rule="evenodd" clip-rule="evenodd" d="M172.73 97.2507C182.013 115.394 175.505 136.209 154.039 136.209C141.798 136.209 139.041 134.333 133.5 130.667C136.698 134.879 142.45 137.481 151.026 139.337C164.301 142.21 183.073 136.903 187.498 127.63C190.241 122.465 189.48 113.185 185.432 101.333L184.122 99.5714L172.73 97.2507Z" fill="#2D3B45"/>
<path fill-rule="evenodd" clip-rule="evenodd" d="M180.747 89.6558C176.435 91.038 168.607 95.4359 163.865 96.2296C151.947 98.2254 140.905 98.152 131.45 95.9996C124.04 110.443 118.363 132.651 151.026 139.337C165.979 142.398 183.072 136.903 187.498 127.63C191.089 120.869 188.681 107.061 180.747 89.6558Z" stroke="#152633" stroke-width="2"/>
<path fill-rule="evenodd" clip-rule="evenodd" d="M167.266 80.4458C173.042 73.0035 183.015 72.5076 186.984 80.3823C190.953 88.2567 185.178 95.699 184.72 97.5561C184.262 99.4135 185.532 103.098 186.373 106.83C187.315 111.003 184.541 114.26 179.199 111.957C164.659 105.691 161.491 87.8874 167.266 80.4458Z" fill="#2D3B45" stroke="#152633" stroke-width="2"/>
<path fill-rule="evenodd" clip-rule="evenodd" d="M140.163 88.2119C139.448 89.4697 138.571 90.1212 137.557 90.1482C136.577 90.1731 135.451 89.6144 134.238 88.5296C135.935 86.8258 138.428 86.1119 141.262 86.0153C140.923 86.7748 140.555 87.525 140.163 88.2119ZM142.858 80.0697C142.799 80.1068 142.739 80.1414 142.68 80.1781C142.423 80.3368 142.165 80.4908 141.909 80.6355C141.88 80.6516 141.853 80.6667 141.825 80.6824C132.474 85.9089 123.689 82.4406 123.597 82.4022L123.102 83.6064C123.192 83.6431 123.697 83.8444 124.536 84.079C125.672 84.3967 127.426 84.7701 129.581 84.8769C131.984 88.5528 134.25 90.7039 136.34 91.2874C136.764 91.406 137.182 91.46 137.591 91.4494C139.071 91.4102 140.352 90.5136 141.296 88.8558C143.302 85.3275 144.69 80.4022 144.748 80.1942L145.232 78.4625L143.752 79.4832C143.454 79.6887 143.156 79.8832 142.858 80.0697Z" fill="#152633"/>
<path fill-rule="evenodd" clip-rule="evenodd" d="M187.498 127.63C184.139 134.666 173.487 139.523 162.01 140.121C162.231 140.84 162.477 141.569 162.771 142.315C168.808 157.642 187.385 151.604 190.636 142.315C192.508 136.967 190.779 131.276 187.768 127.075C187.682 127.264 187.593 127.451 187.498 127.63Z" fill="#2D3B45" stroke="#152633" stroke-width="2"/>
<defs>
<linearGradient id="paint0_linear" x1="35.9769" y1="185.44" x2="32.826" y2="192.056" gradientUnits="userSpaceOnUse">
<stop stop-color="#D8F8E0"/>
<stop offset="1" stop-color="white"/>
</linearGradient>
<linearGradient id="paint1_linear" x1="22.1" y1="177.36" x2="23.3142" y2="191.026" gradientUnits="userSpaceOnUse">
<stop stop-color="#D8F8E0"/>
<stop offset="1" stop-color="white"/>
</linearGradient>
</defs>
</svg>
