<svg fill="none" height="170" viewBox="0 0 205 170" width="205" xmlns="http://www.w3.org/2000/svg">
    <path
        d="M110.046 169.848C156.948 169.848 194.97 131.826 194.97 84.924C194.97 38.0218 156.948 0 110.046 0C63.1434 0 25.1216 38.0218 25.1216 84.924C25.1216 131.826 63.1434 169.848 110.046 169.848Z"
        fill="#2D3B45" />
    <path
        d="M48.5765 87.0007L37.9666 88.3794C34.0158 57.9759 43.4653 39.2622 66.3371 34.6879C83.0623 31.3428 99.933 39.4782 108.304 54.2946C117.289 70.1957 114.776 90.1096 99.8339 107.702L91.6791 100.776C103.798 86.5069 105.7 71.4352 98.9894 59.5577C92.8521 48.6953 80.54 42.7582 68.4354 45.1792C51.9041 48.4854 45.277 61.6095 48.5765 87.0007Z"
        fill="white" stroke="#152633" stroke-width="2" />
    <path clip-rule="evenodd" d="M49.0602 121.459C47.462 125.458 43.4335 134.237 37.0867 139.524C28.6704 146.534 22.1785 137.214 23.2714 131.61C24.2902 126.383 32.7913 122.429 46.7429 119.885C47.4951 120.422 48.2691 120.946 49.0602 121.459Z"
        fill="white"
        fill-rule="evenodd" stroke="#152633" stroke-width="2" />
    <path clip-rule="evenodd" d="M99.5145 95.8818C90.5306 89.7349 87.8955 98.7877 86.4359 100.922C92.0089 106.495 94.9001 117.016 86.8052 127.352C95.5162 123.471 101.723 119.68 105.425 115.977C109.841 111.561 108.498 102.029 99.5145 95.8818Z"
        fill="white"
        fill-rule="evenodd" stroke="#152633" stroke-width="2" />
    <path clip-rule="evenodd" d="M72.5623 94.6902C72.3037 93.7839 72.0288 92.8904 71.7354 92.0141C78.2468 79.4159 84.5139 72.4423 89.8101 72.9961C95.4884 73.5893 102.504 82.5227 93.3387 88.5215C86.4273 93.0453 76.854 94.331 72.5623 94.6902Z"
        fill="white"
        fill-rule="evenodd" stroke="#152633" stroke-width="2" />
    <path clip-rule="evenodd" d="M71.1545 92.5617C68.3907 98.0852 64.4118 103.564 59.3897 108.586C54.9132 113.063 50.2441 116.676 45.553 119.296C47.3721 124.051 49.921 129.925 52.47 133.202C58.8951 141.77 71.9813 141.824 83.5519 130.253C95.1226 118.682 94.3609 105.831 86.0072 100.119C80.2515 96.1838 75.1237 93.9903 71.1545 92.5617Z"
        fill="white"
        fill-rule="evenodd" />
    <path clip-rule="evenodd" d="M71.295 92.88C68.5312 98.4036 64.5522 103.883 59.5301 108.905C55.0536 113.381 50.3845 116.994 45.6934 119.614C47.5125 124.369 50.0615 130.243 52.6104 133.521C59.0355 142.088 72.1217 142.142 83.6924 130.571C95.263 119.001 94.5014 106.15 86.1476 100.437C80.392 96.5021 75.2642 94.3087 71.295 92.88Z"
        fill-rule="evenodd"
        stroke="#152633" stroke-width="2" />
    <path clip-rule="evenodd" d="M106.322 112.456C104.179 113.902 100.014 111.475 97.0195 107.036C94.0251 102.596 93.335 97.8253 95.4782 96.3797C97.6214 94.9341 101.786 97.3611 104.781 101.801C107.775 106.24 108.465 111.011 106.322 112.456Z"
        fill-rule="evenodd"
        stroke="#152633" stroke-width="2" />
    <path clip-rule="evenodd" d="M47.9217 147.475C41.7749 138.491 50.8277 135.856 52.9621 134.396C58.5351 139.969 69.0563 142.86 79.3923 134.765C75.5112 143.476 71.7195 149.683 68.0173 153.385C63.601 157.801 54.0686 156.458 47.9217 147.475Z"
        fill="white"
        fill-rule="evenodd" stroke="#152633" stroke-width="2" />
    <path clip-rule="evenodd" d="M64.4918 154.287C63.0462 156.43 58.2754 155.74 53.8359 152.745C49.3964 149.751 46.9694 145.586 48.415 143.443C49.8606 141.3 54.6314 141.99 59.0709 144.984C63.5104 147.979 65.9374 152.144 64.4918 154.287Z"
        fill-rule="evenodd"
        stroke="#152633" stroke-width="2" />
    <path d="M60.2911 109.099L61.2368 108.153L83.933 130.85L82.9873 131.795L60.2911 109.099Z" fill="#152633" />
    <path
        d="M74.949 68.908C76.2548 67.6023 74.0319 63.2625 69.9843 59.2148C65.9366 55.1671 61.5968 52.9443 60.2911 54.25C58.9854 55.5557 61.2082 59.8955 65.2559 63.9432C69.3036 67.9909 73.6433 70.2137 74.949 68.908Z"
        fill="white" stroke="#152633" stroke-width="2" />
    <path
        d="M21.9913 121.866C23.297 120.56 21.0742 116.22 17.0265 112.173C12.9788 108.125 8.63902 105.902 7.33331 107.208C6.02761 108.514 8.25042 112.853 12.2981 116.901C16.3458 120.949 20.6856 123.171 21.9913 121.866Z"
        fill="white" stroke="#152633" stroke-width="2" />
    <path clip-rule="evenodd" d="M13.5534 115.319C26.5317 128.298 44.2211 124.482 60.3031 108.4C76.3851 92.3177 80.6447 72.3945 69.009 60.7587C54.55 46.2997 28.4994 44.432 12.4174 60.514C-3.66458 76.596 -0.0962666 101.67 13.5534 115.319Z"
        fill="white"
        fill-rule="evenodd" stroke="#152633" stroke-width="2" />
    <path clip-rule="evenodd" d="M12.7406 111.669C2.57261 101.501 2.56319 80.1747 17.216 65.5218C31.8688 50.869 54.1459 49.3891 64.9169 60.16C73.5847 68.8278 58.0835 77.0837 43.4307 91.7366C28.7779 106.389 22.4086 121.337 12.7406 111.669Z"
        fill="#2D3B45"
        fill-rule="evenodd" stroke="#152633" stroke-width="2" />
    <path clip-rule="evenodd" d="M11.6011 88.7794C13.5973 90.7756 15.075 79.607 23.4494 71.2326C31.8238 62.8581 43.3299 60.9307 41.3899 58.9907C39.8972 57.498 29.2232 60.2575 20.8488 68.6319C12.4744 77.0064 10.3809 87.5592 11.6011 88.7794Z" fill="#F2F2F2"
        fill-rule="evenodd"
        opacity="0.6" />
    <path clip-rule="evenodd" d="M131.154 24.7416C130.588 22.8073 129.076 21.2952 127.142 20.7295C129.076 20.1638 130.588 18.6516 131.154 16.7173C131.72 18.6516 133.232 20.1638 135.166 20.7295C133.232 21.2952 131.72 22.8073 131.154 24.7416Z"
        fill="#FFC100"
        fill-rule="evenodd" />
    <path clip-rule="evenodd" d="M135.835 16.0486C135.646 15.4039 135.142 14.8998 134.497 14.7112C135.142 14.5227 135.646 14.0186 135.835 13.3739C136.023 14.0186 136.527 14.5227 137.172 14.7112C136.527 14.8998 136.023 15.4039 135.835 16.0486Z"
        fill="#FFC100"
        fill-rule="evenodd" />
    <path clip-rule="evenodd" d="M145.865 80.9119C145.488 79.6223 144.48 78.6142 143.19 78.2371C144.48 77.8599 145.488 76.8518 145.865 75.5623C146.242 76.8518 147.25 77.8599 148.54 78.2371C147.25 78.6142 146.242 79.6223 145.865 80.9119Z"
        fill="#FFD960"
        fill-rule="evenodd" />
    <path clip-rule="evenodd" d="M171.944 129.058C171.378 127.123 169.866 125.611 167.932 125.046C169.866 124.48 171.378 122.968 171.944 121.033C172.51 122.968 174.022 124.48 175.956 125.046C174.022 125.611 172.51 127.123 171.944 129.058Z"
        fill="#FFD960"
        fill-rule="evenodd" />
    <path clip-rule="evenodd" d="M126.473 143.769C125.719 141.19 123.703 139.174 121.123 138.419C123.703 137.665 125.719 135.649 126.473 133.07C127.227 135.649 129.243 137.665 131.823 138.419C129.243 139.174 127.227 141.19 126.473 143.769Z"
        fill="#FFD960"
        fill-rule="evenodd" />
    <path clip-rule="evenodd" d="M69.6341 160.486C69.3512 159.519 68.5952 158.763 67.628 158.48C68.5952 158.197 69.3512 157.441 69.6341 156.474C69.917 157.441 70.673 158.197 71.6402 158.48C70.673 158.763 69.917 159.519 69.6341 160.486Z"
        fill="#FFD960"
        fill-rule="evenodd" />
    <path clip-rule="evenodd" d="M115.44 153.131C115.015 151.68 113.881 150.546 112.43 150.122C113.881 149.697 115.015 148.563 115.44 147.112C115.864 148.563 116.998 149.697 118.449 150.122C116.998 150.546 115.864 151.68 115.44 153.131Z"
        fill="#FFD960"
        fill-rule="evenodd" />
    <path clip-rule="evenodd" d="M108.084 144.438C107.754 143.309 106.872 142.427 105.744 142.097C106.872 141.767 107.754 140.885 108.084 139.757C108.414 140.885 109.296 141.767 110.424 142.097C109.296 142.427 108.414 143.309 108.084 144.438Z"
        fill="#FFD960"
        fill-rule="evenodd" />
    <path clip-rule="evenodd" d="M108.084 52.1581C107.754 51.0297 106.872 50.1476 105.744 49.8176C106.872 49.4876 107.754 48.6055 108.084 47.4772C108.414 48.6055 109.296 49.4876 110.424 49.8176C109.296 50.1476 108.414 51.0297 108.084 52.1581Z"
        fill="#FFD960"
        fill-rule="evenodd" />
    <path clip-rule="evenodd" d="M58.935 22.7356C58.3693 20.8013 56.8572 19.2891 54.9229 18.7234C56.8572 18.1577 58.3693 16.6455 58.935 14.7112C59.5007 16.6455 61.0129 18.1577 62.9472 18.7234C61.0129 19.2891 59.5007 20.8013 58.935 22.7356Z"
        fill="#FFD960"
        fill-rule="evenodd" />
    <path clip-rule="evenodd" d="M177.294 48.8146C176.728 46.8803 175.216 45.3681 173.282 44.8024C175.216 44.2367 176.728 42.7246 177.294 40.7903C177.859 42.7246 179.372 44.2367 181.306 44.8024C179.372 45.3681 177.859 46.8803 177.294 48.8146Z"
        fill="#FFD960"
        fill-rule="evenodd" />
    <path clip-rule="evenodd" d="M168.601 52.8267C168.224 51.5372 167.215 50.5291 165.926 50.152C167.215 49.7748 168.224 48.7667 168.601 47.4772C168.978 48.7667 169.986 49.7748 171.275 50.152C169.986 50.5291 168.978 51.5372 168.601 52.8267Z"
        fill="#FFD960"
        fill-rule="evenodd" />
    <path clip-rule="evenodd" d="M196.686 115.015C195.554 111.147 192.53 108.122 188.661 106.991C192.53 105.859 195.554 102.835 196.686 98.9666C197.817 102.835 200.841 105.859 204.71 106.991C200.841 108.122 197.817 111.147 196.686 115.015Z"
        fill="#FFD960"
        fill-rule="evenodd" />
    <path clip-rule="evenodd" d="M187.993 119.696C187.616 118.407 186.608 117.398 185.318 117.021C186.608 116.644 187.616 115.636 187.993 114.347C188.37 115.636 189.378 116.644 190.668 117.021C189.378 117.398 188.37 118.407 187.993 119.696Z"
        fill="#FFD960"
        fill-rule="evenodd" />
    <path d="M57.8875 49.8176C54.0983 47.1429 52.2036 44.0223 52.2036 40.4559" stroke="#152633" stroke-width="2" />
    <path d="M65.5523 45.9159C63.1172 43.1675 62.234 39.7872 62.9027 35.7751" stroke="#152633" stroke-width="2" />
    <path d="M74.6049 44.4681C73.9362 42.1277 74.6049 36.1094 76.9453 33.769" stroke="#152633" stroke-width="2" />
    <path d="M84.3009 46.1398C84.9696 42.462 86.307 39.1185 88.9818 37.1125" stroke="#152633" stroke-width="2" />
    <path d="M92.6596 51.8237C92.9939 49.1489 96.6717 44.8024 100.684 44.4681" stroke="#152633" stroke-width="2" />
    <path d="M99.0122 59.1793C101.018 56.5046 105.365 54.1641 108.374 54.8328" stroke="#152633" stroke-width="2" />
    <path d="M102.021 67.8723C104.027 65.5319 111.049 65.1976 112.72 66.2006" stroke="#152633" stroke-width="2" />
    <path d="M103.024 75.5623C106.033 75.5623 110.714 76.231 113.055 78.2371" stroke="#152633" stroke-width="2" />
    <path d="M101.018 84.924C105.699 85.9271 109.377 88.2675 110.38 89.6049" stroke="#152633" stroke-width="2" />
    <path d="M97.3404 92.614C100.684 93.2827 106.368 96.9605 106.368 98.6322" stroke="#152633" stroke-width="2" />
</svg>
