<svg width="308" height="308" viewBox="0 0 308 308" fill="none" xmlns="http://www.w3.org/2000/svg">
<mask id="mask0" mask-type="alpha" maskUnits="userSpaceOnUse" x="0" y="0" width="308" height="308">
<path d="M308 154C308 68.9482 239.052 0 154 0C68.9482 0 0 68.9482 0 154C0 239.052 68.9482 308 154 308C239.052 308 308 239.052 308 154Z" fill="white"/>
</mask>
<g mask="url(#mask0)">
<path d="M308 154C308 68.9482 239.052 0 154 0C68.9482 0 0 68.9482 0 154C0 239.052 68.9482 308 154 308C239.052 308 308 239.052 308 154Z" fill="#152633"/>
<path fill-rule="evenodd" clip-rule="evenodd" d="M105 83C106 83 109 80 109 79C109 80 112 83 113 83C112 83 109 85.7574 109 87C109 85.7574 106 83 105 83Z" fill="#FEE28B"/>
<path fill-rule="evenodd" clip-rule="evenodd" d="M95 31C95.5 31 97 29.5 97 29C97 29.5 98.5 31 99 31C98.5 31 97 32.3787 97 33C97 32.3787 95.5 31 95 31Z" fill="#FEE28B"/>
<path fill-rule="evenodd" clip-rule="evenodd" d="M100 22C100.5 22 102 20.5 102 20C102 20.5 103.5 22 104 22C103.5 22 102 23.3787 102 24C102 23.3787 100.5 22 100 22Z" fill="#FEE28B"/>
<path fill-rule="evenodd" clip-rule="evenodd" d="M50 74C51 74 54 71 54 70C54 71 57 74 58 74C57 74 54 76.7574 54 78C54 76.7574 51 74 50 74Z" fill="#FEE28B"/>
<path fill-rule="evenodd" clip-rule="evenodd" d="M38 92.5C38.625 92.5 40.5 90.625 40.5 90C40.5 90.625 42.375 92.5 43 92.5C42.375 92.5 40.5 94.2233 40.5 95C40.5 94.2233 38.625 92.5 38 92.5Z" fill="#FEE28B"/>
<path fill-rule="evenodd" clip-rule="evenodd" d="M8 121.5C8.375 121.5 9.5 120.375 9.5 120C9.5 120.375 10.625 121.5 11 121.5C10.625 121.5 9.5 122.534 9.5 123C9.5 122.534 8.375 121.5 8 121.5Z" fill="#FEE28B"/>
<path fill-rule="evenodd" clip-rule="evenodd" d="M68 144C69 144 72 141 72 140C72 141 75 144 76 144C75 144 72 146.757 72 148C72 146.757 69 144 68 144Z" fill="#FEE28B"/>
<path fill-rule="evenodd" clip-rule="evenodd" d="M146 11.5C146.625 11.5 148.5 9.625 148.5 9C148.5 9.625 150.375 11.5 151 11.5C150.375 11.5 148.5 13.2233 148.5 14C148.5 13.2233 146.625 11.5 146 11.5Z" fill="#FEE28B"/>
<path fill-rule="evenodd" clip-rule="evenodd" d="M116 173C116.75 173 119 170.75 119 170C119 170.75 121.25 173 122 173C121.25 173 119 175.068 119 176C119 175.068 116.75 173 116 173Z" fill="#FEE28B"/>
<path fill-rule="evenodd" clip-rule="evenodd" d="M138 112.5C138.625 112.5 140.5 110.625 140.5 110C140.5 110.625 142.375 112.5 143 112.5C142.375 112.5 140.5 114.223 140.5 115C140.5 114.223 138.625 112.5 138 112.5Z" fill="#FEE28B"/>
<path fill-rule="evenodd" clip-rule="evenodd" d="M188 54C189 54 192 51 192 50C192 51 195 54 196 54C195 54 192 56.7574 192 58C192 56.7574 189 54 188 54Z" fill="#FEE28B"/>
<path fill-rule="evenodd" clip-rule="evenodd" d="M208 33C208.75 33 211 30.75 211 30C211 30.75 213.25 33 214 33C213.25 33 211 35.068 211 36C211 35.068 208.75 33 208 33Z" fill="#FEE28B"/>
<path fill-rule="evenodd" clip-rule="evenodd" d="M208 53C208.5 53 210 51.5 210 51C210 51.5 211.5 53 212 53C211.5 53 210 54.3787 210 55C210 54.3787 208.5 53 208 53Z" fill="#FEE28B"/>
<path fill-rule="evenodd" clip-rule="evenodd" d="M228 103C228.5 103 230 101.5 230 101C230 101.5 231.5 103 232 103C231.5 103 230 104.379 230 105C230 104.379 228.5 103 228 103Z" fill="#FEE28B"/>
<path fill-rule="evenodd" clip-rule="evenodd" d="M278 115C279 115 282 112 282 111C282 112 285 115 286 115C285 115 282 117.757 282 119C282 117.757 279 115 278 115Z" fill="#FEE28B"/>
<path fill-rule="evenodd" clip-rule="evenodd" d="M268 83.5C268.625 83.5 270.5 81.625 270.5 81C270.5 81.625 272.375 83.5 273 83.5C272.375 83.5 270.5 85.2233 270.5 86C270.5 85.2233 268.625 83.5 268 83.5Z" fill="#FEE28B"/>
<path fill-rule="evenodd" clip-rule="evenodd" d="M294 14.5C294.875 14.5 297.5 11.875 297.5 11C297.5 11.875 300.125 14.5 301 14.5C300.125 14.5 297.5 16.9127 297.5 18C297.5 16.9127 294.875 14.5 294 14.5Z" fill="#FEE28B"/>
<path fill-rule="evenodd" clip-rule="evenodd" d="M0 199.5C35.6667 223.833 75.6667 231.333 120 222C202.953 204.536 237 132 308 132V296C308 302.627 302.627 308 296 308H12C5.37258 308 0 302.627 0 296V199.5Z" fill="#017F2C"/>
<path fill-rule="evenodd" clip-rule="evenodd" d="M0 200.5C35.6667 224.833 75.6667 232.333 120 223C202.953 205.536 237 133 308 133V297C308 303.627 302.627 309 296 309H295.958C295.972 309 295.986 309 296 309C302.627 308.977 307.981 303.585 307.957 296.958L307.5 167.5C236.5 167.5 203.953 212.036 121 229.5C76.6667 238.833 36.3333 230.5 0 204.5V200.5Z" fill="#01892F"/>
<path d="M57.0954 97.3848C79.1868 97.3848 97.0954 79.4762 97.0954 57.3848C97.0954 35.2934 79.1868 17.3848 57.0954 17.3848C35.004 17.3848 17.0954 35.2934 17.0954 57.3848C17.0954 79.4762 35.004 97.3848 57.0954 97.3848Z" fill="#F6F6F6" stroke="#152633" stroke-width="2"/>
<path d="M77.5 62C82.1944 62 86 58.1944 86 53.5C86 48.8056 82.1944 45 77.5 45C72.8056 45 69 48.8056 69 53.5C69 58.1944 72.8056 62 77.5 62Z" fill="#EBEBEB"/>
<path d="M71.5 70C72.8807 70 74 68.8807 74 67.5C74 66.1193 72.8807 65 71.5 65C70.1193 65 69 66.1193 69 67.5C69 68.8807 70.1193 70 71.5 70Z" fill="#EBEBEB"/>
<path d="M84.5 74C86.9853 74 89 71.9853 89 69.5C89 67.0147 86.9853 65 84.5 65C82.0147 65 80 67.0147 80 69.5C80 71.9853 82.0147 74 84.5 74Z" fill="#EBEBEB"/>
<path d="M45 94C48.3137 94 51 91.3137 51 88C51 84.6863 48.3137 82 45 82C41.6863 82 39 84.6863 39 88C39 91.3137 41.6863 94 45 94Z" fill="#EBEBEB"/>
<path d="M42.5 62C44.433 62 46 60.433 46 58.5C46 56.567 44.433 55 42.5 55C40.567 55 39 56.567 39 58.5C39 60.433 40.567 62 42.5 62Z" fill="#EBEBEB"/>
<path fill-rule="evenodd" clip-rule="evenodd" d="M257.5 54C270.461 54 281.328 62.9666 284.236 75.035C284.653 75.0118 285.075 75 285.5 75C297.759 75 307.729 84.8048 307.995 97.0005L208.271 97.0007C208.093 95.8599 208 94.6908 208 93.5C208 81.0736 218.074 71 230.5 71C231.023 71 231.542 71.0178 232.056 71.0529C236.167 61.0461 246.01 54 257.5 54Z" fill="#243644" stroke="#152633" stroke-width="2"/>
<path fill-rule="evenodd" clip-rule="evenodd" d="M257.5 54C270.461 54 281.328 62.9666 284.236 75.035C284.653 75.0118 285.075 75 285.5 75C297.759 75 307.729 84.8048 307.995 97.0005L208.271 97.0007C208.093 95.8599 208 94.6908 208 93.5C208 93.3331 208.002 93.1666 208.005 93.0005L284.965 93.0004C282.257 83.4261 274.494 75.9744 264.741 73.7113C263.63 65.6513 259.027 58.706 252.507 54.4521C254.126 54.1551 255.795 54 257.5 54Z" fill="#1E2D39"/>
<path fill-rule="evenodd" clip-rule="evenodd" d="M257.5 54C270.461 54 281.328 62.9666 284.236 75.035C284.653 75.0118 285.075 75 285.5 75C297.759 75 307.729 84.8048 307.995 97.0005L208.271 97.0007C208.093 95.8599 208 94.6908 208 93.5C208 81.0736 218.074 71 230.5 71C231.023 71 231.542 71.0178 232.056 71.0529C236.167 61.0461 246.01 54 257.5 54Z" stroke="#152633" stroke-width="2"/>
<path fill-rule="evenodd" clip-rule="evenodd" d="M100.666 29C111.485 29 120.521 36.6372 122.677 46.8149C124.95 44.4621 128.137 43 131.666 43C137.354 43 142.155 46.7999 143.669 51.9999L64 52.0003C65.8065 47.3201 70.3483 44 75.6656 44C76.9182 44 78.1278 44.1842 79.2687 44.5271C82.202 35.5139 90.6731 29 100.666 29Z" fill="#243644" stroke="#152633" stroke-width="2"/>
<path fill-rule="evenodd" clip-rule="evenodd" d="M100.666 29C111.485 29 120.521 36.6372 122.677 46.8149C124.95 44.4621 128.137 43 131.666 43C137.354 43 142.155 46.7999 143.669 51.9999L64 52.0003C64.4172 50.9195 64.9802 49.9113 65.6649 48.9997L110.16 49.0005C110.164 48.8341 110.166 48.6673 110.166 48.5C110.166 40.2074 105.68 32.9627 99.0018 29.0602C99.5508 29.0204 100.106 29 100.666 29Z" fill="#1E2D39"/>
<path fill-rule="evenodd" clip-rule="evenodd" d="M100.666 29C111.485 29 120.521 36.6372 122.677 46.8149C124.95 44.4621 128.137 43 131.666 43C137.354 43 142.155 46.7999 143.669 51.9999L64 52.0003C65.8065 47.3201 70.3483 44 75.6656 44C76.9182 44 78.1278 44.1842 79.2687 44.5271C82.202 35.5139 90.6731 29 100.666 29Z" stroke="#152633" stroke-width="2"/>
<path fill-rule="evenodd" clip-rule="evenodd" d="M20.5 144C29.6384 144 37.5043 147.753 41.0272 153.144C42.654 152.414 44.5185 152 46.5 152C52.8513 152 58 156.253 58 161.5C58 162.011 57.9512 162.512 57.8574 163L-15 163C-15 158.582 -11.4183 155 -7 155C-4.97084 155 -3.11813 155.755 -1.70779 157C0.0253057 149.629 9.30843 144 20.5 144Z" fill="#243644" stroke="#152633" stroke-width="2"/>
<path fill-rule="evenodd" clip-rule="evenodd" d="M41.0272 153.144C42.654 152.414 44.5185 152 46.5 152C52.8513 152 58 156.253 58 161.5C58 162.01 57.9512 162.512 57.8574 163L-15 163C-15 161.939 -14.7935 160.926 -14.4185 160L35.4238 160.001C35.8008 158.876 36 157.704 36 156.5C36 151.967 33.1755 147.889 28.6729 145.054C34.1694 146.531 38.6158 149.454 41.0272 153.144Z" fill="#1E2D39"/>
<path fill-rule="evenodd" clip-rule="evenodd" d="M20.5 144C29.6384 144 37.5043 147.753 41.0272 153.144C42.654 152.414 44.5185 152 46.5 152C52.8513 152 58 156.253 58 161.5C58 162.011 57.9513 162.512 57.8574 163L-15 163C-15 158.582 -11.4183 155 -7 155C-4.97084 155 -3.11813 155.755 -1.70779 157C0.0253059 149.629 9.30843 144 20.5 144Z" stroke="#152633" stroke-width="2"/>
<path d="M157 276C186.271 276 210 271.971 210 267C210 262.029 186.271 258 157 258C127.729 258 104 262.029 104 267C104 271.971 127.729 276 157 276Z" fill="black" fill-opacity="0.05"/>
<path d="M132.236 206.125C133.303 206.116 134.381 206.08 135.467 206.022C136.687 210.839 138.881 221.767 136.542 231.006C133.44 243.259 121.058 238.961 118.278 232.989C115.684 227.419 120.938 217.962 132.236 206.125Z" fill="#273540"/>
<g filter="url(#filter0_i)">
<path d="M132.236 206.125C133.303 206.116 134.381 206.08 135.467 206.022C136.687 210.839 138.881 221.767 136.542 231.006C133.44 243.259 121.058 238.961 118.278 232.989C115.684 227.419 120.938 217.962 132.236 206.125Z" fill="black"/>
</g>
<path d="M132.236 206.125C133.303 206.116 134.381 206.08 135.467 206.022C136.687 210.839 138.881 221.767 136.542 231.006C133.44 243.259 121.058 238.961 118.278 232.989C115.684 227.419 120.938 217.962 132.236 206.125Z" fill="#273540" stroke="#152633" stroke-width="2"/>
<path d="M178.339 213.208C171.195 215.586 163.043 216.879 154.386 216.879C146.669 216.879 143.477 213.298 137.175 211.513C130.961 216.879 127.831 227.111 127.204 232.133C125.357 245.055 136.59 256.381 156.537 256.381C176.483 256.381 186.904 244.648 184.627 232.524C183.058 224.171 180.528 217.86 178.339 213.208Z" fill="#F1F1F1"/>
<g filter="url(#filter1_ii)">
<path d="M178.339 213.208C171.195 215.586 163.043 216.879 154.386 216.879C146.669 216.879 143.477 213.298 137.175 211.513C130.961 216.879 127.831 227.111 127.204 232.133C125.357 245.055 136.59 256.381 156.537 256.381C176.483 256.381 186.904 244.648 184.627 232.524C183.058 224.171 180.528 217.86 178.339 213.208Z" fill="#F1F1F1"/>
</g>
<path d="M178.339 213.208C171.195 215.586 163.043 216.879 154.386 216.879C146.669 216.879 143.477 213.298 137.175 211.513C130.961 216.879 127.831 227.111 127.204 232.133C125.357 245.055 136.59 256.381 156.537 256.381C176.483 256.381 186.904 244.648 184.627 232.524C183.058 224.171 180.528 217.86 178.339 213.208Z" stroke="#152633" stroke-width="2"/>
<path d="M184.653 233.545C186.177 244.2 177.919 254.358 162.032 256.29L162.368 257.795C163.541 264.053 165.888 266.4 169.799 267.573C178.403 270.702 197.176 269.529 195.221 262.098C193.135 251.407 189.612 241.89 184.653 233.545Z" fill="#273540"/>
<g filter="url(#filter2_i)">
<path d="M184.653 233.545C186.177 244.2 177.919 254.358 162.032 256.29L162.368 257.795C163.541 264.053 165.888 266.4 169.799 267.573C178.403 270.702 197.176 269.529 195.221 262.098C193.135 251.407 189.612 241.89 184.653 233.545Z" fill="#273540"/>
</g>
<path d="M184.653 233.545C186.177 244.2 177.919 254.358 162.032 256.29L162.368 257.795C163.541 264.053 165.888 266.4 169.799 267.573C178.403 270.702 197.176 269.529 195.221 262.098C193.135 251.407 189.612 241.89 184.653 233.545Z" stroke="#152633" stroke-width="2"/>
<path fill-rule="evenodd" clip-rule="evenodd" d="M195.221 262.098C192.092 246.062 185.18 236.493 184.788 233.365C186.313 244.019 177.919 254.358 162.032 256.29L162.368 257.795C163.541 264.053 165.888 266.4 169.799 267.573C178.403 270.702 197.176 269.529 195.221 262.098Z" stroke="#152633" stroke-width="2"/>
<path d="M127.032 233.545L126.974 233.546C126.583 236.675 119.543 246.062 116.414 262.097C114.459 269.528 133.232 270.702 141.837 267.573C145.748 266.399 148.094 264.053 149.268 257.795L149.586 256.491L149.603 256.132C134.548 253.914 126.137 244.411 127.032 233.545Z" fill="#273540"/>
<g filter="url(#filter3_i)">
<path d="M127.032 233.545L126.974 233.546C126.583 236.675 119.543 246.062 116.414 262.097C114.459 269.528 133.232 270.702 141.837 267.573C145.748 266.399 148.094 264.053 149.268 257.795L149.586 256.491L149.603 256.132C134.548 253.914 126.137 244.411 127.032 233.545Z" fill="#273540"/>
</g>
<path d="M127.032 233.545L126.974 233.546C126.583 236.675 119.543 246.062 116.414 262.097C114.459 269.528 133.232 270.702 141.837 267.573C145.748 266.399 148.094 264.053 149.268 257.795L149.586 256.491L149.603 256.132C134.548 253.914 126.137 244.411 127.032 233.545Z" stroke="#152633" stroke-width="2"/>
<path d="M183.528 211.125C194.826 222.962 200.08 232.419 197.486 237.989C194.706 243.961 182.324 248.259 179.223 236.006C176.884 226.767 179.077 215.839 180.298 211.022C181.384 211.08 182.462 211.116 183.528 211.125Z" fill="#273540"/>
<g filter="url(#filter4_i)">
<path d="M183.528 211.125C194.826 222.962 200.08 232.419 197.486 237.989C194.706 243.961 182.324 248.259 179.223 236.006C176.884 226.767 179.077 215.839 180.298 211.022C181.384 211.08 182.462 211.116 183.528 211.125Z" fill="#273540"/>
</g>
<path d="M183.528 211.125C194.826 222.962 200.08 232.419 197.486 237.989C194.706 243.961 182.324 248.259 179.223 236.006C176.884 226.767 179.077 215.839 180.298 211.022C181.384 211.08 182.462 211.116 183.528 211.125Z" stroke="#152633" stroke-width="2"/>
<path fill-rule="evenodd" clip-rule="evenodd" d="M127.032 233.545C126.583 236.675 119.543 246.062 116.414 262.097C114.459 269.528 133.232 270.702 141.837 267.573C145.748 266.399 148.094 264.053 149.268 257.795L149.586 256.491L149.603 256.132C134.548 253.914 126.137 244.411 127.032 233.545Z" stroke="#152633" stroke-width="2"/>
<path d="M109.415 173.544C113.894 149.365 139.375 127.846 167.944 133.138C196.513 138.431 215.604 169.25 208.476 192.382C201.875 213.805 180.798 223.258 152.229 217.965C123.66 212.672 105.155 196.535 109.415 173.544Z" fill="#F1F1F1"/>
<g filter="url(#filter5_i)">
<path d="M109.415 173.544C113.894 149.365 139.375 127.846 167.944 133.138C196.513 138.431 215.604 169.25 208.476 192.382C201.875 213.805 180.798 223.258 152.229 217.965C123.66 212.672 105.155 196.535 109.415 173.544Z" fill="#F1F1F1"/>
</g>
<path d="M109.415 173.544C113.894 149.365 139.375 127.846 167.944 133.138C196.513 138.431 215.604 169.25 208.476 192.382C201.875 213.805 180.798 223.258 152.229 217.965C123.66 212.672 105.155 196.535 109.415 173.544Z" stroke="#152633" stroke-width="2"/>
<path fill-rule="evenodd" clip-rule="evenodd" d="M160.179 201.372C159.685 200.383 159.382 201.505 158.825 203.099C157.97 205.205 156.777 206.621 154.056 207.316C153.873 207.355 153.685 207.391 153.491 207.423C153.495 207.43 153.498 207.436 153.501 207.443C152.301 207.69 150.827 207.815 149 207.815H153.491C154.165 208.681 154.971 209.549 155.791 210.263C156.156 210.59 156.558 210.917 156.995 211.245C158.211 212.157 158.92 212.271 159.397 211.828C159.736 211.697 160.006 211.409 160.179 210.926C160.47 210.117 160.634 208.898 160.696 207.591C161.048 205.05 160.735 202.484 160.179 201.372Z" fill="#152633" stroke="#152633" stroke-linecap="round" stroke-linejoin="round"/>
<path fill-rule="evenodd" clip-rule="evenodd" d="M152.466 195.665C152.08 197.744 148.307 198.789 144.038 197.998C139.77 197.208 136.621 194.881 137.006 192.801C137.392 190.721 141.165 189.676 145.434 190.467C149.703 191.258 152.851 193.585 152.466 195.665Z" fill="#152633"/>
<path fill-rule="evenodd" clip-rule="evenodd" d="M176.952 205.128L176.952 205.128C186.164 206.835 195.757 197.722 198.177 184.659C199.296 178.618 198.001 171.137 194.703 164.69C191.444 158.318 186.833 154.054 182.464 153.245C173.687 151.619 163.047 163.952 160.505 177.679C158.23 189.959 166.871 203.261 176.952 205.128Z" fill="#273540" stroke="#152633" stroke-width="2"/>
<path fill-rule="evenodd" clip-rule="evenodd" d="M169.038 176.666C171.363 176.425 173.555 179.191 173.935 182.845C174.314 186.499 172.736 189.656 170.411 189.898C168.086 190.139 165.893 187.373 165.514 183.719C165.135 180.065 166.712 176.907 169.038 176.666Z" fill="#F1F1F1"/>
<path fill-rule="evenodd" clip-rule="evenodd" d="M135.447 183.825C139.072 180.082 141.952 175.08 143.442 170.306C146.913 159.193 147.624 150.205 144.778 145.773C143.822 144.284 142.416 143.366 140.545 143.019C131.912 141.42 117.597 154.786 115.369 166.814C113.955 174.443 114.976 179.489 118.581 184.584C120.059 186.674 122.643 188.313 124.828 188.718C124.877 188.727 124.928 188.736 124.988 188.745C128.043 189.227 131.765 187.627 135.447 183.825Z" fill="#273540" stroke="#152633" stroke-width="2"/>
<path fill-rule="evenodd" clip-rule="evenodd" d="M129.01 173.79C130.373 171.106 132.863 169.633 134.571 170.5C136.279 171.368 136.559 174.247 135.196 176.931C133.833 179.615 131.344 181.089 129.636 180.221C127.927 179.354 127.648 176.475 129.01 173.79Z" fill="#F1F1F1"/>
<path d="M206.214 163.514C203.392 157.435 199.424 151.8 194.521 147.037C198.037 144.537 203.952 140.671 209.338 138.757C217.677 135.792 218.293 145.746 218.322 147.801C218.351 149.856 218.072 158.005 211.245 161.66C209.47 162.61 207.766 163.183 206.214 163.514Z" fill="#273540"/>
<g filter="url(#filter6_i)">
<path d="M206.214 163.514C203.392 157.435 199.424 151.8 194.521 147.037C198.037 144.537 203.952 140.671 209.338 138.757C217.677 135.792 218.293 145.746 218.322 147.801C218.351 149.856 218.072 158.005 211.245 161.66C209.47 162.61 207.766 163.183 206.214 163.514Z" fill="#273540"/>
</g>
<path d="M206.214 163.514C203.392 157.435 199.424 151.8 194.521 147.037C198.037 144.537 203.952 140.671 209.338 138.757C217.677 135.792 218.293 145.746 218.322 147.801C218.351 149.856 218.072 158.005 211.245 161.66C209.47 162.61 207.766 163.183 206.214 163.514Z" stroke="#152633" stroke-width="2"/>
<path d="M125.52 141.731C121.145 136.67 123.441 130.011 124.101 128.362C124.76 126.714 128.338 118.875 134.146 123.848C137.853 127.021 141.384 131.886 143.458 134.997C137.671 136.997 132.336 140.034 127.673 143.816C126.949 143.233 126.223 142.544 125.52 141.731Z" fill="#273540"/>
<g filter="url(#filter7_i)">
<path d="M125.52 141.731C121.145 136.67 123.441 130.011 124.101 128.362C124.76 126.714 128.338 118.875 134.146 123.848C137.853 127.021 141.384 131.886 143.458 134.997C137.671 136.997 132.336 140.034 127.673 143.816C126.949 143.233 126.223 142.544 125.52 141.731Z" fill="#273540"/>
</g>
<path d="M125.52 141.731C121.145 136.67 123.441 130.011 124.101 128.362C124.76 126.714 128.338 118.875 134.146 123.848C137.853 127.021 141.384 131.886 143.458 134.997C137.671 136.997 132.336 140.034 127.673 143.816C126.949 143.233 126.223 142.544 125.52 141.731Z" stroke="#152633" stroke-width="2"/>
<path d="M306 154C306 70.0527 237.947 2 154 2C70.0527 2 2 70.0527 2 154C2 237.947 70.0527 306 154 306C237.947 306 306 237.947 306 154Z" stroke="#152633" stroke-width="4"/>
</g>
<defs>
<filter id="filter0_i" x="113.626" y="202.022" width="23.9486" height="36.8371" filterUnits="userSpaceOnUse" color-interpolation-filters="sRGB">
<feFlood flood-opacity="0" result="BackgroundImageFix"/>
<feBlend mode="normal" in="SourceGraphic" in2="BackgroundImageFix" result="shape"/>
<feColorMatrix in="SourceAlpha" type="matrix" values="0 0 0 0 0 0 0 0 0 0 0 0 0 0 0 0 0 0 127 0" result="hardAlpha"/>
<feOffset dx="-7" dy="-4"/>
<feGaussianBlur stdDeviation="2"/>
<feComposite in2="hardAlpha" operator="arithmetic" k2="-1" k3="1"/>
<feColorMatrix type="matrix" values="0 0 0 0 0 0 0 0 0 0 0 0 0 0 0 0 0 0 0.2 0"/>
<feBlend mode="normal" in2="shape" result="effect1_innerShadow"/>
</filter>
<filter id="filter1_ii" x="127.006" y="211.513" width="57.9289" height="44.8685" filterUnits="userSpaceOnUse" color-interpolation-filters="sRGB">
<feFlood flood-opacity="0" result="BackgroundImageFix"/>
<feBlend mode="normal" in="SourceGraphic" in2="BackgroundImageFix" result="shape"/>
<feColorMatrix in="SourceAlpha" type="matrix" values="0 0 0 0 0 0 0 0 0 0 0 0 0 0 0 0 0 0 127 0" result="hardAlpha"/>
<feOffset dx="-4" dy="-3"/>
<feComposite in2="hardAlpha" operator="arithmetic" k2="-1" k3="1"/>
<feColorMatrix type="matrix" values="0 0 0 0 0 0 0 0 0 0 0 0 0 0 0 0 0 0 0.1 0"/>
<feBlend mode="normal" in2="shape" result="effect1_innerShadow"/>
<feColorMatrix in="SourceAlpha" type="matrix" values="0 0 0 0 0 0 0 0 0 0 0 0 0 0 0 0 0 0 127 0" result="hardAlpha"/>
<feOffset dx="-1" dy="5"/>
<feComposite in2="hardAlpha" operator="arithmetic" k2="-1" k3="1"/>
<feColorMatrix type="matrix" values="0 0 0 0 0 0 0 0 0 0 0 0 0 0 0 0 0 0 0.1 0"/>
<feBlend mode="normal" in2="effect1_innerShadow" result="effect2_innerShadow"/>
</filter>
<filter id="filter2_i" x="162.032" y="233.545" width="33.3301" height="35.6503" filterUnits="userSpaceOnUse" color-interpolation-filters="sRGB">
<feFlood flood-opacity="0" result="BackgroundImageFix"/>
<feBlend mode="normal" in="SourceGraphic" in2="BackgroundImageFix" result="shape"/>
<feColorMatrix in="SourceAlpha" type="matrix" values="0 0 0 0 0 0 0 0 0 0 0 0 0 0 0 0 0 0 127 0" result="hardAlpha"/>
<feOffset dx="-2" dy="-2"/>
<feComposite in2="hardAlpha" operator="arithmetic" k2="-1" k3="1"/>
<feColorMatrix type="matrix" values="0 0 0 0 0 0 0 0 0 0 0 0 0 0 0 0 0 0 0.2 0"/>
<feBlend mode="normal" in2="shape" result="effect1_innerShadow"/>
</filter>
<filter id="filter3_i" x="116.273" y="233.545" width="33.3301" height="35.6499" filterUnits="userSpaceOnUse" color-interpolation-filters="sRGB">
<feFlood flood-opacity="0" result="BackgroundImageFix"/>
<feBlend mode="normal" in="SourceGraphic" in2="BackgroundImageFix" result="shape"/>
<feColorMatrix in="SourceAlpha" type="matrix" values="0 0 0 0 0 0 0 0 0 0 0 0 0 0 0 0 0 0 127 0" result="hardAlpha"/>
<feOffset dx="-2" dy="-2"/>
<feComposite in2="hardAlpha" operator="arithmetic" k2="-1" k3="1"/>
<feColorMatrix type="matrix" values="0 0 0 0 0 0 0 0 0 0 0 0 0 0 0 0 0 0 0.2 0"/>
<feBlend mode="normal" in2="shape" result="effect1_innerShadow"/>
</filter>
<filter id="filter4_i" x="178.189" y="211.022" width="19.9486" height="32.8371" filterUnits="userSpaceOnUse" color-interpolation-filters="sRGB">
<feFlood flood-opacity="0" result="BackgroundImageFix"/>
<feBlend mode="normal" in="SourceGraphic" in2="BackgroundImageFix" result="shape"/>
<feColorMatrix in="SourceAlpha" type="matrix" values="0 0 0 0 0 0 0 0 0 0 0 0 0 0 0 0 0 0 127 0" result="hardAlpha"/>
<feOffset dx="-2" dy="-2"/>
<feComposite in2="hardAlpha" operator="arithmetic" k2="-1" k3="1"/>
<feColorMatrix type="matrix" values="0 0 0 0 0 0 0 0 0 0 0 0 0 0 0 0 0 0 0.2 0"/>
<feBlend mode="normal" in2="shape" result="effect1_innerShadow"/>
</filter>
<filter id="filter5_i" x="108.806" y="132.33" width="101.168" height="87.0768" filterUnits="userSpaceOnUse" color-interpolation-filters="sRGB">
<feFlood flood-opacity="0" result="BackgroundImageFix"/>
<feBlend mode="normal" in="SourceGraphic" in2="BackgroundImageFix" result="shape"/>
<feColorMatrix in="SourceAlpha" type="matrix" values="0 0 0 0 0 0 0 0 0 0 0 0 0 0 0 0 0 0 127 0" result="hardAlpha"/>
<feOffset dx="-4" dy="-3"/>
<feComposite in2="hardAlpha" operator="arithmetic" k2="-1" k3="1"/>
<feColorMatrix type="matrix" values="0 0 0 0 0 0 0 0 0 0 0 0 0 0 0 0 0 0 0.1 0"/>
<feBlend mode="normal" in2="shape" result="effect1_innerShadow"/>
</filter>
<filter id="filter6_i" x="194.521" y="138.209" width="23.8029" height="25.3044" filterUnits="userSpaceOnUse" color-interpolation-filters="sRGB">
<feFlood flood-opacity="0" result="BackgroundImageFix"/>
<feBlend mode="normal" in="SourceGraphic" in2="BackgroundImageFix" result="shape"/>
<feColorMatrix in="SourceAlpha" type="matrix" values="0 0 0 0 0 0 0 0 0 0 0 0 0 0 0 0 0 0 127 0" result="hardAlpha"/>
<feOffset dx="-2" dy="-2"/>
<feComposite in2="hardAlpha" operator="arithmetic" k2="-1" k3="1"/>
<feColorMatrix type="matrix" values="0 0 0 0 0 0 0 0 0 0 0 0 0 0 0 0 0 0 0.2 0"/>
<feBlend mode="normal" in2="shape" result="effect1_innerShadow"/>
</filter>
<filter id="filter7_i" x="122.908" y="122.218" width="20.5494" height="21.5982" filterUnits="userSpaceOnUse" color-interpolation-filters="sRGB">
<feFlood flood-opacity="0" result="BackgroundImageFix"/>
<feBlend mode="normal" in="SourceGraphic" in2="BackgroundImageFix" result="shape"/>
<feColorMatrix in="SourceAlpha" type="matrix" values="0 0 0 0 0 0 0 0 0 0 0 0 0 0 0 0 0 0 127 0" result="hardAlpha"/>
<feOffset dx="-2" dy="-2"/>
<feComposite in2="hardAlpha" operator="arithmetic" k2="-1" k3="1"/>
<feColorMatrix type="matrix" values="0 0 0 0 0 0 0 0 0 0 0 0 0 0 0 0 0 0 0.2 0"/>
<feBlend mode="normal" in2="shape" result="effect1_innerShadow"/>
</filter>
</defs>
</svg>
