<svg height="153px" viewBox="0 0 191 153" width="191px" xmlns="http://www.w3.org/2000/svg">
    <ellipse cx="137" cy="144" fill="#F5F5F5" id="shadow" rx="39" ry="7" />
    <path d="M157.5,76.5 C168,78.5 178,85 185.5,85 C193,85 183.30088,106 169.5,101 C155.69912,96 152.5,85.5 148.5,79"
        fill="#2D3B45" id="Path-161" stroke="#152633" stroke-width="2" />
    <path
        d="M97.5,79 L114.5,78 C122.166667,87.3333333 122.166667,91.6666667 114.5,91 C106.833333,90.3333333 101.166667,89.8333333 97.5,89.5 L97.5,79 Z"
        fill="#2D3B45" id="Path-163" stroke="#152633" stroke-width="2" />
    <path
        d="M106.5,131.5 C101.384054,123.179749 101.932267,114.237677 104,108.73334 C105.378489,105.063782 109.2451,105.063782 115.599834,108.73334 C126.714661,116.961222 133.053542,124.006723 134.616477,129.869842 C136.96088,138.66452 128.530208,145.723937 124.900902,142.725245 C121.271596,139.726552 111.615946,139.820251 106.5,131.5 Z"
        fill="#2D3B45" id="Path-123" stroke="#152633" stroke-width="2" />
    <path
        d="M156,105 C157.349308,114.429577 149.060423,122.420577 135,124.130231 L135.296654,125.462577 C136.335115,131.001038 138.038462,140.961538 141.5,142 C148.5,144.5 159.5,144.5 160,141.116423 C161,130.652526 159.666667,118.613718 156,105 Z"
        fill="#2D3B45" id="Fill-43" stroke="#152633" stroke-width="2" />
    <path
        d="M153.110939,82 C145.998516,84.3684712 137.881381,85.6559038 129.261112,85.6559038 C121.577405,85.6559038 114.469655,84.7493269 108.194881,82.972 C105.675314,88.6139615 102.821232,95.8432115 102.196208,100.843404 C100.357742,113.710332 111.542362,124.987635 131.402939,124.987635 C151.263516,124.987635 161.638915,113.304942 159.372083,101.232827 C157.809718,92.9159183 155.291319,86.6325769 153.110939,82 Z"
        fill="#FFFFFF" id="Stroke-41" stroke="#152633" stroke-width="2" />
    <ellipse cx="55" cy="141.5" fill="#F5F5F5" id="shadow" rx="55" ry="10.5" />
    <path
        d="M11.6666667,92.1666667 C11.6666667,73.2969377 30.4929396,58 55,58 C79.5070604,58 98.3333333,73.2969377 98.3333333,92.1666667"
        fill="#925B31" id="Combined-Shape" stroke="#152633" stroke-linejoin="round" stroke-width="2" />
    <path
        d="M81.6309258,92.1666667 C81.8073476,93.1171202 81.8965517,94.0912284 81.8965517,95.0833333 C81.8965517,105.438672 65.72829,113.833333 55,113.833333 C44.27171,113.833333 28.1034483,105.438672 28.1034483,95.0833333 C28.1034483,94.0912284 28.1926524,93.1171202 28.3690742,92.1666667 L11.6666667,92.1666667 C11.6666667,73.2969377 27.234476,59.25 55,59.25 C82.765524,59.25 98.3333333,73.2969377 98.3333333,92.1666667 L81.6309258,92.1666667 Z M81.6309258,92.1666667 C79.9659016,83.1965274 70.5323067,76.3333333 55,76.3333333 C39.4676933,76.3333333 30.0340984,83.1965274 28.3690742,92.1666667 L81.6309258,92.1666667 Z"
        fill="#724421" id="Combined-Shape" />
    <path d="M21.25,80.5 C32.3611111,83.5555556 35.1388889,88.4166667 29.5833333,95.0833333" id="Path-7" opacity="0.5"
        stroke="#DFB271" stroke-width="2" />
    <path d="M29.1666667,77.1666667 C50,78.5555556 55.6944444,84.1111111 46.25,93.8333333" id="Path-6" opacity="0.5"
        stroke="#DFB271" stroke-width="2" />
    <path
        d="M28.75,77.5833333 C45.8333333,66.75 51.6666667,71.3333333 59.1666667,78.8333333 C66.6666667,86.3333333 90,84.25 90,74.25"
        id="Path-5" opacity="0.5" stroke="#DFB271" stroke-width="2" />
    <path
        d="M87.1264368,92.1666667 C87.1264368,80.2004971 74.5697513,70.5 55,70.5 C35.4302487,70.5 22.8735632,80.2004971 22.8735632,92.1666667 L11.6666667,92.1666667 C11.6666667,73.2969377 29.3124214,58 55,58 C80.6875786,58 98.3333333,73.2969377 98.3333333,92.1666667 L87.1264368,92.1666667 Z"
        fill="#FFD960" id="Combined-Shape" stroke="#152633" stroke-width="2" />
    <path
        d="M16.4133186,92.1666667 L93.5866814,92.1666667 C96.9003899,92.1666667 99.5866814,94.8529582 99.5866814,98.1666667 C99.5866814,98.2998153 99.5822493,98.432927 99.5733924,98.5657807 L97.0400591,136.565781 C96.8299399,139.717568 94.2121314,142.166667 91.0533481,142.166667 L18.9466519,142.166667 C15.7878686,142.166667 13.1700601,139.717568 12.9599409,136.565781 L10.4266076,98.5657807 C10.206183,95.2594116 12.7078353,92.4003803 16.0142045,92.1799557 C16.1470582,92.1710988 16.2801699,92.1666667 16.4133186,92.1666667 Z"
        fill="#925B31" id="Rectangle-11" stroke="#152633" stroke-linejoin="round" stroke-width="2" />
    <path
        d="M13.3333333,102.166667 L95.8333333,102.166667 L95.8333333,109.666667 L66.25,109.666667 C64.3055556,111.888889 60.5555556,113 55,113 C49.4444444,113 45.5555556,111.888889 43.3333333,109.666667 L13.3333333,109.666667 L13.3333333,102.166667 Z"
        fill="#724421" id="Combined-Shape" />
    <path
        d="M25,101.75 C29.1666667,102.305556 32.3611111,104.527778 34.5833333,108.416667 C37.9166667,114.25 45,120.5 59.5833333,105.083333"
        id="Path-4" opacity="0.5" stroke="#DFB271" stroke-width="2" />
    <path
        d="M91.6666667,101.07159 C74.5072464,96.9049229 70.2809276,116.753805 52.4782609,120.654923 C33.4637681,124.82159 29.9853605,109.439802 11.6666667,117.32159"
        id="Oval-3" opacity="0.5" stroke="#DFB271" stroke-width="2" />
    <path
        d="M94.4746986,112.944164 C72.8627426,117.282386 85.4465391,138.063286 67.5,131.333333 C47.5,123.833333 36.2353605,124.701545 17.9166667,132.583333"
        id="Oval-3" opacity="0.5" stroke="#DFB271" stroke-width="2" />
    <path
        d="M12.0833333,127.166667 C15.9953503,127.166667 29.5833333,124.92809 29.5833333,122.166667 C29.5833333,119.405243 15.9953503,117.166667 12.0833333,117.166667"
        id="Oval-2" opacity="0.5" stroke="#DFB271" stroke-width="2" />
    <path
        d="M21.9429148,125.522945 C22.1265982,125.507749 22.3123941,125.5 22.5,125.5 C26.1818983,125.5 29.1666667,128.484768 29.1666667,132.166667 C29.1666667,132.448884 29.1491306,132.727005 29.1150885,133 L80.8849115,133 C80.8508694,132.727005 80.8333333,132.448884 80.8333333,132.166667 C80.8333333,128.484768 83.8181017,125.5 87.5,125.5 C87.8812903,125.5 88.2551045,125.532009 88.6189018,125.593488 L86.0138409,94.3327576 C85.9221114,93.2320036 86.7400874,92.2653047 87.8408415,92.1735752 C87.8960855,92.1689715 87.951497,92.1666667 88.0069324,92.1666667 L97.8622271,92.1666667 C98.9667966,92.1666667 99.8622271,93.0620972 99.8622271,94.1666667 C99.8622271,94.2110495 99.8607498,94.2554201 99.8577975,94.2997047 L96.7911308,140.299705 C96.7210911,141.3503 95.8484882,142.166667 94.7955605,142.166667 L15.2044395,142.166667 C14.1515118,142.166667 13.2789089,141.3503 13.2088692,140.299705 L10.1422025,94.2997047 C10.0687277,93.1975816 10.9026118,92.2445712 12.0047348,92.1710964 C12.0490194,92.168144 12.09339,92.1666667 12.1377729,92.1666667 L22.0288938,92.1666667 C23.1334633,92.1666667 24.0288938,93.0620972 24.0288938,94.1666667 C24.0288938,94.2110495 24.0274164,94.2554201 24.0244641,94.2997047 L21.9429148,125.522945 Z"
        fill="#FFD960" id="Combined-Shape" stroke="#152633" stroke-width="2" />
    <path
        d="M12,92.1666667 L98,92.1666667 C99.1045695,92.1666667 100,93.0620972 100,94.1666667 L100,102.666667 C100,103.771236 99.1045695,104.666667 98,104.666667 L12,104.666667 C10.8954305,104.666667 10,103.771236 10,102.666667 L10,94.1666667 C10,93.0620972 10.8954305,92.1666667 12,92.1666667 Z"
        fill="#FFD960" id="Rectangle-11" stroke="#152633" stroke-width="2" />
    <path
        d="M52.9166667,87.1666667 L57.0833333,87.1666667 C63.2965368,87.1666667 68.3333333,92.2034632 68.3333333,98.4166667 C68.3333333,104.62987 63.2965368,109.666667 57.0833333,109.666667 L52.9166667,109.666667 C46.7034632,109.666667 41.6666667,104.62987 41.6666667,98.4166667 C41.6666667,92.2034632 46.7034632,87.1666667 52.9166667,87.1666667 Z"
        fill="#FFD960" id="Rectangle-12" stroke="#152633" stroke-width="2" />
    <circle cx="63.75" cy="98.4166667" fill="#152633" id="Oval-5" r="1.25" />
    <circle cx="46.25" cy="98.4166667" fill="#152633" id="Oval-5" r="1.25" />
    <path
        d="M53.5931643,100.189452 C52.4552938,99.6589734 51.6666667,98.5049169 51.6666667,97.1666667 C51.6666667,95.3257175 53.1590508,93.8333333 55,93.8333333 C56.8409492,93.8333333 58.3333333,95.3257175 58.3333333,97.1666667 C58.3333333,98.5049169 57.5447062,99.6589734 56.4068357,100.189452 L57.1137956,102.545985 C57.2724935,103.074978 56.9723101,103.632462 56.4433172,103.79116 C56.3500972,103.819126 56.2532939,103.833333 56.1559693,103.833333 L53.8440307,103.833333 C53.2917459,103.833333 52.8440307,103.385618 52.8440307,102.833333 C52.8440307,102.736009 52.8582384,102.639205 52.8862044,102.545985 L53.5931643,100.189452 Z"
        fill="#152633" id="Combined-Shape" />
    <path
        d="M81.6858956,51.307889 C81.6858956,73.5401537 101.781946,85.422916 129.408602,85.422916 C157.035257,85.422916 179.431198,72.0068941 179.431198,52.0745188 C179.431198,27.3058593 157.035257,3.39352523 129.408602,3.39352523 C101.781946,3.39352523 81.6858956,27.9256795 81.6858956,51.307889 Z"
        fill="#FFFFFF" id="Stroke-19" stroke="#152633" stroke-width="2" />
    <path
        d="M137.47487,73.9664635 C135.854066,74.8373451 133.482748,75.3377243 130.938292,75.3377243 C128.500481,75.3377243 126.219756,74.8784363 124.605884,74.0722341 C124.111816,73.8254246 123.911373,73.2248245 124.158183,72.7307561 C124.404992,72.2366878 125.005592,72.0362449 125.49966,72.2830544 C126.813346,72.9392999 128.791835,73.3377243 130.938292,73.3377243 C133.174082,73.3377243 135.224918,72.9049709 136.528238,72.2046783 C137.014741,71.9432729 137.621041,72.1257511 137.882447,72.6122546 C138.143852,73.0987582 137.961374,73.7050581 137.47487,73.9664635 Z"
        fill="#152633" id="Oval-11" />
    <path
        d="M138.033187,64.5322534 C138.033187,66.5435067 134.686848,68.173745 130.558547,68.173745 C126.430245,68.173745 123.083906,66.5435067 123.083906,64.5322534 C123.083906,62.521 126.430245,60.8907617 130.558547,60.8907617 C134.686848,60.8907617 138.033187,62.521 138.033187,64.5322534"
        fill="#152633" id="Fill-21" />
    <path
        d="M154.13249,19.7259683 C145.679285,19.7259683 137.883319,33.0741337 137.883319,46.3246418 C137.883319,58.1725871 148.244645,69.0901662 157.965639,69.0901662 C166.842779,69.0901662 174.21481,58.9331679 174.21481,46.3246418 C174.21481,40.4955189 171.712164,33.7357549 167.518856,28.2878381 C163.376661,22.906113 158.339673,19.7259683 154.13249,19.7259683 Z"
        fill="#2D3B45" id="Fill-25" stroke="#152633" stroke-width="2" />
    <path
        d="M102.768216,69.0903196 C112.489211,69.0903196 122.850536,58.1727404 122.850536,46.3247951 C122.850536,33.0740374 115.054646,19.7261216 106.601365,19.7261216 C102.393958,19.7261216 97.3570033,22.9061458 93.2149611,28.2880406 C89.0214719,33.7357095 86.5190447,40.4950544 86.5190447,46.3247951 C86.5190447,58.9333212 93.8910761,69.0903196 102.768216,69.0903196 Z"
        fill="#2D3B45" id="Fill-27" stroke="#152633" stroke-width="2" />
    <path
        d="M170.448749,25.1642405 C171.842866,24.5858183 173.336261,23.7551749 174.831572,22.5592324 C180.581296,17.9594535 179.431351,10.2931553 179.048036,8.37658073 C178.664721,6.46000618 176.364832,-2.73955166 169.081848,1.47691235 C164.378191,4.19998147 159.517758,8.83885851 156.662829,11.7854002 C162.072552,15.3885604 166.75781,19.9691735 170.448749,25.1642405 Z"
        fill="#2D3B45" id="Stroke-31" stroke="#152633" stroke-width="2" />
    <path
        d="M89.3379729,25.1642405 C87.9442398,24.5858183 86.4504616,23.7551749 84.9551502,22.5592324 C79.2054265,17.9594535 80.3553713,10.2931553 80.7386862,8.37658073 C81.1220011,6.46000618 83.4218905,-2.73955166 90.7048738,1.47691235 C95.4085311,4.19998147 100.268964,8.83885851 103.123894,11.7854002 C97.7145536,15.3885604 93.0292954,19.9691735 89.3379729,25.1642405 Z"
        fill="#2D3B45" id="Stroke-35" stroke="#152633" stroke-width="2" />
    <path
        d="M151.449209,52.0745188 C151.449209,55.2498995 150.076175,57.8242424 148.38269,57.8242424 C146.689205,57.8242424 145.316171,55.2498995 145.316171,52.0745188 C145.316171,48.8991381 146.689205,46.3247951 148.38269,46.3247951 C150.076175,46.3247951 151.449209,48.8991381 151.449209,52.0745188"
        fill="#FFFFFF" id="Fill-37" />
    <path
        d="M115.417608,52.0745188 C115.417608,55.2498995 114.044574,57.8242424 112.351088,57.8242424 C110.657603,57.8242424 109.284569,55.2498995 109.284569,52.0745188 C109.284569,48.8991381 110.657603,46.3247951 112.351088,46.3247951 C114.044574,46.3247951 115.417608,48.8991381 115.417608,52.0745188"
        fill="#FFFFFF" id="Fill-39" />
    <path
        d="M97.0184164,77.7934834 C91.5210717,78.4779028 86.4087423,82.2249489 87.5,89.5 C89,99.5 94,106.5 105,106.5 C118,106.5 118,81.5 101.711643,85.5"
        fill="#2D3B45" id="Path-160" stroke="#152633" stroke-width="2" />
    <path
        d="M184,120 L184,123 L190,123 L190,127 L180,127 L180,102.713519 C175.881909,101.505928 173,96.6323861 173,91 C173,84.4937027 176.845592,79 182,79 C187.154408,79 191,84.4937027 191,91 C191,96.6323861 188.118091,101.505928 184,102.713519 L184,116 L190,116 L190,120 L184,120 Z M182,99 C184.577578,99 187,95.5393977 187,91 C187,86.4606023 184.577578,83 182,83 C179.422422,83 177,86.4606023 177,91 C177,95.5393977 179.422422,99 182,99 Z"
        fill="#F9C95B" id="Combined-Shape" />
    <path
        d="M183.850817,84.9040177 C184.412879,84.9666589 184.962851,85 185.5,85 C189.991061,85 188.315013,92.5299938 183.284062,97.4983625"
        fill="#2D3B45" id="Path-161" stroke="#152633" stroke-width="2" />
</svg>