<svg fill="none" height="225" viewBox="0 0 198 225" width="198" xmlns="http://www.w3.org/2000/svg">
    <path clip-rule="evenodd" d="M1 1H197V117H1V1Z" fill="#FFD960" fill-rule="evenodd" stroke="#152633"
        stroke-width="2" />
    <path clip-rule="evenodd" d="M9.56388 7H188.436C189.328 7 189.651 7.09283 189.977 7.26713C190.303 7.44144 190.559 7.69723 190.733 8.02315C190.907 8.34908 191 8.67237 191 9.56388V108.436C191 109.328 190.907 109.651 190.733 109.977C190.559 110.303 190.303 110.559 189.977 110.733C189.651 110.907 189.328 111 188.436 111H9.56388C8.67237 111 8.34908 110.907 8.02315 110.733C7.69723 110.559 7.44144 110.303 7.26713 109.977C7.09283 109.651 7 109.328 7 108.436V9.56388C7 8.67237 7.09283 8.34908 7.26713 8.02315C7.44144 7.69723 7.69723 7.44144 8.02315 7.26713C8.34908 7.09283 8.67237 7 9.56388 7Z"
        fill="white"
        fill-rule="evenodd" stroke="#152633" stroke-width="2" />
    <path clip-rule="evenodd" d="M133.99 21.7578L181.734 32.7804L177.01 53.2422L129.266 42.2196L133.99 21.7578Z"
        fill="white" fill-rule="evenodd" stroke="#152633"
        stroke-width="2" />
    <path clip-rule="evenodd" d="M173.621 34.353L178.067 35.3794L177.054 39.764L172.609 38.7377L173.621 34.353Z"
        fill="white" fill-rule="evenodd" stroke="#152633"
        stroke-width="2" />
    <path clip-rule="evenodd" d="M138.665 25.7141L138.75 20.567L138.665 25.7141Z" fill-rule="evenodd" stroke="#152633"
        stroke-linecap="round" stroke-width="2" />
    <path clip-rule="evenodd" d="M137.5 22.7321C138.696 23.4224 140.225 23.0127 140.915 21.817C141.605 20.6213 141.196 19.0923 140 18.4019C138.804 17.7116 137.275 18.1213 136.585 19.317C135.895 20.5127 136.304 22.0417 137.5 22.7321Z"
        fill="white"
        fill-rule="evenodd" stroke="#152633" stroke-width="2" />
    <path clip-rule="evenodd" d="M134 101H150.5L152 102L153 101H158V115L156 118L158 121L157 122L158 123V125H150L142.5 122L140.5 123L138 124L135 121.5V119L134 117V104.5L135 103L134 101Z"
        fill="white"
        fill-rule="evenodd" stroke="#152633" stroke-width="2" />
    <path clip-rule="evenodd" d="M138.286 103.165L140.933 98.75L138.286 103.165Z" fill-rule="evenodd" stroke="#152633"
        stroke-linecap="round" stroke-width="2" />
    <path clip-rule="evenodd" d="M138.768 100C139.458 101.196 140.987 101.605 142.183 100.915C143.379 100.225 143.788 98.6957 143.098 97.5C142.408 96.3043 140.879 95.8946 139.683 96.5849C138.487 97.2753 138.078 98.8043 138.768 100Z"
        fill="white"
        fill-rule="evenodd" stroke="#152633" stroke-width="2" />
    <path clip-rule="evenodd" d="M35.0158 27.5457L42 33L44.4919 38.5607L44.0347 40.3045L45.6314 41.87L44.3915 44.4122L46.9337 45.6521L49.5382 53.2162L48.2983 55.7584L50.0578 57.7966L49.7634 60.0132L51.6856 62.5242L52.9567 63.1442L55.0729 69.29L53.833 71.8322L24.0491 82.0876L20.5844 81.9055L20.2099 79.9649L18.492 79.7706L16.1126 79.0035L12.2058 67.6572L13.2829 64.6423L10.7408 63.4024L11.0352 61.1858L8.95015 58.202L2.276 38.8189L35.0158 27.5457Z"
        fill="white"
        fill-rule="evenodd" stroke="#152633" stroke-width="2" />
    <path d="M35 27.5L36.5 34.5L42.5 33" stroke="#152633" stroke-width="2" />
    <path d="M138 114H143H148" stroke="#152633" stroke-width="2" />
    <path d="M138 110H144H150" stroke="#152633" stroke-width="2" />
    <path d="M138 106H141.5H145" stroke="#152633" stroke-width="2" />
    <path d="M138 118H145H152" stroke="#152633" stroke-width="2" />
    <path d="M143 122H146H149" stroke="#152633" stroke-width="2" />
    <path d="M11 49.5L18.5 47" stroke="#152633" stroke-width="2" />
    <path d="M13 56L20.5 53.5L25 52.5L28.5 50.5L34 49" stroke="#152633" stroke-width="2" />
    <path d="M15 60L21.5 58.5L30.5 54.5L38.5 53" stroke="#152633" stroke-width="2" />
    <path d="M17 65L24.5 62.5L32 60L43.5 56.5" stroke="#152633" stroke-width="2" />
    <path d="M19 70L25 69L34.5 64.5L40 63" stroke="#152633" stroke-width="2" />
    <path d="M22 76L29.5 73.5" stroke="#152633" stroke-width="2" />
    <path d="M29 36L26.5 31.5" stroke="#152633" stroke-linecap="round" stroke-width="2" />
    <path
        d="M26.5 34C27.8807 34 29 32.8807 29 31.5C29 30.1193 27.8807 29 26.5 29C25.1193 29 24 30.1193 24 31.5C24 32.8807 25.1193 34 26.5 34Z"
        fill="white" stroke="#152633" stroke-width="2" />
    <path d="M136.5 27L144 29.5" stroke="#152633" stroke-width="2" />
    <path d="M149 35L162.5 37.5" stroke="#152633" stroke-width="2" />
    <path d="M149 38L159.5 40.5" stroke="#152633" stroke-width="2" />
    <path d="M148 41L157.5 43.5" stroke="#152633" stroke-width="2" />
    <path
        d="M70 224.5C98.7188 224.5 122 219.911 122 214.25C122 208.589 98.7188 204 70 204C41.2812 204 18 208.589 18 214.25C18 219.911 41.2812 224.5 70 224.5Z"
        fill="black" fill-opacity="0.05" />
    <path clip-rule="evenodd" d="M94.5278 162.125C105.826 173.962 111.08 183.419 108.486 188.989C105.706 194.961 93.3244 199.259 90.2227 187.006C87.8836 177.767 90.0772 166.839 91.2976 162.022C92.3835 162.08 93.4615 162.116 94.5278 162.125Z"
        fill="#2D3B45"
        fill-rule="evenodd" stroke="#152633" stroke-width="2" />
    <path clip-rule="evenodd" d="M48.962 162.323C49.6722 167.242 50.7116 178.339 47.4194 187.283C43.0539 199.145 31.1893 193.576 29.0485 187.346C27.0511 181.535 33.2647 172.679 45.7387 162.088C46.8001 162.191 47.8759 162.268 48.962 162.323Z"
        fill="#2D3B45"
        fill-rule="evenodd" stroke="#152633" stroke-width="2" />
    <path clip-rule="evenodd" d="M90.2588 163.588C83.4971 165.84 75.7803 167.064 67.5851 167.064C60.2804 167.064 53.5232 166.202 47.5578 164.512C45.1625 169.876 42.4492 176.749 41.855 181.502C40.1072 193.735 50.7402 204.456 69.6213 204.456C88.5025 204.456 98.3662 193.349 96.2111 181.873C94.7258 173.966 92.3316 167.992 90.2588 163.588Z"
        fill="white"
        fill-rule="evenodd" stroke="#152633" stroke-width="2" />
    <path clip-rule="evenodd" d="M65.2102 188.767C65.5115 187.954 66.2937 187.375 67.2111 187.375C68.1285 187.375 68.9107 187.954 69.212 188.767C70.0295 188.498 70.9638 188.742 71.5376 189.451C72.1185 190.168 72.1576 191.148 71.707 191.895C72.4339 192.371 72.8242 193.265 72.6174 194.161C72.4114 195.053 71.6738 195.684 70.8165 195.797C70.8973 196.656 70.4484 197.514 69.6272 197.914C68.7993 198.318 67.838 198.137 67.2111 197.533C66.5842 198.137 65.6229 198.318 64.795 197.914C63.9738 197.514 63.525 196.656 63.6057 195.797C62.7484 195.684 62.0108 195.053 61.8048 194.161C61.598 193.265 61.9883 192.371 62.7152 191.895C62.2646 191.148 62.3037 190.168 62.8846 189.451C63.4584 188.742 64.3927 188.498 65.2102 188.767Z"
        fill="#2D3B45"
        fill-rule="evenodd" stroke="#152633" stroke-width="2" />
    <path clip-rule="evenodd" d="M106.239 209.867C103.277 194.688 96.7343 185.63 96.364 182.668C97.8072 192.753 89.8614 202.541 74.8235 204.369L75.1408 205.794C76.2515 211.718 78.4728 213.939 82.1749 215.05C90.3197 218.011 108.09 216.901 106.239 209.867Z"
        fill="#2D3B45"
        fill-rule="evenodd" stroke="#152633" stroke-width="2" />
    <path clip-rule="evenodd" d="M41.6926 182.84C41.2679 185.802 34.604 194.687 31.6422 209.866C29.7912 216.9 47.5616 218.011 55.7064 215.049C59.4086 213.939 61.6299 211.717 62.7406 205.794L63.0423 204.56L63.0578 204.22C48.807 202.121 40.8451 193.125 41.6926 182.84Z"
        fill="#2D3B45"
        fill-rule="evenodd" stroke="#152633" stroke-width="2" />
    <path clip-rule="evenodd" d="M30.4694 127.93C29.1578 127.871 27.6893 127.637 26.1108 127.104C20.0411 125.054 19.7511 119.769 19.4942 118.088C19.2372 116.407 19.2021 107.332 26.4114 108.612C31.0674 109.439 34.5484 111.329 37.7594 112.889C34.409 117.444 31.9415 122.584 30.4694 127.93Z"
        fill="#2D3B45"
        fill-rule="evenodd" stroke="#152633" stroke-width="2" />
    <path clip-rule="evenodd" d="M27.7887 136.223C27.7887 156.246 44.9993 166.948 68.6591 166.948C92.3189 166.948 111.499 154.865 111.499 136.913C111.499 114.605 92.3189 93.069 68.6591 93.069C44.9993 93.069 27.7887 115.164 27.7887 136.223Z"
        fill="white"
        fill-rule="evenodd" stroke="#152633" stroke-width="2" />
    <path clip-rule="evenodd" d="M100.257 129.363C101.83 128.71 103.516 127.772 105.204 126.422C111.693 121.23 110.396 112.577 109.963 110.414C109.53 108.251 106.934 97.8668 98.7137 102.626C93.4045 105.7 90.3454 109.46 87.123 112.786C92.4706 117.332 98.7137 125.086 100.257 129.363Z"
        fill="#2D3B45"
        fill-rule="evenodd" stroke="#152633" stroke-width="2" />
</svg>
