<svg width="308" height="308" viewBox="0 0 308 308" fill="none" xmlns="http://www.w3.org/2000/svg">
<mask id="mask0" mask-type="alpha" maskUnits="userSpaceOnUse" x="0" y="0" width="308" height="308">
<path d="M308 154C308 68.9482 239.052 0 154 0C68.9482 0 0 68.9482 0 154C0 239.052 68.9482 308 154 308C239.052 308 308 239.052 308 154Z" fill="white"/>
</mask>
<g mask="url(#mask0)">
<path d="M308 154C308 68.9482 239.052 0 154 0C68.9482 0 0 68.9482 0 154C0 239.052 68.9482 308 154 308C239.052 308 308 239.052 308 154Z" fill="#99DBFF"/>
<path fill-rule="evenodd" clip-rule="evenodd" d="M0 199.5C35.6667 223.833 75.6667 231.333 120 222C202.953 204.536 237 132 308 132V296C308 302.627 302.627 308 296 308H12C5.37258 308 0 302.627 0 296V199.5Z" fill="#55C97D"/>
<path fill-rule="evenodd" clip-rule="evenodd" d="M0 200.5C35.6667 224.833 75.6667 232.333 120 223C202.953 205.536 237 133 308 133V297C308 303.627 302.627 309 296 309H295.958C295.972 309 295.986 309 296 309C302.627 308.977 307.981 303.585 307.957 296.958L307.5 167.5C236.5 167.5 203.953 212.036 121 229.5C76.6667 238.833 36.3333 230.5 0 204.5V200.5Z" fill="#64D18A"/>
<path d="M47.0954 87.3848C69.1868 87.3848 87.0954 69.4762 87.0954 47.3848C87.0954 25.2934 69.1868 7.38477 47.0954 7.38477C25.004 7.38477 7.0954 25.2934 7.0954 47.3848C7.0954 69.4762 25.004 87.3848 47.0954 87.3848Z" fill="#FEE28B"/>
<path fill-rule="evenodd" clip-rule="evenodd" d="M47.0954 -9L60.5155 4.41985C56.277 3.09737 51.7695 2.38478 47.0954 2.38478C42.4212 2.38478 37.9134 3.09744 33.6748 4.42004L47.0954 -9Z" fill="#FEE28B"/>
<path fill-rule="evenodd" clip-rule="evenodd" d="M86.9654 7.51497L86.966 26.4946C84.9041 22.5621 82.2204 18.8705 78.9152 15.5652C75.6096 12.2597 71.9178 9.57593 67.985 7.51392L86.9654 7.51497Z" fill="#FEE28B"/>
<path fill-rule="evenodd" clip-rule="evenodd" d="M103.48 47.3851L90.06 60.8051C91.3825 56.5667 92.0951 52.0591 92.0951 47.3851C92.0951 42.7109 91.3824 38.2031 90.0598 33.9645L103.48 47.3851Z" fill="#FEE28B"/>
<path fill-rule="evenodd" clip-rule="evenodd" d="M86.9654 68.2756L86.9649 87.2551L67.9845 87.2561C71.9173 85.1941 75.6091 82.5103 78.9147 79.2048C82.2199 75.8996 84.9035 72.2081 86.9654 68.2756Z" fill="#FEE28B"/>
<path fill-rule="evenodd" clip-rule="evenodd" d="M47.0948 103.77L33.6748 90.3497C37.9132 91.6722 42.4208 92.3848 47.0948 92.3848C51.769 92.3848 56.2768 91.6721 60.5154 90.3495L47.0948 103.77Z" fill="#FEE28B"/>
<path fill-rule="evenodd" clip-rule="evenodd" d="M15.2751 79.2044C18.5804 82.5097 22.2719 85.1933 26.2044 87.2553L7.22482 87.2546L7.22272 68.2722C9.28487 72.2058 11.969 75.8983 15.2751 79.2044Z" fill="#FEE28B"/>
<path fill-rule="evenodd" clip-rule="evenodd" d="M-9.28967 47.3844L4.13018 33.9644C2.8077 38.2028 2.0951 42.7104 2.0951 47.3844C2.0951 52.0587 2.80777 56.5664 4.13037 60.8051L-9.28967 47.3844Z" fill="#FEE28B"/>
<path fill-rule="evenodd" clip-rule="evenodd" d="M7.22524 7.51445L26.2039 7.51433C22.2717 9.57622 18.5805 12.2597 15.2755 15.5647C11.9703 18.8699 9.28674 22.5613 7.22481 26.4937L7.22524 7.51445Z" fill="#FEE28B"/>
<path fill-rule="evenodd" clip-rule="evenodd" d="M257.5 54C270.461 54 281.328 62.9666 284.236 75.035C284.653 75.0118 285.075 75 285.5 75C297.759 75 307.729 84.8048 307.995 97.0005L208.271 97.0007C208.093 95.8599 208 94.6908 208 93.5C208 81.0736 218.074 71 230.5 71C231.023 71 231.542 71.0178 232.056 71.0529C236.167 61.0461 246.01 54 257.5 54Z" fill="#F6FCFF"/>
<path fill-rule="evenodd" clip-rule="evenodd" d="M257.5 54C270.461 54 281.328 62.9666 284.236 75.035C284.653 75.0118 285.075 75 285.5 75C297.759 75 307.729 84.8048 307.995 97.0005L208.271 97.0007C208.093 95.8599 208 94.6908 208 93.5C208 93.3331 208.002 93.1666 208.005 93.0005L284.965 93.0004C282.257 83.4261 274.494 75.9744 264.741 73.7113C263.63 65.6513 259.027 58.706 252.507 54.4521C254.126 54.1551 255.795 54 257.5 54Z" fill="#EEEEEE"/>
<path fill-rule="evenodd" clip-rule="evenodd" d="M106.666 24C117.485 24 126.521 31.6372 128.677 41.8149C130.95 39.4621 134.137 38 137.666 38C143.354 38 148.155 41.7999 149.669 46.9999L70 47.0003C71.8065 42.3201 76.3483 39 81.6656 39C82.9182 39 84.1278 39.1842 85.2687 39.5271C88.202 30.5139 96.6731 24 106.666 24Z" fill="#F6FCFF"/>
<path fill-rule="evenodd" clip-rule="evenodd" d="M106.666 24C117.485 24 126.521 31.6372 128.677 41.8149C130.95 39.4621 134.137 38 137.666 38C143.354 38 148.155 41.7999 149.669 46.9999L70 47.0003C70.4172 45.9195 70.9802 44.9113 71.6649 43.9997L116.16 44.0005C116.164 43.8341 116.166 43.6673 116.166 43.5C116.166 35.2074 111.68 27.9627 105.002 24.0602C105.551 24.0204 106.106 24 106.666 24Z" fill="#E5E5E5"/>
<path fill-rule="evenodd" clip-rule="evenodd" d="M20.5 144C29.6384 144 37.5043 147.753 41.0272 153.144C42.654 152.414 44.5185 152 46.5 152C52.8513 152 58 156.253 58 161.5C58 162.011 57.9512 162.512 57.8574 163L-15 163C-15 158.582 -11.4183 155 -7 155C-4.97084 155 -3.11813 155.755 -1.70779 157C0.0253057 149.629 9.30843 144 20.5 144Z" fill="#E7F7FF"/>
<path fill-rule="evenodd" clip-rule="evenodd" d="M41.0272 153.144C42.654 152.414 44.5185 152 46.5 152C52.8513 152 58 156.253 58 161.5C58 162.01 57.9512 162.512 57.8574 163L-15 163C-15 161.939 -14.7935 160.926 -14.4185 160L35.4238 160.001C35.8008 158.876 36 157.704 36 156.5C36 151.967 33.1755 147.889 28.6729 145.054C34.1694 146.531 38.6158 149.454 41.0272 153.144Z" fill="#DCECF5"/>
<path d="M154 276C183.271 276 207 271.971 207 267C207 262.029 183.271 258 154 258C124.729 258 101 262.029 101 267C101 271.971 124.729 276 154 276Z" fill="black" fill-opacity="0.05"/>
<path d="M129.237 206.125C130.303 206.116 131.381 206.08 132.467 206.022C133.687 210.839 135.881 221.767 133.542 231.006C130.44 243.259 118.058 238.961 115.278 232.989C112.684 227.419 117.938 217.962 129.237 206.125Z" fill="#2D3B45"/>
<g filter="url(#filter0_i)">
<path d="M129.237 206.125C130.303 206.116 131.381 206.08 132.467 206.022C133.687 210.839 135.881 221.767 133.542 231.006C130.44 243.259 118.058 238.961 115.278 232.989C112.684 227.419 117.938 217.962 129.237 206.125Z" fill="#2D3B45"/>
</g>
<path d="M129.237 206.125C130.303 206.116 131.381 206.08 132.467 206.022C133.687 210.839 135.881 221.767 133.542 231.006C130.44 243.259 118.058 238.961 115.278 232.989C112.684 227.419 117.938 217.962 129.237 206.125Z" stroke="#152633" stroke-width="2"/>
<path d="M175.339 213.208C168.195 215.586 160.043 216.879 151.386 216.879C143.669 216.879 140.477 213.298 134.175 211.513C127.961 216.879 124.831 227.111 124.204 232.133C122.357 245.055 133.59 256.381 153.537 256.381C173.483 256.381 183.904 244.648 181.627 232.524C180.058 224.171 177.528 217.86 175.339 213.208Z" fill="white"/>
<g filter="url(#filter1_ii)">
<path d="M175.339 213.208C168.195 215.586 160.043 216.879 151.386 216.879C143.669 216.879 140.477 213.298 134.175 211.513C127.961 216.879 124.831 227.111 124.204 232.133C122.357 245.055 133.59 256.381 153.537 256.381C173.483 256.381 183.904 244.648 181.627 232.524C180.058 224.171 177.528 217.86 175.339 213.208Z" fill="white"/>
</g>
<path d="M175.339 213.208C168.195 215.586 160.043 216.879 151.386 216.879C143.669 216.879 140.477 213.298 134.175 211.513C127.961 216.879 124.831 227.111 124.204 232.133C122.357 245.055 133.59 256.381 153.537 256.381C173.483 256.381 183.904 244.648 181.627 232.524C180.058 224.171 177.528 217.86 175.339 213.208Z" stroke="#152633" stroke-width="2"/>
<path d="M181.653 233.545C183.177 244.2 174.919 254.358 159.032 256.29L159.368 257.795C160.541 264.053 162.888 266.4 166.799 267.573C175.403 270.702 194.176 269.529 192.221 262.098C190.135 251.407 186.612 241.89 181.653 233.545Z" fill="#2D3B45"/>
<g filter="url(#filter2_i)">
<path d="M181.653 233.545C183.177 244.2 174.919 254.358 159.032 256.29L159.368 257.795C160.541 264.053 162.888 266.4 166.799 267.573C175.403 270.702 194.176 269.529 192.221 262.098C190.135 251.407 186.612 241.89 181.653 233.545Z" fill="#2D3B45"/>
</g>
<path d="M181.653 233.545C183.177 244.2 174.919 254.358 159.032 256.29L159.368 257.795C160.541 264.053 162.888 266.4 166.799 267.573C175.403 270.702 194.176 269.529 192.221 262.098C190.135 251.407 186.612 241.89 181.653 233.545Z" stroke="#152633" stroke-width="2"/>
<path fill-rule="evenodd" clip-rule="evenodd" d="M192.221 262.098C189.092 246.062 182.18 236.493 181.788 233.365C183.313 244.019 174.919 254.358 159.032 256.29L159.368 257.795C160.541 264.053 162.888 266.4 166.799 267.573C175.403 270.702 194.176 269.529 192.221 262.098Z" stroke="#152633" stroke-width="2"/>
<path d="M124.032 233.545L123.974 233.546C123.583 236.675 116.543 246.062 113.414 262.097C111.459 269.528 130.232 270.702 138.837 267.573C142.748 266.399 145.094 264.053 146.268 257.795L146.586 256.491L146.603 256.132C131.548 253.914 123.137 244.411 124.032 233.545Z" fill="#2D3B45"/>
<g filter="url(#filter3_i)">
<path d="M124.032 233.545L123.974 233.546C123.583 236.675 116.543 246.062 113.414 262.097C111.459 269.528 130.232 270.702 138.837 267.573C142.748 266.399 145.094 264.053 146.268 257.795L146.586 256.491L146.603 256.132C131.548 253.914 123.137 244.411 124.032 233.545Z" fill="#2D3B45"/>
</g>
<path d="M124.032 233.545L123.974 233.546C123.583 236.675 116.543 246.062 113.414 262.097C111.459 269.528 130.232 270.702 138.837 267.573C142.748 266.399 145.094 264.053 146.268 257.795L146.586 256.491L146.603 256.132C131.548 253.914 123.137 244.411 124.032 233.545Z" stroke="#152633" stroke-width="2"/>
<path d="M180.528 211.125C191.826 222.962 197.08 232.419 194.486 237.989C191.706 243.961 179.324 248.259 176.223 236.006C173.884 226.767 176.077 215.839 177.298 211.022C178.384 211.08 179.462 211.116 180.528 211.125Z" fill="#2D3B45"/>
<g filter="url(#filter4_i)">
<path d="M180.528 211.125C191.826 222.962 197.08 232.419 194.486 237.989C191.706 243.961 179.324 248.259 176.223 236.006C173.884 226.767 176.077 215.839 177.298 211.022C178.384 211.08 179.462 211.116 180.528 211.125Z" fill="#2D3B45"/>
</g>
<path d="M180.528 211.125C191.826 222.962 197.08 232.419 194.486 237.989C191.706 243.961 179.324 248.259 176.223 236.006C173.884 226.767 176.077 215.839 177.298 211.022C178.384 211.08 179.462 211.116 180.528 211.125Z" stroke="#152633" stroke-width="2"/>
<path fill-rule="evenodd" clip-rule="evenodd" d="M124.032 233.545C123.583 236.675 116.543 246.062 113.414 262.097C111.459 269.528 130.232 270.702 138.837 267.573C142.748 266.399 145.094 264.053 146.268 257.795L146.586 256.491L146.603 256.132C131.548 253.914 123.137 244.411 124.032 233.545Z" stroke="#152633" stroke-width="2"/>
<path d="M106.415 173.544C110.894 149.365 136.375 127.846 164.944 133.138C193.513 138.431 212.604 169.25 205.476 192.382C198.875 213.805 177.798 223.258 149.229 217.965C120.66 212.672 102.155 196.535 106.415 173.544Z" fill="white"/>
<g filter="url(#filter5_i)">
<path d="M106.415 173.544C110.894 149.365 136.375 127.846 164.944 133.138C193.513 138.431 212.604 169.25 205.476 192.382C198.875 213.805 177.798 223.258 149.229 217.965C120.66 212.672 102.155 196.535 106.415 173.544Z" fill="white"/>
</g>
<path d="M106.415 173.544C110.894 149.365 136.375 127.846 164.944 133.138C193.513 138.431 212.604 169.25 205.476 192.382C198.875 213.805 177.798 223.258 149.229 217.965C120.66 212.672 102.155 196.535 106.415 173.544Z" stroke="#152633" stroke-width="2"/>
<path fill-rule="evenodd" clip-rule="evenodd" d="M157.179 201.372C156.685 200.383 156.382 201.505 155.825 203.099C154.97 205.205 153.777 206.621 151.056 207.316C150.873 207.355 150.685 207.391 150.491 207.423C150.495 207.43 150.498 207.436 150.501 207.443C149.301 207.69 147.827 207.815 146 207.815H150.491C151.165 208.681 151.971 209.549 152.791 210.263C153.156 210.59 153.558 210.917 153.995 211.245C155.211 212.157 155.92 212.271 156.397 211.828C156.736 211.697 157.006 211.409 157.179 210.926C157.47 210.117 157.634 208.898 157.696 207.591C158.048 205.05 157.735 202.484 157.179 201.372Z" fill="#152633" stroke="#152633" stroke-linecap="round" stroke-linejoin="round"/>
<path fill-rule="evenodd" clip-rule="evenodd" d="M149.466 195.665C149.08 197.744 145.307 198.789 141.038 197.998C136.77 197.208 133.622 194.881 134.007 192.801C134.392 190.721 138.165 189.676 142.434 190.467C146.703 191.258 149.851 193.585 149.466 195.665Z" fill="#152633"/>
<path fill-rule="evenodd" clip-rule="evenodd" d="M173.952 205.128L173.952 205.128C183.164 206.835 192.757 197.722 195.177 184.659C196.296 178.618 195.001 171.137 191.703 164.69C188.444 158.318 183.833 154.054 179.464 153.245C170.687 151.619 160.047 163.952 157.505 177.679C155.23 189.959 163.871 203.261 173.952 205.128Z" fill="#2D3B45" stroke="#152633" stroke-width="2"/>
<path fill-rule="evenodd" clip-rule="evenodd" d="M166.038 176.666C168.363 176.425 170.555 179.191 170.935 182.845C171.314 186.499 169.736 189.656 167.411 189.898C165.086 190.139 162.893 187.373 162.514 183.719C162.135 180.065 163.712 176.907 166.038 176.666Z" fill="white"/>
<path fill-rule="evenodd" clip-rule="evenodd" d="M132.447 183.825C136.072 180.082 138.952 175.08 140.442 170.306C143.913 159.193 144.624 150.205 141.778 145.773C140.822 144.284 139.416 143.366 137.545 143.019C128.912 141.42 114.597 154.786 112.368 166.814C110.955 174.443 111.976 179.489 115.581 184.584C117.059 186.674 119.643 188.313 121.828 188.718C121.877 188.727 121.928 188.736 121.988 188.745C125.043 189.227 128.765 187.627 132.447 183.825Z" fill="#2D3B45" stroke="#152633" stroke-width="2"/>
<path fill-rule="evenodd" clip-rule="evenodd" d="M126.01 173.79C127.373 171.106 129.863 169.633 131.571 170.5C133.279 171.368 133.559 174.247 132.196 176.931C130.833 179.615 128.344 181.089 126.636 180.221C124.927 179.354 124.648 176.475 126.01 173.79Z" fill="white"/>
<path d="M203.213 163.514C200.392 157.435 196.424 151.8 191.52 147.037C195.037 144.537 200.952 140.671 206.338 138.757C214.677 135.792 215.293 145.746 215.322 147.801C215.351 149.856 215.072 158.005 208.244 161.66C206.47 162.61 204.766 163.183 203.213 163.514Z" fill="#2D3B45"/>
<g filter="url(#filter6_i)">
<path d="M203.213 163.514C200.392 157.435 196.424 151.8 191.52 147.037C195.037 144.537 200.952 140.671 206.338 138.757C214.677 135.792 215.293 145.746 215.322 147.801C215.351 149.856 215.072 158.005 208.244 161.66C206.47 162.61 204.766 163.183 203.213 163.514Z" fill="#2D3B45"/>
</g>
<path d="M203.213 163.514C200.392 157.435 196.424 151.8 191.52 147.037C195.037 144.537 200.952 140.671 206.338 138.757C214.677 135.792 215.293 145.746 215.322 147.801C215.351 149.856 215.072 158.005 208.244 161.66C206.47 162.61 204.766 163.183 203.213 163.514Z" stroke="#152633" stroke-width="2"/>
<path d="M122.52 141.731C118.144 136.67 120.441 130.011 121.1 128.362C121.76 126.714 125.338 118.875 131.146 123.848C134.853 127.021 138.384 131.886 140.458 134.997C134.671 136.997 129.336 140.034 124.673 143.816C123.949 143.233 123.223 142.544 122.52 141.731Z" fill="#2D3B45"/>
<g filter="url(#filter7_i)">
<path d="M122.52 141.731C118.144 136.67 120.441 130.011 121.1 128.362C121.76 126.714 125.338 118.875 131.146 123.848C134.853 127.021 138.384 131.886 140.458 134.997C134.671 136.997 129.336 140.034 124.673 143.816C123.949 143.233 123.223 142.544 122.52 141.731Z" fill="#2D3B45"/>
</g>
<path d="M122.52 141.731C118.144 136.67 120.441 130.011 121.1 128.362C121.76 126.714 125.338 118.875 131.146 123.848C134.853 127.021 138.384 131.886 140.458 134.997C134.671 136.997 129.336 140.034 124.673 143.816C123.949 143.233 123.223 142.544 122.52 141.731Z" stroke="#152633" stroke-width="2"/>
<path d="M306 154C306 70.0527 237.947 2 154 2C70.0527 2 2 70.0527 2 154C2 237.947 70.0527 306 154 306C237.947 306 306 237.947 306 154Z" stroke="#152633" stroke-width="4"/>
</g>
<defs>
<filter id="filter0_i" x="114.627" y="206.022" width="19.9486" height="32.8371" filterUnits="userSpaceOnUse" color-interpolation-filters="sRGB">
<feFlood flood-opacity="0" result="BackgroundImageFix"/>
<feBlend mode="normal" in="SourceGraphic" in2="BackgroundImageFix" result="shape"/>
<feColorMatrix in="SourceAlpha" type="matrix" values="0 0 0 0 0 0 0 0 0 0 0 0 0 0 0 0 0 0 127 0" result="hardAlpha"/>
<feOffset dx="-7" dy="-4"/>
<feComposite in2="hardAlpha" operator="arithmetic" k2="-1" k3="1"/>
<feColorMatrix type="matrix" values="0 0 0 0 0 0 0 0 0 0 0 0 0 0 0 0 0 0 0.2 0"/>
<feBlend mode="normal" in2="shape" result="effect1_innerShadow"/>
</filter>
<filter id="filter1_ii" x="124.006" y="211.513" width="57.9289" height="44.8685" filterUnits="userSpaceOnUse" color-interpolation-filters="sRGB">
<feFlood flood-opacity="0" result="BackgroundImageFix"/>
<feBlend mode="normal" in="SourceGraphic" in2="BackgroundImageFix" result="shape"/>
<feColorMatrix in="SourceAlpha" type="matrix" values="0 0 0 0 0 0 0 0 0 0 0 0 0 0 0 0 0 0 127 0" result="hardAlpha"/>
<feOffset dx="-4" dy="-3"/>
<feComposite in2="hardAlpha" operator="arithmetic" k2="-1" k3="1"/>
<feColorMatrix type="matrix" values="0 0 0 0 0 0 0 0 0 0 0 0 0 0 0 0 0 0 0.1 0"/>
<feBlend mode="normal" in2="shape" result="effect1_innerShadow"/>
<feColorMatrix in="SourceAlpha" type="matrix" values="0 0 0 0 0 0 0 0 0 0 0 0 0 0 0 0 0 0 127 0" result="hardAlpha"/>
<feOffset dx="-1" dy="5"/>
<feComposite in2="hardAlpha" operator="arithmetic" k2="-1" k3="1"/>
<feColorMatrix type="matrix" values="0 0 0 0 0 0 0 0 0 0 0 0 0 0 0 0 0 0 0.1 0"/>
<feBlend mode="normal" in2="effect1_innerShadow" result="effect2_innerShadow"/>
</filter>
<filter id="filter2_i" x="159.032" y="233.545" width="33.3301" height="35.6503" filterUnits="userSpaceOnUse" color-interpolation-filters="sRGB">
<feFlood flood-opacity="0" result="BackgroundImageFix"/>
<feBlend mode="normal" in="SourceGraphic" in2="BackgroundImageFix" result="shape"/>
<feColorMatrix in="SourceAlpha" type="matrix" values="0 0 0 0 0 0 0 0 0 0 0 0 0 0 0 0 0 0 127 0" result="hardAlpha"/>
<feOffset dx="-3" dy="-3"/>
<feComposite in2="hardAlpha" operator="arithmetic" k2="-1" k3="1"/>
<feColorMatrix type="matrix" values="0 0 0 0 0 0 0 0 0 0 0 0 0 0 0 0 0 0 0.2 0"/>
<feBlend mode="normal" in2="shape" result="effect1_innerShadow"/>
</filter>
<filter id="filter3_i" x="113.273" y="233.545" width="33.3301" height="35.6499" filterUnits="userSpaceOnUse" color-interpolation-filters="sRGB">
<feFlood flood-opacity="0" result="BackgroundImageFix"/>
<feBlend mode="normal" in="SourceGraphic" in2="BackgroundImageFix" result="shape"/>
<feColorMatrix in="SourceAlpha" type="matrix" values="0 0 0 0 0 0 0 0 0 0 0 0 0 0 0 0 0 0 127 0" result="hardAlpha"/>
<feOffset dx="-2" dy="-2"/>
<feComposite in2="hardAlpha" operator="arithmetic" k2="-1" k3="1"/>
<feColorMatrix type="matrix" values="0 0 0 0 0 0 0 0 0 0 0 0 0 0 0 0 0 0 0.2 0"/>
<feBlend mode="normal" in2="shape" result="effect1_innerShadow"/>
</filter>
<filter id="filter4_i" x="175.189" y="211.022" width="19.9486" height="32.8371" filterUnits="userSpaceOnUse" color-interpolation-filters="sRGB">
<feFlood flood-opacity="0" result="BackgroundImageFix"/>
<feBlend mode="normal" in="SourceGraphic" in2="BackgroundImageFix" result="shape"/>
<feColorMatrix in="SourceAlpha" type="matrix" values="0 0 0 0 0 0 0 0 0 0 0 0 0 0 0 0 0 0 127 0" result="hardAlpha"/>
<feOffset dx="-2" dy="-2"/>
<feComposite in2="hardAlpha" operator="arithmetic" k2="-1" k3="1"/>
<feColorMatrix type="matrix" values="0 0 0 0 0 0 0 0 0 0 0 0 0 0 0 0 0 0 0.2 0"/>
<feBlend mode="normal" in2="shape" result="effect1_innerShadow"/>
</filter>
<filter id="filter5_i" x="105.806" y="132.33" width="101.168" height="87.0768" filterUnits="userSpaceOnUse" color-interpolation-filters="sRGB">
<feFlood flood-opacity="0" result="BackgroundImageFix"/>
<feBlend mode="normal" in="SourceGraphic" in2="BackgroundImageFix" result="shape"/>
<feColorMatrix in="SourceAlpha" type="matrix" values="0 0 0 0 0 0 0 0 0 0 0 0 0 0 0 0 0 0 127 0" result="hardAlpha"/>
<feOffset dx="-4" dy="-3"/>
<feComposite in2="hardAlpha" operator="arithmetic" k2="-1" k3="1"/>
<feColorMatrix type="matrix" values="0 0 0 0 0 0 0 0 0 0 0 0 0 0 0 0 0 0 0.1 0"/>
<feBlend mode="normal" in2="shape" result="effect1_innerShadow"/>
</filter>
<filter id="filter6_i" x="191.52" y="138.209" width="23.8029" height="25.3044" filterUnits="userSpaceOnUse" color-interpolation-filters="sRGB">
<feFlood flood-opacity="0" result="BackgroundImageFix"/>
<feBlend mode="normal" in="SourceGraphic" in2="BackgroundImageFix" result="shape"/>
<feColorMatrix in="SourceAlpha" type="matrix" values="0 0 0 0 0 0 0 0 0 0 0 0 0 0 0 0 0 0 127 0" result="hardAlpha"/>
<feOffset dx="-2" dy="-2"/>
<feComposite in2="hardAlpha" operator="arithmetic" k2="-1" k3="1"/>
<feColorMatrix type="matrix" values="0 0 0 0 0 0 0 0 0 0 0 0 0 0 0 0 0 0 0.2 0"/>
<feBlend mode="normal" in2="shape" result="effect1_innerShadow"/>
</filter>
<filter id="filter7_i" x="119.908" y="122.218" width="20.5494" height="21.5982" filterUnits="userSpaceOnUse" color-interpolation-filters="sRGB">
<feFlood flood-opacity="0" result="BackgroundImageFix"/>
<feBlend mode="normal" in="SourceGraphic" in2="BackgroundImageFix" result="shape"/>
<feColorMatrix in="SourceAlpha" type="matrix" values="0 0 0 0 0 0 0 0 0 0 0 0 0 0 0 0 0 0 127 0" result="hardAlpha"/>
<feOffset dx="-2" dy="-2"/>
<feComposite in2="hardAlpha" operator="arithmetic" k2="-1" k3="1"/>
<feColorMatrix type="matrix" values="0 0 0 0 0 0 0 0 0 0 0 0 0 0 0 0 0 0 0.2 0"/>
<feBlend mode="normal" in2="shape" result="effect1_innerShadow"/>
</filter>
</defs>
</svg>
