<svg width="150" height="199" viewBox="0 0 150 199" fill="none" xmlns="http://www.w3.org/2000/svg">
<path d="M75 198.077C116.421 198.077 150 191.193 150 182.702C150 174.211 116.421 167.327 75 167.327C33.5786 167.327 0 174.211 0 182.702C0 191.193 33.5786 198.077 75 198.077Z" fill="black" fill-opacity="0.05"/>
<path fill-rule="evenodd" clip-rule="evenodd" d="M104.898 111.827C95.4147 114.985 84.5918 116.702 73.0982 116.702C62.8532 116.702 53.3762 115.493 45.0098 113.123C41.6504 120.646 37.845 130.285 37.0116 136.952C34.5603 154.107 49.4732 169.144 75.9539 169.144C102.435 169.144 116.269 153.567 113.246 137.471C111.163 126.382 107.805 118.004 104.898 111.827Z" fill="white"/>
<path fill-rule="evenodd" clip-rule="evenodd" d="M104.898 111.827C95.4147 114.985 84.5918 116.702 73.0982 116.702C62.8532 116.702 53.3762 115.493 45.0098 113.123C41.6504 120.646 37.845 130.285 37.0116 136.952C34.5603 154.107 49.4732 169.144 75.9539 169.144C102.435 169.144 116.269 153.567 113.246 137.471C111.163 126.382 107.805 118.004 104.898 111.827Z" stroke="#152633" stroke-width="2"/>
<path fill-rule="evenodd" clip-rule="evenodd" d="M113.28 138.827C115.304 152.971 104.341 166.458 83.25 169.022L83.695 171.021C85.2527 179.329 88.3681 182.444 93.5604 184.002C104.983 188.156 129.907 186.598 127.31 176.732C124.541 162.54 119.864 149.905 113.28 138.827Z" fill="#2D3B45"/>
<path fill-rule="evenodd" clip-rule="evenodd" d="M127.31 176.732C123.157 155.444 113.98 142.741 113.461 138.587C115.485 152.731 104.341 166.458 83.25 169.022L83.695 171.021C85.2527 179.329 88.3681 182.444 93.5604 184.002C104.983 188.156 129.907 186.598 127.31 176.732Z" stroke="#152633" stroke-width="2"/>
<path fill-rule="evenodd" clip-rule="evenodd" d="M36.7838 138.827L36.7075 138.828C36.1882 142.982 26.8421 155.443 22.6882 176.732C20.0921 186.597 45.0152 188.155 56.4382 184.001C61.6305 182.443 64.7459 179.328 66.3036 171.02L66.7268 169.29L66.7486 168.813C46.7618 165.869 35.5953 153.252 36.7838 138.827Z" fill="#2D3B45"/>
<path fill-rule="evenodd" clip-rule="evenodd" d="M36.7838 138.827C36.1882 142.982 26.8421 155.443 22.6882 176.732C20.0921 186.597 45.0152 188.155 56.4382 184.001C61.6305 182.443 64.7459 179.328 66.3036 171.02L66.7268 169.29L66.7486 168.813C46.7618 165.869 35.5953 153.252 36.7838 138.827Z" stroke="#152633" stroke-width="2"/>
<path fill-rule="evenodd" clip-rule="evenodd" d="M47.0772 108.086C40.795 107.971 35.1214 114.014 33.009 122.725C30.6406 132.492 33.7033 141.454 41.616 144.712C49.7503 148.062 57.0345 148.558 63.2559 146.918C65.5765 146.307 67.6239 145.42 69.2878 144.391C70.506 143.637 71.4108 142.854 71.6256 142.51C73.2148 139.967 74.6075 133.02 73.93 128.37C73.0598 122.397 69.4576 120.187 61.6596 122.926C54.2123 125.543 49.498 125.589 47.0093 123.056C44.9773 120.988 44.8328 117.884 45.7996 113.312C45.9654 112.529 46.1542 111.738 46.4216 110.684C46.7494 109.391 46.9488 108.606 47.0772 108.086Z" fill="#2D3B45" stroke="#152633" stroke-width="2"/>
<path fill-rule="evenodd" clip-rule="evenodd" d="M104.289 108.086C110.571 107.971 116.244 114.014 118.357 122.725C120.725 132.492 117.663 141.454 109.75 144.712C101.616 148.062 94.3313 148.558 88.11 146.918C85.7893 146.307 83.742 145.42 82.0781 144.391C80.8598 143.637 79.9551 142.854 79.7403 142.51C78.151 139.967 76.7584 133.02 77.4358 128.37C78.3061 122.397 81.9083 120.187 89.7063 122.926C97.1535 125.543 101.868 125.589 104.357 123.056C106.389 120.988 106.533 117.884 105.566 113.312C105.4 112.529 105.212 111.738 104.944 110.684C104.616 109.391 104.417 108.606 104.289 108.086Z" fill="#2D3B45" stroke="#152633" stroke-width="2"/>
<path fill-rule="evenodd" clip-rule="evenodd" d="M9.78369 70.3277C9.78369 100.443 37.0054 116.539 74.4279 116.539C111.85 116.539 142.188 98.3661 142.188 71.3661C142.188 37.815 111.85 5.42383 74.4279 5.42383C37.0054 5.42383 9.78369 38.6546 9.78369 70.3277Z" fill="white"/>
<path d="M60 98.327C60 101.019 67.0515 103.202 75.75 103.202C84.4485 103.202 91.5 101.019 91.5 98.327" stroke="#152633" stroke-width="2" stroke-linecap="round" stroke-linejoin="round"/>
<path fill-rule="evenodd" clip-rule="evenodd" d="M9.78369 70.3277C9.78369 100.443 37.0054 116.539 74.4279 116.539C111.85 116.539 142.188 98.3661 142.188 71.3661C142.188 37.815 111.85 5.42383 74.4279 5.42383C37.0054 5.42383 9.78369 38.6546 9.78369 70.3277Z" stroke="#152633" stroke-width="2"/>
<path fill-rule="evenodd" clip-rule="evenodd" d="M86.1106 88.2411C86.1106 90.9655 81.5777 93.1738 75.9856 93.1738C70.3935 93.1738 65.8606 90.9655 65.8606 88.2411C65.8606 85.5167 70.3935 83.3084 75.9856 83.3084C81.5777 83.3084 86.1106 85.5167 86.1106 88.2411Z" fill="#152633"/>
<path fill-rule="evenodd" clip-rule="evenodd" d="M107.918 27.6929C96.569 27.6929 86.053 45.6983 86.053 63.5775C86.053 79.5478 100.025 94.2698 113.111 94.2698C125.043 94.2698 134.976 80.5846 134.976 63.5775C134.976 55.715 131.597 46.5891 125.936 39.2339C120.35 31.9764 113.565 27.6929 107.918 27.6929Z" fill="#2D3B45" stroke="#152633" stroke-width="2"/>
<path fill-rule="evenodd" clip-rule="evenodd" d="M38.3415 94.27C51.4273 94.27 65.3992 79.548 65.3992 63.5777C65.3992 45.6982 54.8832 27.6931 43.5338 27.6931C37.8863 27.6931 31.1018 31.9764 25.516 39.2342C19.8544 46.589 16.4761 55.7144 16.4761 63.5777C16.4761 80.5848 26.4089 94.27 38.3415 94.27Z" fill="#2D3B45" stroke="#152633" stroke-width="2"/>
<path fill-rule="evenodd" clip-rule="evenodd" d="M105.2 72.4516C105.2 76.3863 103.14 79.5762 100.6 79.5762C98.0596 79.5762 96 76.3863 96 72.4516C96 68.5169 98.0596 65.327 100.6 65.327C103.14 65.327 105.2 68.5169 105.2 72.4516Z" fill="white"/>
<path fill-rule="evenodd" clip-rule="evenodd" d="M55.6996 72.4516C55.6996 76.3863 53.64 79.5762 51.0998 79.5762C48.5596 79.5762 46.5 76.3863 46.5 72.4516C46.5 68.5169 48.5596 65.327 51.0998 65.327C53.64 65.327 55.6996 68.5169 55.6996 72.4516Z" fill="white"/>
<path fill-rule="evenodd" clip-rule="evenodd" d="M130.02 34.914C131.909 34.1305 133.931 33.0053 135.957 31.3853C143.745 25.1545 142.188 14.7699 141.668 12.1738C141.149 9.57762 138.034 -2.88392 128.168 2.82762C121.797 6.51624 115.213 12.8 111.346 16.7913C118.674 21.6721 125.02 27.8769 130.02 34.914Z" fill="#2D3B45"/>
<path fill-rule="evenodd" clip-rule="evenodd" d="M130.02 34.914C131.909 34.1305 133.931 33.0053 135.957 31.3853C143.745 25.1545 142.188 14.7699 141.668 12.1738C141.149 9.57762 138.034 -2.88392 128.168 2.82762C121.797 6.51624 115.213 12.8 111.346 16.7913C118.674 21.6721 125.02 27.8769 130.02 34.914Z" stroke="#152633" stroke-width="2"/>
<path fill-rule="evenodd" clip-rule="evenodd" d="M20.149 34.914C18.2611 34.1305 16.2376 33.0053 14.2121 31.3853C6.42366 25.1545 7.98135 14.7699 8.50058 12.1738C9.01981 9.57762 12.1352 -2.88392 22.0006 2.82762C28.3721 6.51624 34.9559 12.8 38.8231 16.7913C31.4958 21.6721 25.1492 27.8769 20.149 34.914Z" fill="#2D3B45"/>
<path fill-rule="evenodd" clip-rule="evenodd" d="M20.149 34.914C18.2611 34.1305 16.2376 33.0053 14.2121 31.3853C6.42366 25.1545 7.98135 14.7699 8.50058 12.1738C9.01981 9.57762 12.1352 -2.88392 22.0006 2.82762C28.3721 6.51624 34.9559 12.8 38.8231 16.7913C31.4958 21.6721 25.1492 27.8769 20.149 34.914Z" stroke="#152633" stroke-width="2"/>
<path fill-rule="evenodd" clip-rule="evenodd" d="M102 158.327V107.327H49.5V158.327H102Z" fill="#5DB9F2" stroke="#152633" stroke-width="2"/>
<path fill-rule="evenodd" clip-rule="evenodd" d="M105 146.327C90.0568 149.493 79.5359 143.958 78.4682 142.426C75.6741 138.418 70.6391 116.721 90.2034 122.885C98.0039 125.342 102.575 124.88 104.25 123.077" fill="#2D3B45"/>
<path d="M105 146.327C90.0568 149.493 79.5359 143.958 78.4682 142.426C75.6741 138.418 70.6391 116.721 90.2034 122.885C98.0039 125.342 102.575 124.88 104.25 123.077" stroke="#152633" stroke-width="2"/>
<path fill-rule="evenodd" clip-rule="evenodd" d="M48 123.827C49.6461 125.513 53.2614 125.279 60.4474 122.885C78.949 116.721 74.1875 138.418 71.5452 142.426C70.5385 143.953 60.5556 149.428 46.5 146.327" fill="#2D3B45"/>
<path d="M48 123.827C49.6461 125.513 53.2614 125.279 60.4474 122.885C78.949 116.721 74.1875 138.418 71.5452 142.426C70.5385 143.953 60.5556 149.428 46.5 146.327" stroke="#152633" stroke-width="2"/>
<path fill-rule="evenodd" clip-rule="evenodd" d="M102 111.827V102.827H54C51.5147 102.827 49.5 104.842 49.5 107.327C49.5 109.812 51.5147 111.827 54 111.827H102Z" fill="white" stroke="#152633" stroke-width="2"/>
</svg>
