<svg width="180" height="243" viewBox="0 0 180 243" fill="none" xmlns="http://www.w3.org/2000/svg">
<path d="M113 226.5C150.003 226.5 180 224.149 180 221.25C180 218.351 150.003 216 113 216C75.9969 216 46 218.351 46 221.25C46 224.149 75.9969 226.5 113 226.5Z" fill="black" fill-opacity="0.05"/>
<path d="M53 242.5C81.7188 242.5 105 238.359 105 233.25C105 228.141 81.7188 224 53 224C24.2812 224 1 228.141 1 233.25C1 238.359 24.2812 242.5 53 242.5Z" fill="black" fill-opacity="0.05"/>
<path fill-rule="evenodd" clip-rule="evenodd" d="M67 1H157C166.941 1 175 9.05887 175 19V181C175 190.941 166.941 199 157 199H67C57.0589 199 49 190.941 49 181V19C49 9.05887 57.0589 1 67 1Z" fill="#2D3B45" stroke="#152633" stroke-width="2"/>
<path fill-rule="evenodd" clip-rule="evenodd" d="M156.796 7C163.536 7 169 12.4397 169 19.15V181.35C169 188.06 163.536 193.5 156.796 193.5H67.2035C60.4637 193.5 55 188.06 55 181.35V19.15C55 12.4397 60.4637 7 67.2035 7C94.8122 7 121.134 7 156.796 7Z" fill="white" stroke="#152633" stroke-width="2"/>
<path d="M96 76.96C96.9867 76.1333 98.0533 75.36 99.2 74.64C100.373 73.92 101.627 73.2933 102.96 72.76C104.293 72.2 105.72 71.7733 107.24 71.48C108.787 71.16 110.453 71 112.24 71C114.747 71 117 71.3333 119 72C121.027 72.6667 122.747 73.6267 124.16 74.88C125.573 76.1067 126.653 77.6 127.4 79.36C128.173 81.0933 128.56 83.0267 128.56 85.16C128.56 87.1867 128.28 88.9467 127.72 90.44C127.16 91.9067 126.453 93.1867 125.6 94.28C124.747 95.3733 123.8 96.32 122.76 97.12C121.747 97.92 120.773 98.6667 119.84 99.36C118.933 100.027 118.133 100.693 117.44 101.36C116.773 102.027 116.347 102.773 116.16 103.6L115.04 109.2H106.56L105.68 102.76C105.467 101.453 105.6 100.32 106.08 99.36C106.56 98.3733 107.213 97.4933 108.04 96.72C108.893 95.92 109.84 95.1733 110.88 94.48C111.92 93.76 112.893 93 113.8 92.2C114.707 91.3733 115.467 90.4667 116.08 89.48C116.72 88.4667 117.04 87.2667 117.04 85.88C117.04 84.28 116.507 83.0133 115.44 82.08C114.4 81.12 112.96 80.64 111.12 80.64C109.707 80.64 108.52 80.7867 107.56 81.08C106.627 81.3733 105.813 81.7067 105.12 82.08C104.453 82.4267 103.867 82.7467 103.36 83.04C102.853 83.3333 102.347 83.48 101.84 83.48C100.693 83.48 99.84 82.9867 99.28 82L96 76.96ZM103.36 123.64C103.36 122.68 103.533 121.787 103.88 120.96C104.253 120.133 104.747 119.413 105.36 118.8C106 118.187 106.747 117.707 107.6 117.36C108.453 116.987 109.387 116.8 110.4 116.8C111.387 116.8 112.307 116.987 113.16 117.36C114.013 117.707 114.76 118.187 115.4 118.8C116.04 119.413 116.533 120.133 116.88 120.96C117.253 121.787 117.44 122.68 117.44 123.64C117.44 124.6 117.253 125.507 116.88 126.36C116.533 127.187 116.04 127.907 115.4 128.52C114.76 129.133 114.013 129.613 113.16 129.96C112.307 130.307 111.387 130.48 110.4 130.48C109.387 130.48 108.453 130.307 107.6 129.96C106.747 129.613 106 129.133 105.36 128.52C104.747 127.907 104.253 127.187 103.88 126.36C103.533 125.507 103.36 124.6 103.36 123.64Z" fill="#EE0612"/>
<path fill-rule="evenodd" clip-rule="evenodd" d="M68.1409 188.6C68.4081 189.632 68.6527 190.683 68.8774 191.747C73.8463 191.679 84.9692 190.97 93.2886 186.319C104.321 180.152 96.965 169.304 90.4766 168.164C84.4249 167.101 76.65 174.623 68.1409 188.6Z" fill="#2D3B45"/>
<path d="M67.3532 189.563C72.9266 189.317 82.3417 188.263 89.6145 184.197C97.0591 180.036 96.1306 173.743 92.7457 169.74C97.9438 173.057 101.512 181.441 92.3228 186.578C84.0033 191.228 72.8805 191.938 67.9115 192.006C67.7377 191.183 67.552 190.368 67.3532 189.563Z" fill="#28343D"/>
<path fill-rule="evenodd" clip-rule="evenodd" d="M68.1409 188.6C68.4081 189.632 68.6527 190.683 68.8774 191.747C73.8463 191.679 84.9692 190.97 93.2886 186.319C104.321 180.152 96.965 169.304 90.4766 168.164C84.4249 167.101 76.65 174.623 68.1409 188.6Z" stroke="#152633" stroke-width="2"/>
<path fill-rule="evenodd" clip-rule="evenodd" d="M32.6308 179.956C33.341 184.875 34.3804 195.972 31.0882 204.916C26.7228 216.777 14.8581 211.209 12.7173 204.979C10.7199 199.168 16.9336 190.312 29.4075 179.721C30.4689 179.824 31.5448 179.901 32.6308 179.956Z" fill="#2D3B45"/>
<path d="M12.35 202.808C12.3613 203.572 12.4826 204.297 12.7172 204.979C14.858 211.209 26.7226 216.778 31.0881 204.916C34.3802 195.972 33.3408 184.875 32.6307 179.956C31.8246 179.915 31.0241 179.862 30.2309 179.795C30.5752 185.312 30.3968 192.643 28.088 198.916C24.6807 208.174 16.705 206.814 12.35 202.808Z" fill="#28343D"/>
<path fill-rule="evenodd" clip-rule="evenodd" d="M32.6308 179.956C33.341 184.875 34.3804 195.972 31.0882 204.916C26.7228 216.777 14.8581 211.209 12.7173 204.979C10.7199 199.168 16.9336 190.312 29.4075 179.721C30.4689 179.824 31.5448 179.901 32.6308 179.956Z" stroke="#152633" stroke-width="2"/>
<path fill-rule="evenodd" clip-rule="evenodd" d="M73.7646 182.519C67.003 184.771 59.2861 185.995 51.091 185.995C43.7862 185.995 37.4712 184.209 31.5059 182.519C29.1105 187.883 25.955 195.68 25.3608 200.433C23.613 212.666 34.2461 223.387 53.1272 223.387C72.0083 223.387 81.872 212.28 79.717 200.804C78.2317 192.897 75.8375 186.923 73.7646 182.519Z" fill="white"/>
<path d="M34.6973 218.833C38.7215 220.457 43.5666 221.387 49.127 221.387C68.0082 221.387 77.8719 210.28 75.7168 198.804C74.5289 192.48 72.7597 187.393 71.0385 183.357C71.963 183.096 72.8721 182.816 73.7645 182.519C75.8373 186.923 78.2315 192.897 79.7168 200.804C81.8719 212.28 72.0082 223.387 53.127 223.387C45.5768 223.387 39.3454 221.673 34.6973 218.833Z" fill="#EDEDED"/>
<path fill-rule="evenodd" clip-rule="evenodd" d="M73.7646 182.519C67.003 184.771 59.2861 185.995 51.091 185.995C43.7862 185.995 37.4712 184.209 31.5059 182.519C29.1105 187.883 25.955 195.68 25.3608 200.433C23.613 212.666 34.2461 223.387 53.1272 223.387C72.0083 223.387 81.872 212.28 79.717 200.804C78.2317 192.897 75.8375 186.923 73.7646 182.519Z" stroke="#152633" stroke-width="2"/>
<path fill-rule="evenodd" clip-rule="evenodd" d="M89.7449 228.798C86.7832 213.619 80.2401 204.561 79.8699 201.599C81.313 211.684 73.3672 221.472 58.3293 223.3L58.6466 224.725C59.7573 230.649 61.9786 232.87 65.6808 233.981C73.8256 236.942 91.596 235.832 89.7449 228.798Z" fill="#2D3B45"/>
<path d="M79.8378 206.469C82.0671 211.163 85.0161 217.938 86.7448 226.798C88.5959 233.832 70.8255 234.942 62.6807 231.981C62.2948 231.865 61.9249 231.737 61.5708 231.594C62.6669 232.766 64.0259 233.484 65.6807 233.981C73.8255 236.942 91.5959 235.832 89.7448 228.798C87.7603 218.627 84.1679 211.205 81.9019 206.523C80.8158 204.279 80.0344 202.664 79.8809 201.679C80.1043 203.294 80.0867 204.902 79.8378 206.469Z" fill="#28343D"/>
<path fill-rule="evenodd" clip-rule="evenodd" d="M89.7449 228.798C86.7832 213.619 80.2401 204.561 79.8699 201.599C81.313 211.684 73.3672 221.472 58.3293 223.3L58.6466 224.725C59.7573 230.649 61.9786 232.87 65.6808 233.981C73.8256 236.942 91.596 235.832 89.7449 228.798Z" stroke="#152633" stroke-width="2"/>
<path fill-rule="evenodd" clip-rule="evenodd" d="M25.1984 201.771C24.7738 204.733 18.1099 213.618 15.1481 228.797C13.297 235.831 31.0675 236.942 39.2123 233.98C42.9145 232.87 45.1358 230.648 46.2464 224.725L46.5482 223.491L46.5637 223.151C32.3129 221.052 24.351 212.056 25.1984 201.771Z" fill="#2D3B45"/>
<path d="M15.1274 230.646C16.5918 236.006 31.8425 236.66 39.2122 233.98C42.9144 232.87 45.1357 230.648 46.2464 224.725L46.5481 223.491L46.5636 223.151C45.3623 222.974 44.2057 222.748 43.0953 222.476C41.9399 227.839 39.7536 229.918 36.2122 230.98C30.5615 233.035 20.2776 233.13 15.1274 230.646Z" fill="#28343D"/>
<path fill-rule="evenodd" clip-rule="evenodd" d="M25.1984 201.771C24.7738 204.733 18.1099 213.618 15.1481 228.797C13.297 235.831 31.0675 236.942 39.2123 233.98C42.9145 232.87 45.1358 230.648 46.2464 224.725L46.5482 223.491L46.5637 223.151C32.3129 221.052 24.351 212.056 25.1984 201.771Z" stroke="#152633" stroke-width="2"/>
<path fill-rule="evenodd" clip-rule="evenodd" d="M13.9753 146.861C12.6636 146.802 11.1952 146.568 9.61671 146.035C3.54695 143.985 3.25701 138.7 3.00007 137.019C2.74313 135.338 2.70802 126.263 9.91729 127.543C14.5733 128.37 18.0543 130.26 21.2653 131.82C17.9149 136.375 15.4473 141.515 13.9753 146.861Z" fill="#2D3B45"/>
<path d="M6.6166 142.035C8.19505 142.568 9.66354 142.802 10.9752 142.861C12.2869 138.097 14.389 133.497 17.2019 129.329C17.8941 129.655 18.5643 129.985 19.2198 130.307C19.5721 130.481 19.9202 130.652 20.2652 130.82C16.9148 135.375 14.4472 140.515 12.9752 145.861C11.6635 145.802 10.195 145.568 8.6166 145.035C5.26465 143.903 3.67535 141.784 2.88086 139.831C3.78686 140.709 4.99562 141.488 6.6166 142.035Z" fill="#28343D"/>
<path fill-rule="evenodd" clip-rule="evenodd" d="M13.9753 146.861C12.6636 146.802 11.1952 146.568 9.61671 146.035C3.54695 143.985 3.25701 138.7 3.00007 137.019C2.74313 135.338 2.70802 126.263 9.91729 127.543C14.5733 128.37 18.0543 130.26 21.2653 131.82C17.9149 136.375 15.4473 141.515 13.9753 146.861Z" stroke="#152633" stroke-width="2"/>
<path fill-rule="evenodd" clip-rule="evenodd" d="M11.2944 155.154C11.2944 175.177 28.505 185.879 52.1648 185.879C75.8247 185.879 95.0048 173.796 95.0048 155.844C95.0048 133.536 75.8247 112 52.1648 112C28.505 112 11.2944 134.095 11.2944 155.154Z" fill="white"/>
<path d="M37.9614 184.421C42.3299 185.389 47.0995 185.879 52.1648 185.879C75.8246 185.879 95.0048 173.796 95.0048 155.844C95.0048 134.611 77.6287 114.077 55.5525 112.148C74.6969 116.885 89.0048 135.577 89.0048 154.844C89.0048 172.796 69.8246 184.879 46.1648 184.879C43.3317 184.879 40.5911 184.726 37.9614 184.421Z" fill="#EDEDED"/>
<path fill-rule="evenodd" clip-rule="evenodd" d="M11.2944 155.154C11.2944 175.177 28.505 185.879 52.1648 185.879C75.8247 185.879 95.0048 173.796 95.0048 155.844C95.0048 133.536 75.8247 112 52.1648 112C28.505 112 11.2944 134.095 11.2944 155.154Z" stroke="#152633" stroke-width="2"/>
<path fill-rule="evenodd" clip-rule="evenodd" d="M83.7624 148.294C85.336 147.641 87.0217 146.703 88.7095 145.353C95.1994 140.161 93.9014 131.508 93.4688 129.345C93.0361 127.182 90.4401 116.798 82.2196 121.557C76.9104 124.631 73.8514 128.391 70.6289 131.717C75.9765 136.263 82.2196 144.017 83.7624 148.294Z" fill="#2D3B45"/>
<path d="M82.4094 145.52C83.0049 146.54 83.4688 147.48 83.7624 148.294C85.336 147.641 87.0216 146.703 88.7094 145.353C95.1993 140.162 93.9014 131.508 93.4687 129.345C93.1463 127.733 91.6224 121.555 87.4643 120.482C89.4086 122.768 90.2402 126.203 90.4687 127.345C90.9014 129.508 92.1993 138.162 85.7094 143.353C84.598 144.242 83.4876 144.952 82.4094 145.52Z" fill="#28343D"/>
<path fill-rule="evenodd" clip-rule="evenodd" d="M83.7624 148.294C85.336 147.641 87.0217 146.703 88.7095 145.353C95.1994 140.161 93.9014 131.508 93.4688 129.345C93.0361 127.182 90.4401 116.798 82.2196 121.557C76.9104 124.631 73.8514 128.391 70.6289 131.717C75.9765 136.263 82.2196 144.017 83.7624 148.294Z" stroke="#152633" stroke-width="2"/>
<path d="M47.1064 216.634C47.1625 217.533 47.6908 218.377 48.5643 218.799C49.5748 219.289 50.748 219.07 51.5131 218.338C52.2782 219.07 53.4514 219.289 54.4619 218.799C55.4641 218.314 56.0119 217.275 55.9134 216.235C56.9597 216.098 57.8599 215.334 58.1112 214.253C58.3636 213.168 57.8872 212.085 57.0001 211.509C57.5501 210.604 57.5023 209.417 56.7934 208.548C56.315 207.962 55.6314 207.638 54.9281 207.595C54.9593 208.113 54.8337 208.635 54.5592 209.087C55.4463 209.663 55.9227 210.746 55.6703 211.831C55.419 212.911 54.5187 213.676 53.4724 213.812C53.571 214.853 53.0232 215.892 52.021 216.377C51.0105 216.866 49.8372 216.647 49.0722 215.915C48.5475 216.417 47.8309 216.678 47.1064 216.634Z" fill="#EDEDED"/>
<path fill-rule="evenodd" clip-rule="evenodd" d="M48.7162 207.698C49.0175 206.885 49.7996 206.306 50.7171 206.306C51.6345 206.306 52.4166 206.885 52.7179 207.698C53.5355 207.429 54.4697 207.673 55.0435 208.382C55.6244 209.099 55.6635 210.079 55.213 210.826C55.9398 211.302 56.3301 212.196 56.1233 213.092C55.9174 213.984 55.1798 214.615 54.3225 214.728C54.4032 215.587 53.9544 216.445 53.1332 216.845C52.3052 217.249 51.3439 217.068 50.7171 216.464C50.0902 217.068 49.1289 217.249 48.3009 216.845C47.4797 216.445 47.0309 215.587 47.1116 214.728C46.2543 214.615 45.5167 213.984 45.3108 213.092C45.104 212.196 45.4943 211.302 46.2212 210.826C45.7706 210.079 45.8097 209.099 46.3906 208.382C46.9644 207.673 47.8987 207.429 48.7162 207.698Z" fill="#2D3B45"/>
<path d="M47.1064 215.058C47.1524 215.8 47.5852 216.496 48.301 216.845C49.1289 217.249 50.0902 217.068 50.7171 216.464C51.344 217.068 52.3053 217.249 53.1332 216.845C53.9544 216.445 54.4033 215.587 54.3225 214.728C55.1798 214.615 55.9174 213.984 56.1234 213.092C56.3302 212.196 55.9399 211.302 55.213 210.826C55.6636 210.079 55.6245 209.099 55.0436 208.382C54.6516 207.898 54.0915 207.63 53.5152 207.595C53.5408 208.022 53.4379 208.453 53.213 208.826C53.9399 209.302 54.3302 210.196 54.1234 211.092C53.9174 211.984 53.1798 212.615 52.3225 212.728C52.4033 213.587 51.9544 214.445 51.1332 214.845C50.3053 215.249 49.344 215.068 48.7171 214.464C48.2872 214.878 47.7 215.094 47.1064 215.058Z" fill="#28343D"/>
<path fill-rule="evenodd" clip-rule="evenodd" d="M48.7162 207.698C49.0175 206.885 49.7996 206.306 50.7171 206.306C51.6345 206.306 52.4166 206.885 52.7179 207.698C53.5355 207.429 54.4697 207.673 55.0435 208.382C55.6244 209.099 55.6635 210.079 55.213 210.826C55.9398 211.302 56.3301 212.196 56.1233 213.092C55.9174 213.984 55.1798 214.615 54.3225 214.728C54.4032 215.587 53.9544 216.445 53.1332 216.845C52.3052 217.249 51.3439 217.068 50.7171 216.464C50.0902 217.068 49.1289 217.249 48.3009 216.845C47.4797 216.445 47.0309 215.587 47.1116 214.728C46.2543 214.615 45.5167 213.984 45.3108 213.092C45.104 212.196 45.4943 211.302 46.2212 210.826C45.7706 210.079 45.8097 209.099 46.3906 208.382C46.9644 207.673 47.8987 207.429 48.7162 207.698Z" stroke="#152633" stroke-width="2"/>
</svg>
