<svg width="24" height="24" viewBox="0 0 24 24" fill="none" xmlns="http://www.w3.org/2000/svg">
<path fill-rule="evenodd" clip-rule="evenodd" d="M4 4H7.5V7.5H4V4ZM2 2H4H7.5H9.5V4V7.5V9.5H7.5H4H2V7.5V4V2ZM4 16.5H7.5V20H4V16.5ZM2 14.5H4H7.5H9.5V16.5V20V22H7.5H4H2V20V16.5V14.5ZM20 4H16.5V7.5H20V4ZM16.5 2H14.5V4V7.5V9.5H16.5H20H22V7.5V4V2H20H16.5ZM13 2H11V11H6V13H11H13V11V2ZM14.5 18H15H16.5H20H22V20V22H20V20H16.5V22H14.5V18ZM11 14.5H13V16.5H11V14.5ZM22 13V11H18V13H22ZM14.5 11H16.5V14.5H22V16.5H14.5V15V14.5V11ZM13 18H11V22H13V18ZM2 11H4V13H2V11Z" fill="#8B969E"/>
</svg>
