<svg width="20" height="20" viewBox="0 0 20 20" fill="none" xmlns="http://www.w3.org/2000/svg">
<path fill-rule="evenodd" clip-rule="evenodd" d="M0 16.2053L4.31775 11.8876L5.15731 12.7271L0.839562 17.0449L0 16.2053ZM6.04532 13.6138L6.88489 14.4534L3.43045 17.9078L2.59089 17.0683L6.04532 13.6138ZM5.18237 17.9324L7.77349 15.3413L8.61187 16.182L6.02074 18.772L5.18237 17.9324ZM19.5196 1.2465C19.5386 1.2845 21.3947 5.12606 17.6802 8.84056L16.1531 10.3677L16.1258 17.3039L13.8066 19.6231L10.3521 16.1698L10.0339 15.8516L9.93178 15.7494L4.33034 10.148L0.8759 6.69238L3.19509 4.37319L10.1313 4.34706L11.6596 2.81875C15.3729 -0.894562 19.2145 0.9615 19.2536 0.9805L19.4318 1.06838L19.5196 1.2465ZM14.9406 16.8099L14.9608 11.5599L11.1917 15.3302L13.8066 17.9439L14.9406 16.8099ZM2.55503 6.69238L5.1699 9.30844L8.93902 5.53931L3.68909 5.55831L2.55503 6.69238ZM16.8406 8.001C19.5173 5.32437 18.7988 2.67625 18.534 1.96256C17.8144 1.69181 15.1865 0.969812 12.4991 3.65831L6.00946 10.148L10.3521 14.4907L16.8406 8.001ZM15.9894 3.94331L16.5381 3.96469L16.5606 4.51213C16.582 5.05244 16.4288 5.87537 15.5726 6.73275L15.1523 7.15194L13.3461 5.34694L13.7676 4.92656C14.6179 4.07631 15.4574 3.92906 15.9894 3.94331Z" fill="#EC3349"/>
</svg>
