<svg width="24" height="24" viewBox="0 0 24 24" fill="none" xmlns="http://www.w3.org/2000/svg">
<path fill-rule="evenodd" clip-rule="evenodd" d="M4.17647 20.5H19.4706V8H4.17647V20.5ZM17.1176 3.17647H18.8824C19.8588 3.17647 20.6471 3.96471 20.6471 4.94118V22H3V4.94118C3 3.96471 3.78824 3.17647 4.76471 3.17647H6.52941V2.58824C6.52941 2.25882 6.78824 2 7.11765 2C7.44706 2 7.70588 2.25882 7.70588 2.58824V3.17647H15.9412V2.58824C15.9412 2.25882 16.2 2 16.5294 2C16.8588 2 17.1176 2.25882 17.1176 2.58824V3.17647ZM8.5 14.5C9.60457 14.5 10.5 13.6046 10.5 12.5C10.5 11.3954 9.60457 10.5 8.5 10.5C7.39543 10.5 6.5 11.3954 6.5 12.5C6.5 13.6046 7.39543 14.5 8.5 14.5Z" fill="white"/>
</svg>
