<svg width="28" height="28" viewBox="0 0 28 28" fill="none" xmlns="http://www.w3.org/2000/svg">
<path opacity="0.3" fill-rule="evenodd" clip-rule="evenodd" d="M20 6.75C20 12.75 17.5 20.75 6.5 20.75H21.5C22.1667 12.75 21.6667 8.08333 20 6.75Z" fill="#008EE2"/>
<path opacity="0.8" fill-rule="evenodd" clip-rule="evenodd" d="M14 1.75C14.2761 1.75 14.5 1.97386 14.5 2.25V3.75C14.5 4.02614 14.2761 4.25 14 4.25C13.7239 4.25 13.5 4.02614 13.5 3.75V2.25C13.5 1.97386 13.7239 1.75 14 1.75ZM14 7.25C11.5147 7.25 9.5 9.26472 9.5 11.75C9.5 12.0261 9.27614 12.25 9 12.25C8.72386 12.25 8.5 12.0261 8.5 11.75C8.5 8.71243 10.9624 6.25 14 6.25C14.2761 6.25 14.5 6.47386 14.5 6.75C14.5 7.02614 14.2761 7.25 14 7.25ZM10.6929 21.6017C10.5678 21.962 10.5 22.3486 10.5 22.75C10.5 24.683 12.067 26.25 14 26.25C15.933 26.25 17.5 24.683 17.5 22.75C17.5 22.3495 17.4325 21.9637 17.308 21.6041L16.363 21.9314C16.4516 22.1872 16.5 22.4624 16.5 22.75C16.5 24.1307 15.3807 25.25 14 25.25C12.6193 25.25 11.5 24.1307 11.5 22.75C11.5 22.4618 11.5486 22.186 11.6376 21.9297L10.6929 21.6017Z" fill="#008EE2"/>
<path fill-rule="evenodd" clip-rule="evenodd" d="M7 11.75C7 7.88401 10.134 4.75 14 4.75C17.866 4.75 21 7.88401 21 11.75V18.75C21 19.4735 21.1137 20.1559 21.3842 20.75H6.61582C6.88633 20.1559 7 19.4735 7 18.75V11.75ZM25 20.75V22.75H3V20.75C3.84586 20.75 4.29657 20.5392 4.54289 20.2929C4.78921 20.0466 5 19.5959 5 18.75V11.75C5 6.77944 9.02944 2.75 14 2.75C18.9706 2.75 23 6.77944 23 11.75V18.75C23 19.5959 23.2108 20.0466 23.4571 20.2929C23.7034 20.5392 24.1541 20.75 25 20.75Z" fill="#008EE2"/>
</svg>
