<svg width="28" height="28" viewBox="0 0 28 28" fill="none" xmlns="http://www.w3.org/2000/svg">
<path opacity="0.8" fill-rule="evenodd" clip-rule="evenodd" d="M14 1.75C14.2761 1.75 14.5 1.97386 14.5 2.25V3.75C14.5 4.02614 14.2761 4.25 14 4.25C13.7239 4.25 13.5 4.02614 13.5 3.75V2.25C13.5 1.97386 13.7239 1.75 14 1.75ZM14 7.25C11.5147 7.25 9.5 9.26472 9.5 11.75C9.5 12.0261 9.27614 12.25 9 12.25C8.72386 12.25 8.5 12.0261 8.5 11.75C8.5 8.71243 10.9624 6.25 14 6.25C14.2761 6.25 14.5 6.47386 14.5 6.75C14.5 7.02614 14.2761 7.25 14 7.25ZM10.6929 21.6017C10.5678 21.962 10.5 22.3486 10.5 22.75C10.5 24.683 12.067 26.25 14 26.25C15.933 26.25 17.5 24.683 17.5 22.75C17.5 22.3495 17.4325 21.9637 17.308 21.6041L16.363 21.9314C16.4516 22.1872 16.5 22.4624 16.5 22.75C16.5 24.1307 15.3807 25.25 14 25.25C12.6193 25.25 11.5 24.1307 11.5 22.75C11.5 22.4618 11.5486 22.186 11.6376 21.9297L10.6929 21.6017Z" fill="#556572"/>
<path fill-rule="evenodd" clip-rule="evenodd" d="M6.75 11.75C6.75 7.74594 9.99594 4.5 14 4.5C18.0041 4.5 21.25 7.74594 21.25 11.75V18.75C21.25 19.6041 21.4138 20.3755 21.8003 21H6.19965C6.58621 20.3755 6.75 19.6041 6.75 18.75V11.75ZM25 21V22.5H3V21C3.88439 21 4.40993 20.7794 4.71967 20.4697C5.02941 20.1599 5.25 19.6344 5.25 18.75V11.75C5.25 6.91751 9.16751 3 14 3C18.8325 3 22.75 6.91751 22.75 11.75V18.75C22.75 19.6344 22.9706 20.1599 23.2803 20.4697C23.5901 20.7794 24.1156 21 25 21Z" fill="#556572"/>
</svg>
