<svg width="28" height="28" viewBox="0 0 28 28" fill="none" xmlns="http://www.w3.org/2000/svg">
<path opacity="0.8" fill-rule="evenodd" clip-rule="evenodd" d="M7 13.85C7 13.2899 7 13.0099 7.10899 12.796C7.20487 12.6078 7.35785 12.4549 7.54601 12.359C7.75992 12.25 8.03995 12.25 8.6 12.25H9.4C9.96005 12.25 10.2401 12.25 10.454 12.359C10.6422 12.4549 10.7951 12.6078 10.891 12.796C11 13.0099 11 13.2899 11 13.85V14.65C11 15.2101 11 15.4901 10.891 15.704C10.7951 15.8922 10.6422 16.0451 10.454 16.141C10.2401 16.25 9.96005 16.25 9.4 16.25H8.6C8.03995 16.25 7.75992 16.25 7.54601 16.141C7.35785 16.0451 7.20487 15.8922 7.10899 15.704C7 15.4901 7 15.2101 7 14.65V13.85ZM8 14.05C8 13.77 8 13.63 8.0545 13.523C8.10243 13.4289 8.17892 13.3524 8.273 13.3045C8.37996 13.25 8.51997 13.25 8.8 13.25H9.2C9.48003 13.25 9.62004 13.25 9.727 13.3045C9.82108 13.3524 9.89757 13.4289 9.9455 13.523C10 13.63 10 13.77 10 14.05V14.45C10 14.73 10 14.87 9.9455 14.977C9.89757 15.0711 9.82108 15.1476 9.727 15.1955C9.62004 15.25 9.48003 15.25 9.2 15.25H8.8C8.51997 15.25 8.37996 15.25 8.273 15.1955C8.17892 15.1476 8.10243 15.0711 8.0545 14.977C8 14.87 8 14.73 8 14.45V14.05ZM12 13.85C12 13.2899 12 13.0099 12.109 12.796C12.2049 12.6078 12.3578 12.4549 12.546 12.359C12.7599 12.25 13.0399 12.25 13.6 12.25H14.4C14.9601 12.25 15.2401 12.25 15.454 12.359C15.6422 12.4549 15.7951 12.6078 15.891 12.796C16 13.0099 16 13.2899 16 13.85V14.65C16 15.2101 16 15.4901 15.891 15.704C15.7951 15.8922 15.6422 16.0451 15.454 16.141C15.2401 16.25 14.9601 16.25 14.4 16.25H13.6C13.0399 16.25 12.7599 16.25 12.546 16.141C12.3578 16.0451 12.2049 15.8922 12.109 15.704C12 15.4901 12 15.2101 12 14.65V13.85ZM13 14.05C13 13.77 13 13.63 13.0545 13.523C13.1024 13.4289 13.1789 13.3524 13.273 13.3045C13.38 13.25 13.52 13.25 13.8 13.25H14.2C14.48 13.25 14.62 13.25 14.727 13.3045C14.8211 13.3524 14.8976 13.4289 14.9455 13.523C15 13.63 15 13.77 15 14.05V14.45C15 14.73 15 14.87 14.9455 14.977C14.8976 15.0711 14.8211 15.1476 14.727 15.1955C14.62 15.25 14.48 15.25 14.2 15.25H13.8C13.52 15.25 13.38 15.25 13.273 15.1955C13.1789 15.1476 13.1024 15.0711 13.0545 14.977C13 14.87 13 14.73 13 14.45V14.05ZM17.109 12.796C17 13.0099 17 13.2899 17 13.85V14.65C17 15.2101 17 15.4901 17.109 15.704C17.2049 15.8922 17.3578 16.0451 17.546 16.141C17.7599 16.25 18.0399 16.25 18.6 16.25H19.4C19.9601 16.25 20.2401 16.25 20.454 16.141C20.6422 16.0451 20.7951 15.8922 20.891 15.704C21 15.4901 21 15.2101 21 14.65V13.85C21 13.2899 21 13.0099 20.891 12.796C20.7951 12.6078 20.6422 12.4549 20.454 12.359C20.2401 12.25 19.9601 12.25 19.4 12.25H18.6C18.0399 12.25 17.7599 12.25 17.546 12.359C17.3578 12.4549 17.2049 12.6078 17.109 12.796ZM18.0545 13.523C18 13.63 18 13.77 18 14.05V14.45C18 14.73 18 14.87 18.0545 14.977C18.1024 15.0711 18.1789 15.1476 18.273 15.1955C18.38 15.25 18.52 15.25 18.8 15.25H19.2C19.48 15.25 19.62 15.25 19.727 15.1955C19.8211 15.1476 19.8976 15.0711 19.9455 14.977C20 14.87 20 14.73 20 14.45V14.05C20 13.77 20 13.63 19.9455 13.523C19.8976 13.4289 19.8211 13.3524 19.727 13.3045C19.62 13.25 19.48 13.25 19.2 13.25H18.8C18.52 13.25 18.38 13.25 18.273 13.3045C18.1789 13.3524 18.1024 13.4289 18.0545 13.523ZM7 18.85C7 18.2899 7 18.0099 7.10899 17.796C7.20487 17.6078 7.35785 17.4549 7.54601 17.359C7.75992 17.25 8.03995 17.25 8.6 17.25H9.4C9.96005 17.25 10.2401 17.25 10.454 17.359C10.6422 17.4549 10.7951 17.6078 10.891 17.796C11 18.0099 11 18.2899 11 18.85V19.65C11 20.2101 11 20.4901 10.891 20.704C10.7951 20.8922 10.6422 21.0451 10.454 21.141C10.2401 21.25 9.96005 21.25 9.4 21.25H8.6C8.03995 21.25 7.75992 21.25 7.54601 21.141C7.35785 21.0451 7.20487 20.8922 7.10899 20.704C7 20.4901 7 20.2101 7 19.65V18.85ZM8 19.05C8 18.77 8 18.63 8.0545 18.523C8.10243 18.4289 8.17892 18.3524 8.273 18.3045C8.37996 18.25 8.51997 18.25 8.8 18.25H9.2C9.48003 18.25 9.62004 18.25 9.727 18.3045C9.82108 18.3524 9.89757 18.4289 9.9455 18.523C10 18.63 10 18.77 10 19.05V19.45C10 19.73 10 19.87 9.9455 19.977C9.89757 20.0711 9.82108 20.1476 9.727 20.1955C9.62004 20.25 9.48003 20.25 9.2 20.25H8.8C8.51997 20.25 8.37996 20.25 8.273 20.1955C8.17892 20.1476 8.10243 20.0711 8.0545 19.977C8 19.87 8 19.73 8 19.45V19.05ZM12.109 17.796C12 18.0099 12 18.2899 12 18.85V19.65C12 20.2101 12 20.4901 12.109 20.704C12.2049 20.8922 12.3578 21.0451 12.546 21.141C12.7599 21.25 13.0399 21.25 13.6 21.25H14.4C14.9601 21.25 15.2401 21.25 15.454 21.141C15.6422 21.0451 15.7951 20.8922 15.891 20.704C16 20.4901 16 20.2101 16 19.65V18.85C16 18.2899 16 18.0099 15.891 17.796C15.7951 17.6078 15.6422 17.4549 15.454 17.359C15.2401 17.25 14.9601 17.25 14.4 17.25H13.6C13.0399 17.25 12.7599 17.25 12.546 17.359C12.3578 17.4549 12.2049 17.6078 12.109 17.796ZM13.0545 18.523C13 18.63 13 18.77 13 19.05V19.45C13 19.73 13 19.87 13.0545 19.977C13.1024 20.0711 13.1789 20.1476 13.273 20.1955C13.38 20.25 13.52 20.25 13.8 20.25H14.2C14.48 20.25 14.62 20.25 14.727 20.1955C14.8211 20.1476 14.8976 20.0711 14.9455 19.977C15 19.87 15 19.73 15 19.45V19.05C15 18.77 15 18.63 14.9455 18.523C14.8976 18.4289 14.8211 18.3524 14.727 18.3045C14.62 18.25 14.48 18.25 14.2 18.25H13.8C13.52 18.25 13.38 18.25 13.273 18.3045C13.1789 18.3524 13.1024 18.4289 13.0545 18.523ZM17 18.85C17 18.2899 17 18.0099 17.109 17.796C17.2049 17.6078 17.3578 17.4549 17.546 17.359C17.7599 17.25 18.0399 17.25 18.6 17.25H19.4C19.9601 17.25 20.2401 17.25 20.454 17.359C20.6422 17.4549 20.7951 17.6078 20.891 17.796C21 18.0099 21 18.2899 21 18.85V19.65C21 20.2101 21 20.4901 20.891 20.704C20.7951 20.8922 20.6422 21.0451 20.454 21.141C20.2401 21.25 19.9601 21.25 19.4 21.25H18.6C18.0399 21.25 17.7599 21.25 17.546 21.141C17.3578 21.0451 17.2049 20.8922 17.109 20.704C17 20.4901 17 20.2101 17 19.65V18.85ZM18 19.05C18 18.77 18 18.63 18.0545 18.523C18.1024 18.4289 18.1789 18.3524 18.273 18.3045C18.38 18.25 18.52 18.25 18.8 18.25H19.2C19.48 18.25 19.62 18.25 19.727 18.3045C19.8211 18.3524 19.8976 18.4289 19.9455 18.523C20 18.63 20 18.77 20 19.05V19.45C20 19.73 20 19.87 19.9455 19.977C19.8976 20.0711 19.8211 20.1476 19.727 20.1955C19.62 20.25 19.48 20.25 19.2 20.25H18.8C18.52 20.25 18.38 20.25 18.273 20.1955C18.1789 20.1476 18.1024 20.0711 18.0545 19.977C18 19.87 18 19.73 18 19.45V19.05Z" fill="#556572"/>
<path fill-rule="evenodd" clip-rule="evenodd" d="M9.24996 3C9.24996 2.58579 8.91417 2.25 8.49996 2.25C8.08574 2.25 7.74996 2.58579 7.74996 3V3.25H7.12109H7.12109C6.72573 3.24999 6.38466 3.24998 6.10373 3.27293C5.80722 3.29715 5.51231 3.35064 5.22852 3.49524C4.80516 3.71095 4.46095 4.05516 4.24524 4.47852C4.10064 4.76231 4.04715 5.05722 4.02293 5.35373C3.99998 5.63466 3.99999 5.97573 4 6.37109V25.75H24V6.37108V6.37098C24 5.97567 24 5.63463 23.9771 5.35373C23.9528 5.05722 23.8994 4.76231 23.7548 4.47852C23.539 4.05516 23.1948 3.71095 22.7715 3.49524C22.4877 3.35064 22.1928 3.29715 21.8963 3.27293C21.6153 3.24998 21.2743 3.24999 20.8789 3.25H20.25V3C20.25 2.58579 19.9142 2.25 19.5 2.25C19.0857 2.25 18.75 2.58579 18.75 3V3.25H9.24996V3ZM7.74996 4.75V5C7.74996 5.41421 8.08574 5.75 8.49996 5.75C8.91417 5.75 9.24996 5.41421 9.24996 5V4.75H18.75V5C18.75 5.41421 19.0857 5.75 19.5 5.75C19.9142 5.75 20.25 5.41421 20.25 5V4.75H20.85C21.2824 4.75 21.5616 4.75058 21.7741 4.76795C21.9779 4.78459 22.0534 4.81285 22.0905 4.83175C22.2316 4.90365 22.3463 5.01839 22.4183 5.15951C22.4371 5.19659 22.4654 5.27213 22.4821 5.47588C22.4994 5.68838 22.5 5.96759 22.5 6.4V7.75H5.5V6.4C5.5 5.96759 5.50058 5.68838 5.51795 5.47588C5.53459 5.27213 5.56285 5.19659 5.58175 5.15951C5.65365 5.01839 5.76839 4.90365 5.90951 4.83175C5.94659 4.81285 6.02213 4.78459 6.22588 4.76795C6.43838 4.75058 6.71759 4.75 7.15 4.75H7.74996ZM5.5 9.25V24.25H22.5V9.25H5.5Z" fill="#556572"/>
</svg>
