<svg width="28" height="28" viewBox="0 0 28 28" fill="none" xmlns="http://www.w3.org/2000/svg">
<path opacity="0.6" fill-rule="evenodd" clip-rule="evenodd" d="M9.78406 6.5L9.8 6.5H18.2L18.216 6.5H18.216H18.2161C18.3422 6.49999 18.4651 6.49998 18.5691 6.50848C18.6834 6.51782 18.8183 6.53985 18.954 6.609C19.1422 6.70487 19.2951 6.85785 19.391 7.04601C19.4602 7.18173 19.4822 7.31659 19.4915 7.43089C19.5 7.53497 19.5 7.65787 19.5 7.78406V10.2159C19.5 10.3421 19.5 10.465 19.4915 10.5691C19.4822 10.6834 19.4602 10.8183 19.391 10.954C19.2951 11.1422 19.1422 11.2951 18.954 11.391C18.8183 11.4602 18.6834 11.4822 18.5691 11.4915C18.465 11.5 18.3421 11.5 18.2159 11.5H9.78406C9.65787 11.5 9.53497 11.5 9.43089 11.4915C9.31659 11.4822 9.18173 11.4602 9.04601 11.391C8.85785 11.2951 8.70487 11.1422 8.609 10.954C8.53985 10.8183 8.51782 10.6834 8.50848 10.5691C8.49998 10.4651 8.49999 10.3422 8.5 10.2161V10.216V10.216L8.5 10.2V7.8L8.5 7.78406V7.784V7.78395C8.49999 7.6578 8.49998 7.53494 8.50848 7.43089C8.51782 7.31659 8.53985 7.18173 8.609 7.04601C8.70487 6.85785 8.85785 6.70487 9.04601 6.609C9.18173 6.53985 9.31659 6.51782 9.43089 6.50848C9.53494 6.49998 9.65779 6.49999 9.78394 6.5H9.78399H9.78406ZM9.5 8C9.5 7.72386 9.72386 7.5 10 7.5H18C18.2761 7.5 18.5 7.72386 18.5 8V10C18.5 10.2761 18.2761 10.5 18 10.5H10C9.72386 10.5 9.5 10.2761 9.5 10V8ZM10 12.5C9.72386 12.5 9.5 12.7239 9.5 13C9.5 13.2761 9.72386 13.5 10 13.5H18C18.2761 13.5 18.5 13.2761 18.5 13C18.5 12.7239 18.2761 12.5 18 12.5H10Z" fill="#2D3B45"/>
<path fill-rule="evenodd" clip-rule="evenodd" d="M8 2.25C5.92893 2.25 4.25 3.92893 4.25 6V22.25C4.25 24.183 5.817 25.75 7.75 25.75H23V24.25H21.25V20.25H22.25H23H23.75V2.25H8ZM19.75 20.25H7.75C6.64543 20.25 5.75 21.1454 5.75 22.25C5.75 23.3546 6.64543 24.25 7.75 24.25H19.75V23H8C7.58579 23 7.25 22.6642 7.25 22.25C7.25 21.8358 7.58579 21.5 8 21.5H19.75V20.25ZM22.25 18.75V3.75H8C6.75736 3.75 5.75 4.75736 5.75 6V19.3773C6.31692 18.9819 7.00638 18.75 7.75 18.75H22.25Z" fill="#2D3B45"/>
</svg>
